<svg xmlns="http://www.w3.org/2000/svg" xmlns:xlink="http://www.w3.org/1999/xlink" width="110" height="110" viewBox="0 0 110 110">
  <defs>
    <clipPath id="clip-path">
      <rect id="Rectangle_411097" data-name="Rectangle 411097" width="71" height="68" transform="translate(1179.832 1743.594)" fill="#fff" stroke="#707070" stroke-width="1"/>
    </clipPath>
  </defs>
  <g id="Group_1204888" data-name="Group 1204888" transform="translate(-1160.781 -1722.594)">
    <circle id="Ellipse_12740" data-name="Ellipse 12740" cx="55" cy="55" r="55" transform="translate(1160.781 1722.594)" fill="#f5ae5c"/>
    <g id="Mask_Group_1099363" data-name="Mask Group 1099363" clip-path="url(#clip-path)">
      <g id="key-performance-indicator_4335864" transform="translate(1181.332 1743.594)">
        <g id="Group_1204877" data-name="Group 1204877">
          <g id="Group_1204865" data-name="Group 1204865">
            <path id="Path_1245183" data-name="Path 1245183" d="M58.129,39.615V66.9A28.447,28.447,0,0,0,47.271,44.518l.494-1.963a19.125,19.125,0,0,0,2.095-.417l1.481,2,4.047-1.678L55.025,40a19.069,19.069,0,0,0,1.766-1.185Z" fill="#e6e9ed"/>
          </g>
          <g id="Group_1204866" data-name="Group 1204866">
            <path id="Path_1245184" data-name="Path 1245184" d="M23.032,20.839v4.387l2.413.6a19.124,19.124,0,0,0,.417,2.095l-2,1.481,1.678,4.047L28,33.09a19.069,19.069,0,0,0,1.185,1.766L27.9,36.994l1.393,1.393A28.513,28.513,0,0,0,1.1,66.9V14.258H24.864l-1,2.4,2,1.481a19.124,19.124,0,0,0-.417,2.095Z" fill="#e6e9ed"/>
          </g>
          <g id="Group_1204867" data-name="Group 1204867">
            <path id="Path_1245185" data-name="Path 1245185" d="M36.194,60.323c0-3.159-1.514-8.325-3.093-12.854h.011A19.755,19.755,0,0,1,49.355,66.9H29.613A6.586,6.586,0,0,0,36.194,60.323Z" fill="#4fc1e9"/>
          </g>
          <g id="Group_1204868" data-name="Group 1204868">
            <path id="Path_1245186" data-name="Path 1245186" d="M26.125,47.468c-1.579,4.519-3.093,9.7-3.093,12.854A6.586,6.586,0,0,0,29.613,66.9H9.871A19.755,19.755,0,0,1,26.114,47.468Z" fill="#4fc1e9"/>
          </g>
          <g id="Group_1204869" data-name="Group 1204869">
            <path id="Path_1245187" data-name="Path 1245187" d="M34.548,42.456,38.6,44.134l1.481-2a19.125,19.125,0,0,0,2.095.417l.6,2.413h4.387l.11-.45A28.447,28.447,0,0,1,58.129,66.9H49.355A19.755,19.755,0,0,0,33.112,47.468H33.1c-1.327-3.85-2.709-7.228-3.246-8.522L31.006,40.1l2.139-1.283A19.07,19.07,0,0,0,34.91,40Z" fill="#69d6f4"/>
          </g>
          <g id="Group_1204870" data-name="Group 1204870">
            <path id="Path_1245188" data-name="Path 1245188" d="M29.525,38.617c-.395.932-1.93,4.606-3.4,8.851h-.011A19.755,19.755,0,0,0,9.871,66.9H1.1a28.513,28.513,0,0,1,28.2-28.516Z" fill="#69d6f4"/>
          </g>
          <g id="Group_1204871" data-name="Group 1204871">
            <path id="Path_1245189" data-name="Path 1245189" d="M29.525,38.617l.329.329c.537,1.294,1.919,4.672,3.246,8.522,1.579,4.53,3.093,9.7,3.093,12.854a6.581,6.581,0,1,1-13.161,0c0-3.159,1.514-8.335,3.093-12.854C27.595,43.224,29.13,39.55,29.525,38.617Z" fill="#ccd1d9"/>
          </g>
          <g id="Group_1204872" data-name="Group 1204872">
            <circle id="Ellipse_13048" data-name="Ellipse 13048" cx="2.194" cy="2.194" r="2.194" transform="translate(27.419 58.129)" fill="#ff826e"/>
          </g>
          <g id="Group_1204873" data-name="Group 1204873">
            <path id="Path_1245190" data-name="Path 1245190" d="M5.484,18.645H19.742v6.581H5.484Z" fill="#ff826e"/>
          </g>
          <g id="Group_1204874" data-name="Group 1204874">
            <path id="Path_1245191" data-name="Path 1245191" d="M1.1,5.484H34.823l.088.581A19.07,19.07,0,0,0,33.145,7.25L31.006,5.966l-3.1,3.1,1.283,2.139A19.07,19.07,0,0,0,28,12.975l-2.457-.362-.68,1.645H1.1Z" fill="#b4dd7f"/>
          </g>
          <g id="Group_1204875" data-name="Group 1204875">
            <path id="Path_1245192" data-name="Path 1245192" d="M29.854,38.946l-.329-.329-.23-.23L27.9,36.994l1.283-2.139A19.07,19.07,0,0,1,28,33.09l-2.457.362L23.866,29.4l2-1.481a19.124,19.124,0,0,1-.417-2.095l-2.413-.6V20.839l2.413-.6a19.124,19.124,0,0,1,.417-2.095l-2-1.481,1-2.4.68-1.645L28,12.975a19.069,19.069,0,0,1,1.185-1.766L27.9,9.07l3.1-3.1L33.145,7.25A19.07,19.07,0,0,1,34.91,6.065l-.088-.581-.274-1.875L38.6,1.93l1.481,2a19.124,19.124,0,0,1,2.095-.417l.6-2.413h4.387l.6,2.413a19.124,19.124,0,0,1,2.095.417l1.481-2,4.047,1.678-.362,2.457A19.07,19.07,0,0,1,56.791,7.25L58.93,5.966l3.1,3.1L60.75,11.209a19.07,19.07,0,0,1,1.185,1.766l2.457-.362L66.07,16.66l-2,1.481a19.124,19.124,0,0,1,.417,2.095l2.413.6v4.387l-2.413.6a19.124,19.124,0,0,1-.417,2.095l2,1.481-1.678,4.047-2.457-.362a19.07,19.07,0,0,1-1.185,1.766l1.283,2.139-3.1,3.1-.8-.483-1.338-.8A19.069,19.069,0,0,1,55.025,40l.362,2.457L51.34,44.134l-1.481-2a19.124,19.124,0,0,1-2.095.417l-.494,1.963-.11.45H42.774l-.6-2.413a19.124,19.124,0,0,1-2.095-.417l-1.481,2-4.047-1.678L34.91,40a19.069,19.069,0,0,1-1.766-1.185L31.006,40.1Z" fill="#fcd770"/>
          </g>
          <g id="Group_1204876" data-name="Group 1204876">
            <path id="Path_1245193" data-name="Path 1245193" d="M29.613,23.032A15.355,15.355,0,1,1,44.968,38.387,15.358,15.358,0,0,1,29.613,23.032Z" fill="#ffeaa7"/>
          </g>
        </g>
        <g id="Group_1204878" data-name="Group 1204878">
          <path id="Path_1245194" data-name="Path 1245194" d="M44.968,17.548h-3.29V28.516h2.194V24.129h1.1a3.29,3.29,0,0,0,0-6.581Zm0,4.387h-1.1V19.742h1.1a1.1,1.1,0,1,1,0,2.194Z"/>
          <path id="Path_1245195" data-name="Path 1245195" d="M37.29,18.645A3.286,3.286,0,0,1,35.1,21.734V17.548H32.9V28.516H35.1V24.331a3.286,3.286,0,0,1,2.194,3.089v1.1h2.194v-1.1a5.464,5.464,0,0,0-2.228-4.387,5.464,5.464,0,0,0,2.228-4.387v-1.1H37.29Z"/>
          <path id="Path_1245196" data-name="Path 1245196" d="M50.452,19.742h2.194v6.581H50.452v2.194h6.581V26.323H54.839V19.742h2.194V17.548H50.452Z"/>
          <path id="Path_1245197" data-name="Path 1245197" d="M44.968,6.581A16.452,16.452,0,1,0,61.419,23.032,16.47,16.47,0,0,0,44.968,6.581Zm0,30.71A14.258,14.258,0,1,1,59.226,23.032,14.275,14.275,0,0,1,44.968,37.29Z"/>
          <path id="Path_1245198" data-name="Path 1245198" d="M68,26.081v-6.1l-2.543-.636c-.045-.251-.094-.5-.148-.751l2.106-1.56L65.08,11.4l-2.592.387c-.137-.214-.28-.427-.426-.636L63.411,8.9,59.1,4.588,56.85,5.937q-.314-.219-.636-.427L56.6,2.92,50.964.585,49.4,2.69c-.249-.054-.5-.1-.75-.149L48.018,0h-6.1l-.636,2.542c-.251.045-.5.1-.75.149L38.972.586,33.335,2.921l.219,1.466H0V68H59.226V41.348l4.184-4.186-1.348-2.247c.146-.209.288-.422.426-.636l2.592.385,2.334-5.635-2.106-1.56q.081-.373.148-.751ZM28.846,6.581,26.525,8.9l1.348,2.247c-.146.209-.288.422-.426.636L24.856,11.4l-.73,1.763H2.194V6.581ZM2.194,15.355H23.218l-.7,1.681,2.106,1.56q-.081.373-.148.751l-2.543.636v6.1l2.543.636c.045.251.094.5.148.751l-2.106,1.56,2.334,5.635,2.592-.385c.137.214.28.427.426.636l-1.348,2.247.271.271A29.754,29.754,0,0,0,2.194,55.77ZM37.545,44.888l-.983,2.373a20.987,20.987,0,0,0-2.618-.726c-.752-2.131-1.5-4.092-2.123-5.649l1.266-.759q.314.219.636.427l-.386,2.591Zm9.874,1.177q.4.342.785.7l-4.654,4.655a20.694,20.694,0,0,0-4.956-3.329l1.951-4.711c.245.053.49.1.737.146l.635,2.542Zm1.837,13.89,6.095-2.525A27.4,27.4,0,0,1,57,65.806H50.4A20.844,20.844,0,0,0,49.256,59.954Zm-.832-2.03A20.794,20.794,0,0,0,45.1,52.969l4.659-4.66A27.231,27.231,0,0,1,54.51,55.4ZM29.613,65.806a5.49,5.49,0,0,1-5.484-5.484c0-4.751,3.677-14.531,5.484-19.049,1.8,4.5,5.484,14.293,5.484,19.049A5.49,5.49,0,0,1,29.613,65.806ZM3.894,57.437,9.97,59.954a20.844,20.844,0,0,0-1.147,5.852h-6.6a27.122,27.122,0,0,1,1.673-8.369Zm6.909.487L4.741,55.413a27.639,27.639,0,0,1,4.752-7.079l4.633,4.633A20.822,20.822,0,0,0,10.8,57.924Zm4.874-6.508-4.634-4.635a27.6,27.6,0,0,1,7.082-4.749l2.508,6.054a20.709,20.709,0,0,0-4.956,3.33Zm6.988-4.155-2.518-6.078a27.132,27.132,0,0,1,7.8-1.647c-.659,1.613-1.665,4.157-2.667,7a21.059,21.059,0,0,0-2.616.726ZM11.016,65.806A18.6,18.6,0,0,1,24.442,48.992c-1.352,4.121-2.506,8.468-2.506,11.331a7.648,7.648,0,0,0,2.315,5.484ZM37.29,60.323c0-2.861-1.151-7.2-2.509-11.331A18.6,18.6,0,0,1,48.21,65.806H34.975A7.648,7.648,0,0,0,37.29,60.323ZM48.506,44.113l.148-.591c.251-.045.5-.1.75-.149l1.56,2.106L56.6,43.144l-.386-2.591c.214-.138.427-.281.636-.427l.183.11V55.689a29.54,29.54,0,0,0-8.527-11.575Zm15-19.168-.1.73a18.565,18.565,0,0,1-.39,1.973l-.183.713,1.9,1.409-1.023,2.471-2.341-.348-.376.633a18.5,18.5,0,0,1-1.12,1.671l-.443.59,1.22,2.032-1.891,1.892-2.033-1.22-.59.443a18.747,18.747,0,0,1-1.671,1.121l-.633.376.348,2.339L51.706,42.8,50.3,40.9l-.714.182a18.648,18.648,0,0,1-1.972.39l-.732.1-.575,2.3H43.631l-.575-2.3-.732-.1a18.6,18.6,0,0,1-1.972-.39l-.714-.182-1.409,1.9-2.471-1.024.348-2.339-.633-.376A18.825,18.825,0,0,1,33.8,37.935l-.59-.443-2.033,1.22L29.287,36.82l1.22-2.032-.443-.59a18.425,18.425,0,0,1-1.12-1.671l-.376-.633-2.341.348L25.2,29.77l1.9-1.409-.183-.713a18.511,18.511,0,0,1-.39-1.973l-.1-.73-2.3-.574V21.694l2.3-.575.1-.73a18.565,18.565,0,0,1,.39-1.973l.183-.713-1.9-1.409,1.023-2.471,2.341.348.376-.633a18.5,18.5,0,0,1,1.12-1.671l.443-.59-1.22-2.032,1.891-1.892,2.033,1.22.59-.443a18.747,18.747,0,0,1,1.671-1.121l.633-.376-.348-2.339,2.471-1.024,1.409,1.9.714-.182a18.649,18.649,0,0,1,1.972-.39l.732-.1.575-2.3H46.3l.575,2.3.732.1a18.594,18.594,0,0,1,1.972.39l.714.182,1.409-1.9,2.471,1.024L53.83,6.631l.633.376a18.825,18.825,0,0,1,1.671,1.121l.59.443,2.033-1.22,1.891,1.892-1.22,2.032.443.59a18.425,18.425,0,0,1,1.12,1.671l.376.633,2.341-.348,1.023,2.471L62.83,17.7l.183.713a18.51,18.51,0,0,1,.39,1.973l.1.73,2.3.575v2.675Z"/>
          <path id="Path_1245199" data-name="Path 1245199" d="M29.613,57.032a3.29,3.29,0,1,0,3.29,3.29A3.294,3.294,0,0,0,29.613,57.032Zm0,4.387a1.1,1.1,0,1,1,1.1-1.1A1.1,1.1,0,0,1,29.613,61.419Z"/>
          <path id="Path_1245200" data-name="Path 1245200" d="M4.387,8.774H6.581v2.194H4.387Z"/>
          <path id="Path_1245201" data-name="Path 1245201" d="M8.774,8.774h2.194v2.194H8.774Z"/>
          <path id="Path_1245202" data-name="Path 1245202" d="M13.161,8.774h2.194v2.194H13.161Z"/>
          <path id="Path_1245203" data-name="Path 1245203" d="M19.742,24.129H6.581V19.742H19.742V17.548H4.387v8.774H19.742Z"/>
          <path id="Path_1245204" data-name="Path 1245204" d="M4.387,28.516H6.581V30.71H4.387Z"/>
          <path id="Path_1245205" data-name="Path 1245205" d="M8.774,28.516H19.742V30.71H8.774Z"/>
          <path id="Path_1245206" data-name="Path 1245206" d="M4.387,32.9H6.581V35.1H4.387Z"/>
          <path id="Path_1245207" data-name="Path 1245207" d="M8.774,32.9H19.742V35.1H8.774Z"/>
          <path id="Path_1245208" data-name="Path 1245208" d="M4.387,37.29H6.581v2.194H4.387Z"/>
          <path id="Path_1245209" data-name="Path 1245209" d="M8.774,37.29h6.581v2.194H8.774Z"/>
        </g>
      </g>
    </g>
  </g>
</svg>
