<svg xmlns="http://www.w3.org/2000/svg" xmlns:xlink="http://www.w3.org/1999/xlink" width="110" height="110" viewBox="0 0 110 110">
  <defs>
    <clipPath id="clip-path">
      <rect id="Rectangle_411096" data-name="Rectangle 411096" width="71" height="68" transform="translate(764.051 1744.068)" fill="#fff" stroke="#707070" stroke-width="1"/>
    </clipPath>
  </defs>
  <g id="Group_1204887" data-name="Group 1204887" transform="translate(-745 -1723.068)">
    <g id="Group_1204886" data-name="Group 1204886">
      <circle id="Ellipse_12740" data-name="Ellipse 12740" cx="55" cy="55" r="55" transform="translate(745 1723.068)" fill="#f5ae5c"/>
      <g id="Mask_Group_1099362" data-name="Mask Group 1099362" clip-path="url(#clip-path)">
        <g id="checklist_9759933" transform="translate(764.454 1742.972)">
          <g id="Group_1204864" data-name="Group 1204864">
            <g id="Group_1204861" data-name="Group 1204861">
              <path id="Path_1245160" data-name="Path 1245160" d="M57.232,7.447a2.764,2.764,0,0,1,2.759,2.759V60.963a2.764,2.764,0,0,1-2.759,2.759H14.75a2.764,2.764,0,0,1-2.759-2.759V10.205A2.764,2.764,0,0,1,14.75,7.447Z" fill="#837683" fill-rule="evenodd"/>
              <path id="Path_1245161" data-name="Path 1245161" d="M53.671,63.722h3.56a2.764,2.764,0,0,0,2.759-2.759V10.205a2.764,2.764,0,0,0-2.759-2.759h-3.56Z" fill="#685e68" fill-rule="evenodd"/>
              <path id="Path_1245162" data-name="Path 1245162" d="M54.912,11.284H17.069a1.243,1.243,0,0,0-1.24,1.24V58.644a1.243,1.243,0,0,0,1.24,1.24H54.912a1.243,1.243,0,0,0,1.24-1.24V12.525a1.243,1.243,0,0,0-1.24-1.24Z" fill="#eceff1" fill-rule="evenodd"/>
              <path id="Path_1245163" data-name="Path 1245163" d="M53.671,59.884h1.241q.059,0,.116-.005a1.243,1.243,0,0,0,1.125-1.235V12.525a1.243,1.243,0,0,0-1.125-1.235q-.057-.005-.116-.005H53.671Z" fill="#d1d1d6" fill-rule="evenodd"/>
              <path id="Path_1245164" data-name="Path 1245164" d="M26.611,5.779h3.932a1.218,1.218,0,0,0,1.139-.75,4.691,4.691,0,0,1,8.618,0,1.218,1.218,0,0,0,1.139.75H45.37a1.243,1.243,0,0,1,1.24,1.24v4.691a1.243,1.243,0,0,1-1.24,1.24H26.611a1.243,1.243,0,0,1-1.24-1.24V7.02a1.243,1.243,0,0,1,1.24-1.24Z" fill="#e3a76f" fill-rule="evenodd"/>
              <path id="Path_1245165" data-name="Path 1245165" d="M44.13,11.711H25.37a1.243,1.243,0,0,0,1.24,1.24H45.37a1.243,1.243,0,0,0,1.24-1.24V7.02a1.243,1.243,0,0,0-1.241-1.24v4.691a1.243,1.243,0,0,1-1.24,1.24Z" fill="#c48958" fill-rule="evenodd"/>
              <circle id="Ellipse_13047" data-name="Ellipse 13047" cx="1.426" cy="1.426" r="1.426" transform="translate(34.35 4.864) rotate(-9.208)" fill="#eceff1"/>
              <path id="Path_1245166" data-name="Path 1245166" d="M22.041,44.994h6.946a.909.909,0,0,1,.907.907v6.946a.909.909,0,0,1-.907.907H22.041a.909.909,0,0,1-.907-.907V45.9A.909.909,0,0,1,22.041,44.994Z" fill="#8ac9fe" fill-rule="evenodd"/>
              <path id="Path_1245167" data-name="Path 1245167" d="M28.522,44.994h.464a.909.909,0,0,1,.907.907v6.946a.909.909,0,0,1-.907.907H22.041a.909.909,0,0,1-.907-.907v-.464h6.482a.909.909,0,0,0,.907-.907V44.994Z" fill="#41a8fc" fill-rule="evenodd"/>
              <path id="Path_1245168" data-name="Path 1245168" d="M22.041,31.2h6.946a.909.909,0,0,1,.907.907v6.946a.909.909,0,0,1-.907.907H22.041a.909.909,0,0,1-.907-.907V32.112a.909.909,0,0,1,.907-.907Z" fill="#fe646f" fill-rule="evenodd"/>
              <path id="Path_1245169" data-name="Path 1245169" d="M28.522,31.2h.464a.909.909,0,0,1,.907.907v6.946a.909.909,0,0,1-.907.907H22.041a.909.909,0,0,1-.907-.907v-.464h6.482a.909.909,0,0,0,.907-.907V31.2Z" fill="#fd4755" fill-rule="evenodd"/>
              <path id="Path_1245170" data-name="Path 1245170" d="M22.041,17.416h6.946a.909.909,0,0,1,.907.907v6.946a.909.909,0,0,1-.907.907H22.041a.909.909,0,0,1-.907-.907V18.322a.909.909,0,0,1,.907-.907Z" fill="#8ac9fe" fill-rule="evenodd"/>
              <path id="Path_1245171" data-name="Path 1245171" d="M28.522,17.416h.464a.909.909,0,0,1,.907.907v6.946a.909.909,0,0,1-.907.907H22.041a.909.909,0,0,1-.907-.907V24.8h6.482a.909.909,0,0,0,.907-.907V17.416Z" fill="#60b7ff" fill-rule="evenodd"/>
            </g>
            <g id="Group_1204862" data-name="Group 1204862">
              <path id="Path_1245172" data-name="Path 1245172" d="M54.2,39.95a13.053,13.053,0,0,1,3.822,1.584l2.483-1.1,2.927,2.927-1.1,2.483-7.341-1.555-1.223,1.691-2.9,3.616.674,3.048L48.76,56.5l6.585-2.609L54.7,50.311l1.658-2.148,7.557,1.5,2.534.975v4.139l-2.534.975a13.052,13.052,0,0,1-1.584,3.822l1.1,2.483L60.5,64.985l-2.483-1.1A13.056,13.056,0,0,1,54.2,65.467L53.224,68H49.085l-.975-2.534a13.053,13.053,0,0,1-3.822-1.584l-2.483,1.1-2.927-2.927,1.1-2.483A13.056,13.056,0,0,1,38.4,55.753l-2.534-.975V50.638l2.534-.975a13.048,13.048,0,0,1,1.584-3.822l-1.1-2.483L41.8,40.431l2.483,1.1a13.053,13.053,0,0,1,3.822-1.584l.976-2.534h4.139Z" fill="#ffe177" fill-rule="evenodd"/>
              <path id="Path_1245173" data-name="Path 1245173" d="M59.644,40.814l.861-.382,2.927,2.927-1.1,2.483L61.192,45.6l1-2.242Zm-3.453,7.564.165-.214,7.557,1.5,2.534.975v4.139l-2.534.975a13.052,13.052,0,0,1-1.584,3.822l1.1,2.483L60.5,64.985l-.861-.382,2.545-2.545-1.1-2.483a13.052,13.052,0,0,0,1.584-3.822l2.534-.975V50.638l-2.534-.975Zm-1.2-4.092-1.223,1.691-2.9,3.616.674,3.048-2.182,3.134-1.836.727L50.7,52.6l-.789-3.009,4-5.535Zm3.034,19.6-.706-.314a17.211,17.211,0,0,1-4.36,1.9L51.981,68h1.243l.975-2.534a13.05,13.05,0,0,0,3.823-1.585Zm-13.734,0-2.483,1.1-.382-.382,2.328-1.034Q44.016,63.732,44.288,63.882ZM41.422,40.814l.382-.382,2.483,1.1q-.272.15-.537.314ZM54.2,39.95a13.053,13.053,0,0,1,3.822,1.584l-.706.314a17.219,17.219,0,0,0-4.359-1.9l-.975-2.534h1.243Z" fill="#ffd064" fill-rule="evenodd"/>
              <path id="Path_1245174" data-name="Path 1245174" d="M51.154,45.489a7.218,7.218,0,1,0,5.685,2.77l-.483-.1L54.7,50.311l.648,3.582L48.761,56.5l3.178-3.9-.789-3.009,2.616-3.616a7.2,7.2,0,0,0-2.611-.487Z" fill="#837683" fill-rule="evenodd"/>
              <path id="Path_1245175" data-name="Path 1245175" d="M51.154,45.489a7.219,7.219,0,1,0,0,14.437c.231,0,.46-.011.685-.033a7.219,7.219,0,0,1,0-14.372q-.34-.032-.688-.032Zm6.075,3.318-1.161,1.5.647,3.582L50.131,56.5l.654-.8,4.56-1.807L54.7,50.311l1.658-2.148.483.1q.208.265.39.549Z" fill="#685e68" fill-rule="evenodd"/>
            </g>
            <g id="Group_1204863" data-name="Group 1204863">
              <path id="Path_1245176" data-name="Path 1245176" d="M2.192,50.016V21.955a2.767,2.767,0,0,1,2.762-2.762h1.1a2.767,2.767,0,0,1,2.762,2.762V50.016L5.507,55.756Z" fill="#e3a76f" fill-rule="evenodd"/>
              <path id="Path_1245177" data-name="Path 1245177" d="M4.562,19.221a2.758,2.758,0,0,1,.392-.028h1.1a2.767,2.767,0,0,1,2.762,2.762V50.016L5.506,55.757l-.944-1.635,2.37-4.105V21.955a2.769,2.769,0,0,0-2.37-2.734Z" fill="#c48958" fill-rule="evenodd"/>
              <path id="Path_1245178" data-name="Path 1245178" d="M5.506,55.756,2.192,50.016H8.821Z" fill="#837683" fill-rule="evenodd"/>
              <path id="Path_1245179" data-name="Path 1245179" d="M5.506,55.756l-.944-1.635,2.37-4.105H8.821Z" fill="#685e68" fill-rule="evenodd"/>
              <path id="Path_1245180" data-name="Path 1245180" d="M2.192,24.274V21.955a2.767,2.767,0,0,1,2.762-2.762h1.1a2.767,2.767,0,0,1,2.762,2.762v2.319H2.192Z" fill="#837683" fill-rule="evenodd"/>
              <path id="Path_1245181" data-name="Path 1245181" d="M4.562,19.221a2.758,2.758,0,0,1,.392-.028h1.1a2.767,2.767,0,0,1,2.762,2.762v2.319H6.932V21.955a2.769,2.769,0,0,0-2.37-2.734Z" fill="#685e68" fill-rule="evenodd"/>
            </g>
          </g>
          <path id="Path_1245182" data-name="Path 1245182" d="M63.328,40.107a1.085,1.085,0,0,0,.774-.321l1.581-1.575a1.1,1.1,0,1,0-1.555-1.551l-1.574,1.575a1.1,1.1,0,0,0,.774,1.872Zm2.323,2.766a1.09,1.09,0,0,1,0-1.552l1.575-1.575A1.1,1.1,0,0,1,68.774,41.3L67.2,42.873a1.1,1.1,0,0,1-1.549,0Zm1.575,2.17-1.575,1.575A1.1,1.1,0,1,0,67.2,48.169l1.575-1.575a1.1,1.1,0,1,0-1.549-1.551Zm-1.871,6.348v2.633l-1.833.7a1.094,1.094,0,0,0-.678.77A11.913,11.913,0,0,1,61.4,59a1.081,1.081,0,0,0-.071,1.02l.794,1.795-1.858,1.862-1.794-.8a1.1,1.1,0,0,0-1.02.068,11.987,11.987,0,0,1-3.5,1.452,1.1,1.1,0,0,0-.768.673l-.7,1.83H49.841l-.71-1.831a1.089,1.089,0,0,0-.768-.673,11.841,11.841,0,0,1-3.5-1.451,1.1,1.1,0,0,0-1.02-.068l-1.8.8-1.858-1.862.794-1.793A1.1,1.1,0,0,0,40.916,59a11.741,11.741,0,0,1-1.452-3.5,1.1,1.1,0,0,0-.678-.769l-1.826-.7V51.391l1.833-.7a1.1,1.1,0,0,0,.671-.769,11.792,11.792,0,0,1,1.452-3.5,1.1,1.1,0,0,0,.065-1.02l-.794-1.8,1.858-1.862,1.8.8a1.094,1.094,0,0,0,1.02-.069,11.907,11.907,0,0,1,3.5-1.45,1.088,1.088,0,0,0,.768-.673l.71-1.832h2.633l.7,1.832a1.1,1.1,0,0,0,.768.673,12.019,12.019,0,0,1,3.5,1.45,1.092,1.092,0,0,0,1.02.069l1.794-.8L62.121,43.6l-.432.981-6.472-1.371a1.1,1.1,0,0,0-1.116.43l-.755,1.043a8.316,8.316,0,1,0,6.124,8.023,8.2,8.2,0,0,0-.523-2.914l4.666.925ZM14.75,62.625H37.942a1.1,1.1,0,0,1-.065-1.012l.277-.632H15.834a1.1,1.1,0,0,1-1.1-1.1v-48.6a1.1,1.1,0,0,1,1.1-1.1h8.441V8.544H14.75a1.661,1.661,0,0,0-1.658,1.662V60.963a1.661,1.661,0,0,0,1.658,1.662ZM25.371,14.049a1.1,1.1,0,0,1-1.1-1.1v-.57h-7.35V58.787H38.31a13.566,13.566,0,0,1-.832-2.213L35.47,55.8a1.1,1.1,0,0,1-.7-1.024V50.639a1.091,1.091,0,0,1,.7-1.023l2.007-.773c.084-.294.174-.584.277-.871H35.432a1.1,1.1,0,1,1,0-2.193h3.317v-.006L37.877,43.8a1.088,1.088,0,0,1,.226-1.22l2.93-2.927a1.094,1.094,0,0,1,1.22-.226l1.968.874A14.076,14.076,0,0,1,46.8,39.181H35.431a1.1,1.1,0,1,1,0-2.194H48.079a1.1,1.1,0,0,1,1.007-.668h4.136a1.094,1.094,0,0,1,1.026.7l.774,2.009a.2.2,0,0,1,.032.01V12.382H47.712v.57a1.1,1.1,0,0,1-1.1,1.1Zm1.1-2.194V6.877h4.962a1.1,1.1,0,0,0,1.071-.84,3.592,3.592,0,0,1,6.982,0,1.1,1.1,0,0,0,1.065.84h4.969v4.979ZM47.712,8.544v1.644h8.441a1.1,1.1,0,0,1,1.1,1.1V39.869c.284.135.568.279.845.434l.8-.357V10.206A1.666,1.666,0,0,0,57.23,8.544Zm1.452,48.978a1.1,1.1,0,0,1-1.252-1.713l2.826-3.468-.645-2.47a1.088,1.088,0,0,1,.168-.921l1.671-2.313a6.044,6.044,0,0,0-.774-.05A6.1,6.1,0,1,0,56.52,49.75l-.658.846.561,3.1a1.093,1.093,0,0,1-.671,1.214Zm18.378-6.883v4.139a1.1,1.1,0,0,1-.7,1.024l-2.013.773a14.01,14.01,0,0,1-1.271,3.07l.878,1.969a1.1,1.1,0,0,1-.232,1.22L61.282,65.76a1.1,1.1,0,0,1-1.22.228l-1.968-.874a14.093,14.093,0,0,1-3.072,1.273L54.248,68.4a1.1,1.1,0,0,1-1.026.7H49.086a1.108,1.108,0,0,1-1.026-.7l-.774-2.01a14.1,14.1,0,0,1-3.065-1.272l-1.968.874a1.094,1.094,0,0,1-1.22-.228l-.942-.941H14.75A3.858,3.858,0,0,1,10.9,60.963V10.206A3.859,3.859,0,0,1,14.75,6.351h9.525V5.78a1.1,1.1,0,0,1,1.1-1.1h5.266a5.788,5.788,0,0,1,10.705,0h5.272a1.1,1.1,0,0,1,1.1,1.1v.571H57.23a3.86,3.86,0,0,1,3.859,3.855v29.3a1.232,1.232,0,0,1,.194.15l2.923,2.927a1.1,1.1,0,0,1,.232,1.22l-1.1,2.482a1.1,1.1,0,0,1-1.233.628l-6.64-1.408-3.117,4.311L53,52.324a1.118,1.118,0,0,1-.213.971l-.516.638,1.833-.728-.484-2.7a1.093,1.093,0,0,1,.206-.865l1.658-2.147a1.1,1.1,0,0,1,1.084-.406l7.556,1.5a1.06,1.06,0,0,1,.181.052l2.536.976a1.094,1.094,0,0,1,.7,1.023Zm-60.619.473H4.1l1.413,2.45Zm.8-2.194V24.734H3.289V48.917ZM3.289,21.956v.585H7.723v-.585a1.664,1.664,0,0,0-1.665-1.665h-1.1A1.668,1.668,0,0,0,3.289,21.956Zm6.627,0V50.015a1.026,1.026,0,0,1-.148.549L6.458,56.3a1.094,1.094,0,0,1-1.9,0l-3.317-5.74a1.088,1.088,0,0,1-.148-.549V21.956A3.866,3.866,0,0,1,4.954,18.1h1.1a3.862,3.862,0,0,1,3.859,3.858ZM23.332,37.764a1.1,1.1,0,0,1,0-1.551l.632-.628-.632-.628a1.1,1.1,0,0,1,1.555-1.551l.626.628.632-.628a1.1,1.1,0,0,1,1.549,1.551l-.626.628.626.628a1.1,1.1,0,0,1-.774,1.872,1.083,1.083,0,0,1-.774-.321l-.632-.628-.626.628A1.1,1.1,0,0,1,23.332,37.764Zm1.084,13.729-1.523-1.523a1.1,1.1,0,0,1,1.549-1.551l.665.661,1.407-1.738a1.1,1.1,0,1,1,1.7,1.38l-2.175,2.686a1.093,1.093,0,0,1-.794.406h-.058a1.1,1.1,0,0,1-.774-.321Zm11.015-26.1a1.1,1.1,0,1,1,0-2.193H50.848a1.1,1.1,0,1,1,0,2.193Zm0-5a1.1,1.1,0,1,1,0-2.193H50.848a1.1,1.1,0,1,1,0,2.193ZM28.056,19.6a1.1,1.1,0,0,1,.161,1.542l-2.175,2.686a1.093,1.093,0,0,1-.794.405h-.058a1.1,1.1,0,0,1-.774-.321l-1.523-1.523a1.1,1.1,0,0,1,1.549-1.551l.665.661,1.407-1.738a1.1,1.1,0,0,1,1.542-.164Zm-5.827,5.479V18.512H28.8v6.566Zm-.187-8.759h6.943a2.005,2.005,0,0,1,2.007,2v6.946a2,2,0,0,1-2.007,2H22.042a2.009,2.009,0,0,1-2.007-2V18.323a2.01,2.01,0,0,1,2.007-2Zm13.39,17.864a1.1,1.1,0,1,1,0-2.193H50.848a1.1,1.1,0,1,1,0,2.193ZM28.8,32.3v6.566H22.229V32.3Zm2.194-.19v6.945a2.006,2.006,0,0,1-2.007,2H22.042a2.009,2.009,0,0,1-2.007-2V32.112a2.01,2.01,0,0,1,2.007-2h6.943a2.006,2.006,0,0,1,2.007,2ZM28.8,46.091v6.565H22.229V46.091Zm2.194-.191v6.947a2,2,0,0,1-2.007,2H22.042a2.009,2.009,0,0,1-2.007-2V45.9a2.01,2.01,0,0,1,2.007-2h6.943A2.006,2.006,0,0,1,30.992,45.9Zm6.24-39.861a1.239,1.239,0,1,0-1.239,1.24A1.241,1.241,0,0,0,37.232,6.039Z" fill-rule="evenodd"/>
        </g>
      </g>
    </g>
  </g>
</svg>
