<svg xmlns="http://www.w3.org/2000/svg" xmlns:xlink="http://www.w3.org/1999/xlink" width="110" height="110" viewBox="0 0 110 110">
  <defs>
    <clipPath id="clip-path">
      <rect id="Rectangle_411095" data-name="Rectangle 411095" width="71" height="68" transform="translate(332.6 1743.594)" fill="#fff" stroke="#707070" stroke-width="1"/>
    </clipPath>
  </defs>
  <g id="Group_1204903" data-name="Group 1204903" transform="translate(-313.549 -1722.594)">
    <circle id="Ellipse_12740" data-name="Ellipse 12740" cx="55" cy="55" r="55" transform="translate(313.549 1722.594)" fill="#f5ae5c"/>
    <g id="Mask_Group_1099368" data-name="Mask Group 1099368" clip-path="url(#clip-path)">
      <g id="customer-service_18207592" transform="translate(334.033 1743.527)">
        <g id="Group_1204902" data-name="Group 1204902">
          <g id="Group_1204894" data-name="Group 1204894">
            <path id="Path_1245293" data-name="Path 1245293" d="M26.03.9V3.36a12.578,12.578,0,0,1,4.261,1.767L32.028,3.39a15.2,15.2,0,0,1,3.691,3.691L33.982,8.818a12.455,12.455,0,0,1,1.767,4.261h2.455a15.062,15.062,0,0,1,0,5.223H35.75a12.424,12.424,0,0,1-1.767,4.261L35.719,24.3a15.2,15.2,0,0,1-3.691,3.691l-1.737-1.737a12.571,12.571,0,0,1-4.261,1.767v2.455a15.04,15.04,0,0,1-5.219,0V28.021a12.516,12.516,0,0,1-4.265-1.767L14.81,27.991A15.2,15.2,0,0,1,11.119,24.3l1.737-1.737A12.606,12.606,0,0,1,11.089,18.3H8.633a15.308,15.308,0,0,1,0-5.223h2.455a12.608,12.608,0,0,1,1.767-4.261L11.119,7.081A15.2,15.2,0,0,1,14.81,3.391l1.737,1.737A12.6,12.6,0,0,1,20.812,3.36V.9A15.04,15.04,0,0,1,26.03.9Z" fill="#fd4755" fill-rule="evenodd"/>
          </g>
          <g id="Group_1204895" data-name="Group 1204895">
            <path id="Path_1245294" data-name="Path 1245294" d="M23.419,8.187a7.5,7.5,0,1,1-7.5,7.5,7.5,7.5,0,0,1,7.5-7.5Z" fill="#f2fbff" fill-rule="evenodd"/>
          </g>
          <g id="Group_1204896" data-name="Group 1204896">
            <path id="Path_1245295" data-name="Path 1245295" d="M16.079,48.623h7.852v18.8H16.079Z" transform="translate(-35.174 31.145) rotate(-45)" fill="#407093" fill-rule="evenodd"/>
          </g>
          <g id="Group_1204897" data-name="Group 1204897">
            <path id="Path_1245296" data-name="Path 1245296" d="M18.1,50.572,22.784,46.3c3.109-2.467,6.116-2.509,9.027-.243h6.834a2.915,2.915,0,0,1,2.908,2.908,2.877,2.877,0,0,1-.38,1.433l6.583-6.443a3.263,3.263,0,0,1,4.565,4.664l-4.687,4.584-3.288,3.216a4.3,4.3,0,0,1-3.1,1.266l-12.159,0-1.935,1.935Z" fill="#ffcebf" fill-rule="evenodd"/>
          </g>
          <g id="Group_1204898" data-name="Group 1204898">
            <path id="Path_1245297" data-name="Path 1245297" d="M26.639,41.393l8.461-1.25a17.813,17.813,0,1,0-7.841-6.317Z" fill="#64b9fc" fill-rule="evenodd"/>
          </g>
          <g id="Group_1204899" data-name="Group 1204899">
            <path id="Path_1245298" data-name="Path 1245298" d="M38.076,11.988H44.56L43.4,26.877H39.243Z" fill="#ffd54f" fill-rule="evenodd"/>
          </g>
          <g id="Group_1204900" data-name="Group 1204900">
            <path id="Path_1245299" data-name="Path 1245299" d="M41.318,35a2.258,2.258,0,1,0-2.258-2.258A2.263,2.263,0,0,0,41.318,35Z" fill="#ffd54f" fill-rule="evenodd"/>
          </g>
          <g id="Group_1204901" data-name="Group 1204901">
            <path id="Path_1245300" data-name="Path 1245300" d="M41.227,41.48A17.817,17.817,0,1,0,39.551,6.017,17.81,17.81,0,0,1,41.227,41.48Z" fill="#31a7fb" fill-rule="evenodd"/>
          </g>
        </g>
        <path id="Path_1245301" data-name="Path 1245301" d="M53.495,9.31A18.583,18.583,0,0,0,35.986,6.15a15.887,15.887,0,0,0-3.4-3.228.93.93,0,0,0-1.192.1l-1.2,1.2a13.36,13.36,0,0,0-3.15-1.307v-1.7a.93.93,0,0,0-.77-.916,15.918,15.918,0,0,0-5.493,0,.93.93,0,0,0-.77.916v1.7a13.305,13.305,0,0,0-3.151,1.307l-1.2-1.2a.93.93,0,0,0-1.192-.1A15.929,15.929,0,0,0,10.585,6.8.93.93,0,0,0,10.688,8l1.2,1.2a13.272,13.272,0,0,0-1.307,3.151h-1.7a.93.93,0,0,0-.916.77,15.841,15.841,0,0,0,0,5.493.93.93,0,0,0,.916.77h1.7a13.305,13.305,0,0,0,1.307,3.151l-1.2,1.2a.93.93,0,0,0-.1,1.192,15.93,15.93,0,0,0,3.881,3.882.93.93,0,0,0,1.192-.1l1.2-1.2a13.23,13.23,0,0,0,3.152,1.306v1.7a.93.93,0,0,0,.77.916,15.987,15.987,0,0,0,2.747.24c.481,0,.97-.025,1.462-.07a18.351,18.351,0,0,0,1.387,2.482l-.591,7.168a.93.93,0,0,0,1.062,1l8.134-1.2a18.734,18.734,0,0,0,11.335.759A18.407,18.407,0,0,0,56.3,35.431,18.6,18.6,0,0,0,53.495,9.31Zm-29.966,20.5a14.037,14.037,0,0,1-1.656-.1V28.078a.93.93,0,0,0-.737-.91,11.409,11.409,0,0,1-3.9-1.619.93.93,0,0,0-1.167.12l-1.152,1.153a14.045,14.045,0,0,1-2.34-2.34l1.153-1.153a.93.93,0,0,0,.121-1.165,11.481,11.481,0,0,1-1.62-3.905.93.93,0,0,0-.91-.737H9.687a13.923,13.923,0,0,1,0-3.313h1.629a.93.93,0,0,0,.91-.737,11.456,11.456,0,0,1,1.619-3.9A.93.93,0,0,0,13.724,8.4L12.571,7.249a14.054,14.054,0,0,1,2.34-2.34l1.152,1.153a.93.93,0,0,0,1.165.121,11.483,11.483,0,0,1,3.905-1.62.93.93,0,0,0,.737-.91V2.024a13.962,13.962,0,0,1,3.313,0V3.653a.93.93,0,0,0,.737.91,11.529,11.529,0,0,1,3.906,1.621.93.93,0,0,0,1.164-.122l1.153-1.153A14.022,14.022,0,0,1,34.164,6.86a18.424,18.424,0,0,0-4.732,3.086A8.36,8.36,0,1,0,23.27,24.22a18.764,18.764,0,0,0,1,5.564c-.248.013-.5.022-.74.022Zm-.215-7.444a6.5,6.5,0,1,1,4.8-11.1q-.379.416-.738.859a18.392,18.392,0,0,0-4.061,10.246Zm31.539,11.9a16.809,16.809,0,0,1-19.4,4.965.929.929,0,0,0-.491-.061l-7.225,1.064.521-6.328a.93.93,0,0,0-.163-.606,16.718,16.718,0,1,1,26.758.967ZM44.467,11.269H38.041a.93.93,0,0,0-.927,1L38.27,27.018a.93.93,0,0,0,.927.857h4.115a.93.93,0,0,0,.927-.857l1.156-14.746a.93.93,0,0,0-.927-1ZM42.452,26.015H40.057l-1.01-12.886h4.415Zm7.487,16A4.137,4.137,0,0,0,46.983,43.2l-4.7,4.6a3.817,3.817,0,0,0-3.67-2.786H32.149c-3.153-2.311-6.546-2.16-9.83.442-.017.013-.033.027-.049.042l-3.98,3.628L16.973,47.81a.93.93,0,0,0-.657-.273h0a.93.93,0,0,0-.658.272l-5.5,5.5a.93.93,0,0,0,0,1.315L23.326,67.794a.93.93,0,0,0,1.315,0l5.5-5.5a.93.93,0,0,0,0-1.315l-1.6-1.6.988-.988,11.661,0a5.171,5.171,0,0,0,3.715-1.519L52.8,49.148a4.156,4.156,0,0,0-2.862-7.131Zm-25.955,23.8L12.13,53.968l4.185-4.185,1.255,1.255c.01.011.02.023.03.034l4.64,4.638,5.925,5.927Zm27.517-18-7.894,7.725a3.324,3.324,0,0,1-2.418.989l-12.043,0a.93.93,0,0,0-.657.272l-1.259,1.259L23.38,54.219l-3.775-3.776L23.5,46.9c2.728-2.151,5.2-2.219,7.767-.217a.93.93,0,0,0,.571.2H38.61a1.952,1.952,0,0,1,1.95,1.95c0,.059,0,.118-.009.175,0,.015,0,.029,0,.044-.006.055-.014.109-.025.163,0,.014-.006.027-.009.041-.009.042-.02.082-.032.123-.005.018-.011.037-.016.055q-.023.07-.051.138c-.009.023-.02.045-.03.067s-.022.047-.034.07-.028.054-.043.081l0,0a1.95,1.95,0,0,1-1.7.99H29.145a.93.93,0,1,0,0,1.86h9.464a3.811,3.811,0,0,0,3.243-1.813l6.432-6.294a2.279,2.279,0,0,1,1.607-.652h.027A2.3,2.3,0,0,1,51.5,47.818ZM41.256,29.588a3.166,3.166,0,1,0,3.166,3.166A3.17,3.17,0,0,0,41.256,29.588Zm0,4.472a1.306,1.306,0,1,1,1.306-1.306A1.308,1.308,0,0,1,41.256,34.06Z"/>
      </g>
    </g>
  </g>
</svg>
