<svg xmlns="http://www.w3.org/2000/svg" xmlns:xlink="http://www.w3.org/1999/xlink" width="118" height="118" viewBox="0 0 118 118">
  <defs>
    <filter id="Ellipse_12822" x="0" y="0" width="118" height="118" filterUnits="userSpaceOnUse">
      <feOffset dy="3" input="SourceAlpha"/>
      <feGaussianBlur stdDeviation="3" result="blur"/>
      <feFlood flood-opacity="0.161"/>
      <feComposite operator="in" in2="blur"/>
      <feComposite in="SourceGraphic"/>
    </filter>
    <clipPath id="clip-path">
      <rect id="Rectangle_411105" data-name="Rectangle 411105" width="71" height="68" transform="translate(-2720.52 -9225.662)" fill="#fff" stroke="#707070" stroke-width="1"/>
    </clipPath>
  </defs>
  <g id="Group_1204893" data-name="Group 1204893" transform="translate(2744.27 9247.662)">
    <g transform="matrix(1, 0, 0, 1, -2744.27, -9247.66)" filter="url(#Ellipse_12822)">
      <g id="Ellipse_12822-2" data-name="Ellipse 12822" transform="translate(9 6)" fill="#5bd4dd" stroke="#3f939a" stroke-width="1">
        <circle cx="50" cy="50" r="50" stroke="none"/>
        <circle cx="50" cy="50" r="49.5" fill="none"/>
      </g>
    </g>
    <g id="Mask_Group_1099367" data-name="Mask Group 1099367" clip-path="url(#clip-path)">
      <g id="leads_1_" transform="translate(-2719.02 -9225.662)">
        <path id="Path_1245275" data-name="Path 1245275" d="M30.016,11.11A10.049,10.049,0,1,1,19.967,1.062,10.049,10.049,0,0,1,30.016,11.11Z" fill="#ffce54"/>
        <path id="Path_1245276" data-name="Path 1245276" d="M22.578,8.5,20.21,7.261l-2.766.531L17,9.3l-.708,2.834,3.187,3.009,3.63-3.453Z" fill="#eac6bb"/>
        <path id="Path_1245277" data-name="Path 1245277" d="M21.515,15.141l-5.223.62-2.656,2.833,4.782,2.443,6.375-1.38,1.418-1.946Z" fill="#ed5564"/>
        <path id="Path_1245278" data-name="Path 1245278" d="M55.161,11.2A10.049,10.049,0,1,1,45.112,1.151,10.049,10.049,0,0,1,55.161,11.2Z" fill="#ffce54"/>
        <path id="Path_1245279" data-name="Path 1245279" d="M47.723,8.589,45.355,7.35l-2.766.531-.445,1.5-.707,2.834,3.188,3.009,3.629-3.453Z" fill="#eac6bb"/>
        <path id="Path_1245280" data-name="Path 1245280" d="M46.661,15.23l-5.223.62-2.657,2.833,4.782,2.442,6.374-1.38L51.355,17.8Z" fill="#ed5564"/>
        <path id="Path_1245281" data-name="Path 1245281" d="M6.109,29.484H59.1v6.507H6.109Z" fill="#e6e9ed"/>
        <path id="Path_1245282" data-name="Path 1245282" d="M5.246,35.992H58.238V65.808H5.246Z" fill="#f5f7fa"/>
        <path id="Path_1245283" data-name="Path 1245283" d="M42.633,54.852h-31.3V40.64H53.257L42.633,48.078Z" fill="#5d9cec"/>
        <path id="Path_1245284" data-name="Path 1245284" d="M46.683,66.407H35.394V61.093h8.633Z" fill="#a0d468"/>
        <path id="Path_1245285" data-name="Path 1245285" d="M11.335,61.093H29.086v4.848H11.335Z" fill="#a0d468"/>
        <path id="Path_1245286" data-name="Path 1245286" d="M63.285,56.18A10.027,10.027,0,1,1,53.257,46.152,10.026,10.026,0,0,1,63.285,56.18Z" fill="#f6bb42"/>
        <path id="Path_1245287" data-name="Path 1245287" d="M62.754,52.129A10.027,10.027,0,1,1,52.726,42.1,10.027,10.027,0,0,1,62.754,52.129Z" fill="#ffce54"/>
        <g id="Group_1204892" data-name="Group 1204892">
          <path id="Path_1245288" data-name="Path 1245288" d="M8.5,32.584a1.418,1.418,0,1,0,1.418-1.419A1.418,1.418,0,0,0,8.5,32.584Z"/>
          <path id="Path_1245289" data-name="Path 1245289" d="M12.75,32.584a1.417,1.417,0,1,0,1.417-1.419,1.417,1.417,0,0,0-1.417,1.419Z"/>
          <path id="Path_1245290" data-name="Path 1245290" d="M17,32.584a1.417,1.417,0,1,0,1.418-1.419A1.418,1.418,0,0,0,17,32.584Z"/>
          <path id="Path_1245291" data-name="Path 1245291" d="M60.917,44.922V31.165a2.831,2.831,0,0,0-2.833-2.83H37.117L42.67,22.35a11.333,11.333,0,1,0-2.839-1.108l-6.582,7.093h-1.33l-6.582-7.093A11.285,11.285,0,1,0,22.5,22.35l5.553,5.985H7.085a2.833,2.833,0,0,0-2.835,2.83V68H52.417A11.333,11.333,0,0,0,63.742,57.112h.008v-4.7a11.282,11.282,0,0,0-2.833-7.494ZM45.335,19.834a8.439,8.439,0,0,1-4.694-1.419l.2-.092c.056-.029.135-.066.159-.074a6.8,6.8,0,0,0,3.061-1.926,2.842,2.842,0,0,0,1.278.369,2.872,2.872,0,0,0,1.278-.367,6.83,6.83,0,0,0,3.059,1.924c.024.008.1.045.161.074s.126.058.2.092a8.438,8.438,0,0,1-4.694,1.419Zm-1.907-9.056c0-1.384.749-2.279,1.907-2.279s1.905.894,1.905,2.279a3.488,3.488,0,0,1-.807,2.021,3.921,3.921,0,0,1-1.1,1,3.9,3.9,0,0,1-1.1-1,3.488,3.488,0,0,1-.807-2.021Zm-5.04,5.449a8.5,8.5,0,1,1,13.893,0,10.14,10.14,0,0,1-1.6-.626c-1.44-.55-1.813-.947-1.909-1.133a.051.051,0,0,1-.008-.021v-.029a6.242,6.242,0,0,0,1.312-3.64,4.753,4.753,0,1,0-9.479,0,6.226,6.226,0,0,0,1.311,3.64v.029c0,.008,0,.017-.008.021-.1.186-.471.583-1.911,1.133a10.072,10.072,0,0,1-1.6.626ZM19.834,19.834a8.438,8.438,0,0,1-4.694-1.419l.2-.092c.058-.029.135-.066.16-.074a6.823,6.823,0,0,0,3.061-1.924,2.874,2.874,0,0,0,1.278.367,2.849,2.849,0,0,0,1.278-.369,6.8,6.8,0,0,0,3.059,1.926,1.732,1.732,0,0,1,.161.074c.058.029.125.058.2.092a8.439,8.439,0,0,1-4.694,1.419Zm-1.907-9.056c0-1.384.749-2.279,1.907-2.279s1.905.894,1.905,2.279a3.5,3.5,0,0,1-.805,2.021,3.944,3.944,0,0,1-1.1,1,3.9,3.9,0,0,1-1.1-1,3.487,3.487,0,0,1-.807-2.021Zm5.344,3.69a.051.051,0,0,1-.009-.021v-.029a6.238,6.238,0,0,0,1.312-3.64,4.754,4.754,0,1,0-9.48,0,6.227,6.227,0,0,0,1.312,3.64v.029c0,.008,0,.017-.008.021-.1.186-.471.583-1.911,1.133a9.932,9.932,0,0,1-1.6.626,8.5,8.5,0,1,1,13.894,0,10.035,10.035,0,0,1-1.6-.626c-1.442-.55-1.816-.947-1.911-1.133ZM52.417,60.915a8.5,8.5,0,1,1,8.5-8.5,8.507,8.507,0,0,1-8.5,8.5ZM42.6,46.75H19.834a1.418,1.418,0,0,0,0,2.835H41.442a11.366,11.366,0,0,0-.357,2.831c0,.15,0,.3.008.445v.975H12.75V42.5H46.928A11.394,11.394,0,0,0,42.6,46.75Zm8.4,18.3a8.4,8.4,0,0,1-1.416-.363V63.393A11.706,11.706,0,0,0,51,63.662ZM46.75,63c-.076-.07-.155-.139-.232-.212A8.69,8.69,0,0,1,45.2,61.154a11.551,11.551,0,0,0,1.552,1.08Zm7.085.664a11.757,11.757,0,0,0,1.416-.269v1.291a8.287,8.287,0,0,1-1.416.363ZM9.917,31.165H58.084V34h-51V31.165Zm18.417,34H12.75v-2.83H28.335Zm5.665,0H31.167V59.5H9.917v5.665H7.085V36.835h51V42.6a11.22,11.22,0,0,0-2.834-1.158V39.666H9.917v17H41.085c0,.15,0,.3.008.447a11.642,11.642,0,0,0,.349,2.388H34Zm2.835,0v-2.83H42.6a11.369,11.369,0,0,0,2.32,2.83ZM58.084,63v-.766a11.486,11.486,0,0,0,1.553-1.08,8.649,8.649,0,0,1-1.32,1.633c-.076.074-.153.142-.232.212Z"/>
          <path id="Path_1245292" data-name="Path 1245292" d="M52.417,46.75A1.418,1.418,0,0,0,51,48.165v8.5a1.417,1.417,0,1,0,2.834,0v-8.5A1.418,1.418,0,0,0,52.417,46.75Z"/>
        </g>
      </g>
    </g>
  </g>
</svg>
