<svg xmlns="http://www.w3.org/2000/svg" xmlns:xlink="http://www.w3.org/1999/xlink" width="118" height="118" viewBox="0 0 118 118">
  <defs>
    <filter id="Ellipse_12740" x="0" y="0" width="118" height="118" filterUnits="userSpaceOnUse">
      <feOffset dy="3" input="SourceAlpha"/>
      <feGaussianBlur stdDeviation="3" result="blur"/>
      <feFlood flood-opacity="0.161"/>
      <feComposite operator="in" in2="blur"/>
      <feComposite in="SourceGraphic"/>
    </filter>
    <clipPath id="clip-path">
      <rect id="Rectangle_411100" data-name="Rectangle 411100" width="71" height="68" transform="translate(818.165 2542.738)" fill="#fff" stroke="#707070" stroke-width="1"/>
    </clipPath>
  </defs>
  <g id="Group_1204889" data-name="Group 1204889" transform="translate(-793.781 -2520.738)">
    <g transform="matrix(1, 0, 0, 1, 793.78, 2520.74)" filter="url(#Ellipse_12740)">
      <g id="Ellipse_12740-2" data-name="Ellipse 12740" transform="translate(9 6)" fill="#5bd4dd" stroke="#3f939a" stroke-width="1">
        <circle cx="50" cy="50" r="50" stroke="none"/>
        <circle cx="50" cy="50" r="49.5" fill="none"/>
      </g>
    </g>
    <g id="Mask_Group_1099364" data-name="Mask Group 1099364" clip-path="url(#clip-path)">
      <g id="purposeful_18241547" transform="translate(815.802 2538.165)">
        <g id="Group_1204879" data-name="Group 1204879">
          <path id="Path_1245210" data-name="Path 1245210" d="M28.148,24.908h3.041A1.616,1.616,0,0,1,32.8,26.524v1.182A1.6,1.6,0,0,0,34,29.263a16.69,16.69,0,0,1,4.022,1.666,1.6,1.6,0,0,0,1.951-.255l.835-.835a1.617,1.617,0,0,1,2.285,0l2.147,2.147a1.617,1.617,0,0,1,0,2.285l-.835.835a1.6,1.6,0,0,0-.255,1.951,16.573,16.573,0,0,1,1.666,4.022,1.6,1.6,0,0,0,1.562,1.2h1.177a1.619,1.619,0,0,1,1.616,1.612v3.041a1.62,1.62,0,0,1-1.616,1.616H47.378a1.627,1.627,0,0,0-.877.25h-6.59a10.774,10.774,0,1,0-20.986-3.433,10.716,10.716,0,0,0,.564,3.433H12.837a1.627,1.627,0,0,0-.877-.25H10.779a1.619,1.619,0,0,1-1.612-1.616V43.89a1.618,1.618,0,0,1,1.612-1.612H11.96a1.6,1.6,0,0,0,1.562-1.2,16.573,16.573,0,0,1,1.666-4.022,1.6,1.6,0,0,0-.255-1.951l-.84-.835a1.619,1.619,0,0,1,0-2.281l2.151-2.151a1.617,1.617,0,0,1,2.285,0l.835.835a1.6,1.6,0,0,0,1.951.255,16.617,16.617,0,0,1,4.022-1.666,1.6,1.6,0,0,0,1.2-1.557V26.524a1.614,1.614,0,0,1,1.61-1.616Z" fill="#00ab76" fill-rule="evenodd"/>
          <path id="Path_1245211" data-name="Path 1245211" d="M40.966,49.364a11.757,11.757,0,1,0-22.536,0h-4.1a1.476,1.476,0,0,0-.8-.23H12.461a1.476,1.476,0,0,1-1.475-1.47V44.9a1.476,1.476,0,0,1,1.475-1.47h1.074a1.45,1.45,0,0,0,1.42-1.095,15.362,15.362,0,0,1,1.52-3.663,1.448,1.448,0,0,0-.234-1.775l-.76-.765a1.476,1.476,0,0,1,0-2.08l1.958-1.958a1.476,1.476,0,0,1,2.08,0l.76.765a1.461,1.461,0,0,0,1.775.234,15.039,15.039,0,0,1,3.667-1.52,1.457,1.457,0,0,0,1.09-1.42V29.07a1.473,1.473,0,0,1,1.47-1.47h2.773a1.475,1.475,0,0,1,1.47,1.47v1.077a1.458,1.458,0,0,0,1.09,1.42,14.936,14.936,0,0,1,3.663,1.52,1.468,1.468,0,0,0,1.78-.234l.76-.765a1.476,1.476,0,0,1,2.08,0l1.958,1.958a1.476,1.476,0,0,1,0,2.08l-.76.765a1.45,1.45,0,0,0-.234,1.775,15.171,15.171,0,0,1,1.516,3.663A1.458,1.458,0,0,0,45.8,43.425h1.074a1.476,1.476,0,0,1,1.475,1.47v2.768a1.476,1.476,0,0,1-1.475,1.47H45.8a1.5,1.5,0,0,0-.8.23Z" fill="#00f4a8" fill-rule="evenodd"/>
          <path id="Path_1245212" data-name="Path 1245212" d="M4.715,68.291a30.884,30.884,0,0,0,20.214,0V60.03c0-2.285-2.552-4.152-5.668-4.152H10.382c-3.116,0-5.668,1.867-5.668,4.152Z" fill="#4d66d2" fill-rule="evenodd"/>
          <path id="Path_1245213" data-name="Path 1245213" d="M8.131,69.214a29.988,29.988,0,0,0,16.8-.922V60.03c0-2.285-2.552-4.152-5.668-4.152H10.624a5.054,5.054,0,0,0-2.493,4.268Z" fill="#6b7ed9" fill-rule="evenodd"/>
          <path id="Path_1245214" data-name="Path 1245214" d="M14.822,46.085a5.546,5.546,0,1,1-5.546,5.546,5.548,5.548,0,0,1,5.546-5.546Z" fill="#ffb09e" fill-rule="evenodd"/>
          <path id="Path_1245215" data-name="Path 1245215" d="M14.822,46.085a5.547,5.547,0,0,1,3.7,9.675,5.848,5.848,0,0,1-1.186.125,5.545,5.545,0,0,1-3.7-9.672,5.646,5.646,0,0,1,1.186-.128Z" fill="#ffcebf" fill-rule="evenodd"/>
          <path id="Path_1245216" data-name="Path 1245216" d="M54.622,68.291a30.884,30.884,0,0,1-20.214,0V60.03c0-2.285,2.552-4.152,5.668-4.152h8.878c3.116,0,5.668,1.867,5.668,4.152Z" fill="#bd50b6" fill-rule="evenodd"/>
          <path id="Path_1245217" data-name="Path 1245217" d="M51.205,69.214a29.988,29.988,0,0,1-16.8-.922V60.03c0-2.285,2.552-4.152,5.668-4.152h8.637a5.054,5.054,0,0,1,2.493,4.268Z" fill="#e56ab9" fill-rule="evenodd"/>
          <path id="Path_1245218" data-name="Path 1245218" d="M44.515,46.085a5.546,5.546,0,1,0,5.546,5.546A5.548,5.548,0,0,0,44.515,46.085Z" fill="#ffb09e" fill-rule="evenodd"/>
          <path id="Path_1245219" data-name="Path 1245219" d="M44.515,46.085a5.547,5.547,0,0,0-3.7,9.675A5.848,5.848,0,0,0,42,55.886a5.545,5.545,0,0,0,3.7-9.672A5.646,5.646,0,0,0,44.515,46.085Z" fill="#ffcebf" fill-rule="evenodd"/>
          <path id="Path_1245220" data-name="Path 1245220" d="M19.327,69.846a30.884,30.884,0,0,0,20.214,0V61.58c0-2.281-2.552-4.152-5.671-4.152H24.995c-3.119,0-5.668,1.871-5.668,4.152Z" fill="#fbc700" fill-rule="evenodd"/>
          <path id="Path_1245221" data-name="Path 1245221" d="M22.744,70.768a30.03,30.03,0,0,0,16.8-.922V61.58c0-2.281-2.552-4.152-5.671-4.152H25.238A5.061,5.061,0,0,0,22.745,61.7v9.067Z" fill="#ffe559" fill-rule="evenodd"/>
          <path id="Path_1245222" data-name="Path 1245222" d="M29.434,47.64a5.546,5.546,0,1,1-5.546,5.546,5.546,5.546,0,0,1,5.546-5.546Z" fill="#ffb1a0" fill-rule="evenodd"/>
          <path id="Path_1245223" data-name="Path 1245223" d="M29.434,47.64a5.545,5.545,0,0,1,3.7,9.672,5.479,5.479,0,0,1-1.182.13,5.547,5.547,0,0,1-3.7-9.675,5.656,5.656,0,0,1,1.185-.127Z" fill="#ffcebf" fill-rule="evenodd"/>
          <path id="Path_1245224" data-name="Path 1245224" d="M56.142,21.124h7.409a2.634,2.634,0,0,1,2.627,2.627v2.623H53.515V23.751a2.634,2.634,0,0,1,2.627-2.627Z" fill="#ffe559" fill-rule="evenodd"/>
          <path id="Path_1245225" data-name="Path 1245225" d="M53.515,23.955H66.179v2.418H53.515Z" fill="#fbc700" fill-rule="evenodd"/>
          <path id="Path_1245226" data-name="Path 1245226" d="M61.4,5.6h9.618l-2.5,3.642,2.5,4.223H61.4Z" fill="#bd50b6" fill-rule="evenodd"/>
          <path id="Path_1245227" data-name="Path 1245227" d="M68.517,9.247l2.5,4.223H61.4V9.247Z" fill="#e56ab9" fill-rule="evenodd"/>
          <path id="Path_1245228" data-name="Path 1245228" d="M58.3,5.6h3.1v15.52H58.3Z" fill="#00f4a8" fill-rule="evenodd"/>
        </g>
        <path id="Path_1245229" data-name="Path 1245229" d="M60.365,20.092V6.636H59.329V20.092Zm-3.1,0V5.6A1.034,1.034,0,0,1,58.3,4.573H71.014a1.033,1.033,0,0,1,.81,1.671L69.737,9.288,71.9,12.946a1.031,1.031,0,0,1-.885,1.553H62.428v5.593h1.124A3.668,3.668,0,0,1,67.21,23.75v2.623A1.034,1.034,0,0,1,66.179,27.4H53.515a1.03,1.03,0,0,1-1.027-1.031V23.75a3.665,3.665,0,0,1,3.654-3.658ZM62.428,6.636v5.8h6.779L67.631,9.768a1.032,1.032,0,0,1,.034-1.1l1.4-2.03Zm1.123,15.52H56.141a1.6,1.6,0,0,0-1.6,1.6v1.591h10.6V23.751A1.6,1.6,0,0,0,63.55,22.156Zm-11,32.3a1.031,1.031,0,1,1,0-2.063h6.879V29.31a1.031,1.031,0,1,1,2.063,0V53.429a1.034,1.034,0,0,1-1.031,1.031ZM29.434,46.609a6.582,6.582,0,0,1,5.684,9.882l.055.009a7.421,7.421,0,0,1,3.654-1.557,6.577,6.577,0,0,1,.284-7.054,9.744,9.744,0,1,0-19.052-1.093,9.955,9.955,0,0,0,.267,1.245,6.574,6.574,0,0,1,.184,6.9,7.682,7.682,0,0,1,2.982,1.074,6.589,6.589,0,0,1,5.942-9.409ZM33.36,58.46a6.574,6.574,0,0,1-7.856,0h-.51a5.792,5.792,0,0,0-3.4,1.02,2.678,2.678,0,0,0-1.241,2.1v7.51c.735.217,1.475.414,2.213.585V63.911a1.031,1.031,0,1,1,2.063,0v6.176a29.1,29.1,0,0,0,9.6.066V63.91a1.029,1.029,0,1,1,2.058,0v5.826q1.109-.27,2.217-.626v-7.53a2.684,2.684,0,0,0-1.245-2.1,5.8,5.8,0,0,0-3.4-1.02H33.36Zm-.735-8.466a4.514,4.514,0,1,0,1.319,3.191A4.509,4.509,0,0,0,32.625,49.994ZM23.5,71.97a1.178,1.178,0,0,1-.18-.038,38.733,38.733,0,0,1-4.2-1.081.912.912,0,0,1-.209-.066,30.753,30.753,0,0,1-6.984.08c-.76-.075-2.481-.3-3.207-.48A38.882,38.882,0,0,1,4.5,69.3a1.032,1.032,0,0,1-.815-1.011V60.03c0-2.816,2.706-4.69,5.45-5.09a6.581,6.581,0,0,1-.239-6.16,2.643,2.643,0,0,1-.76-1.85V43.889a2.647,2.647,0,0,1,2.643-2.643c2.322,0,1.27.246,2.493-2.627A17.527,17.527,0,0,1,14.3,36.543a.571.571,0,0,0-.1-.71v0c-.835-.835-1.6-1.411-1.6-2.706h0a2.646,2.646,0,0,1,.772-1.871l2.151-2.151a2.659,2.659,0,0,1,1.867-.769v0c2.135,0,2.477,2.242,3.412,1.7a17.729,17.729,0,0,1,4.273-1.771A.561.561,0,0,0,25.5,27.7h0V26.523h0a2.65,2.65,0,0,1,2.643-2.648h3.041a2.65,2.65,0,0,1,2.643,2.648V27.7a.563.563,0,0,0,.435.564,17.744,17.744,0,0,1,4.273,1.771.553.553,0,0,0,.7-.1c.835-.831,1.416-1.607,2.711-1.607a2.639,2.639,0,0,1,1.867.772l2.151,2.151a2.65,2.65,0,0,1,0,3.742l-.835.835a.559.559,0,0,0-.1.706A17.554,17.554,0,0,1,46.8,40.815a.567.567,0,0,0,.569.43c1.177,0,2.133-.138,3.048.776a2.625,2.625,0,0,1,.776,1.867V46.93a2.643,2.643,0,0,1-.76,1.85,6.581,6.581,0,0,1-.239,6.16c2.743.4,5.45,2.276,5.45,5.09v8.261a1.031,1.031,0,0,1-.815,1.011,38.823,38.823,0,0,1-4.2,1.081,34.764,34.764,0,0,1-3.458.5,30.753,30.753,0,0,1-7.116-.15,1.116,1.116,0,0,1-.175.08A30.824,30.824,0,0,1,23.5,71.97ZM37.736,57.345a4.957,4.957,0,0,1,2.836,4.234v7.146a29.37,29.37,0,0,0,8.741-.192V62.36a1.031,1.031,0,1,1,2.063,0v5.764c.74-.171,1.475-.367,2.213-.589V60.029a2.7,2.7,0,0,0-1.241-2.105,5.8,5.8,0,0,0-3.4-1.015h-.514a6.582,6.582,0,0,1-7.853,0h-.514a6.389,6.389,0,0,0-2.335.436ZM18.3,68.785v-7.2a5.006,5.006,0,0,1,3.028-4.335,6.281,6.281,0,0,0-2.063-.334h-.514a6.582,6.582,0,0,1-7.853,0H10.38a5.8,5.8,0,0,0-3.4,1.015,2.7,2.7,0,0,0-1.241,2.105v7.505c.735.221,1.475.417,2.213.589V62.363a1.031,1.031,0,0,1,2.063,0v6.173a29.514,29.514,0,0,0,8.277.249ZM44.515,47.117a4.516,4.516,0,1,0,3.191,1.323,4.515,4.515,0,0,0-3.191-1.323Zm-3.023-1.323a6.57,6.57,0,0,1,7.647,1.161V43.889a.586.586,0,0,0-.585-.58,4.081,4.081,0,0,1-2.79-.544,2.647,2.647,0,0,1-.944-1.42,15.7,15.7,0,0,0-1.562-3.776,2.624,2.624,0,0,1,.417-3.191l.835-.84a.584.584,0,0,0,0-.822l-2.151-2.151a.584.584,0,0,0-.822,0c-.765.765-1.274,1.45-2.363,1.591a2.606,2.606,0,0,1-1.666-.339,15.576,15.576,0,0,0-3.776-1.562A2.633,2.633,0,0,1,31.768,27.7V26.521a.586.586,0,0,0-.58-.585H28.146a.587.587,0,0,0-.585.585h0l0,1.182A2.629,2.629,0,0,1,25.6,30.255a15.625,15.625,0,0,0-3.776,1.562,2.632,2.632,0,0,1-3.194-.414l-.835-.84a.58.58,0,0,0-.414-.166v0a.581.581,0,0,0-.41.171l-2.151,2.151h0a.6.6,0,0,0-.166.414.57.57,0,0,0,.171.41l.835.84a2.625,2.625,0,0,1,.417,3.191,15.533,15.533,0,0,0-1.562,3.775,2.634,2.634,0,0,1-2.556,1.962H10.776a.585.585,0,0,0-.58.58v3.066A6.576,6.576,0,0,1,17.9,45.82a11.8,11.8,0,1,1,23.591-.027Zm-23.48,2.648a4.515,4.515,0,1,0,1.325,3.191A4.512,4.512,0,0,0,18.011,48.441Z"/>
      </g>
    </g>
  </g>
</svg>
