<svg xmlns="http://www.w3.org/2000/svg" xmlns:xlink="http://www.w3.org/1999/xlink" width="110" height="110" viewBox="0 0 110 110">
  <defs>
    <clipPath id="clip-path">
      <rect id="Rectangle_411108" data-name="Rectangle 411108" width="71" height="68" transform="translate(344.5 4283.491)" fill="#fff" stroke="#707070" stroke-width="1"/>
    </clipPath>
  </defs>
  <g id="Group_1204904" data-name="Group 1204904" transform="translate(-324.782 -4262.491)">
    <circle id="Ellipse_12740" data-name="Ellipse 12740" cx="55" cy="55" r="55" transform="translate(324.782 4262.491)" fill="#f5ae5c"/>
    <g id="Mask_Group_1099369" data-name="Mask Group 1099369" clip-path="url(#clip-path)">
      <g id="conversation_5703038" transform="translate(345.999 4283.491)">
        <path id="Path_1245302" data-name="Path 1245302" d="M5.633,33.317V3.659A2.526,2.526,0,0,1,8.159,1.133h46.4a2.526,2.526,0,0,1,2.526,2.526V33.317a2.526,2.526,0,0,1-2.526,2.526v9.075L46.7,35.843H8.159A2.526,2.526,0,0,1,5.633,33.317Z" fill="#ff7d97"/>
        <path id="Path_1245303" data-name="Path 1245303" d="M15.182,42.936V13.278a2.526,2.526,0,0,1,2.526-2.526h46.4a2.526,2.526,0,0,1,2.526,2.526V42.936a2.526,2.526,0,0,1-2.526,2.526v9.075l-7.859-9.075H17.708a2.526,2.526,0,0,1-2.526-2.526Z" fill="#a0e5a5"/>
        <path id="Path_1245304" data-name="Path 1245304" d="M50.293,57.793H11.747L3.888,66.868V57.793a2.526,2.526,0,0,1-2.526-2.526V25.609a2.526,2.526,0,0,1,2.526-2.526h46.4a2.526,2.526,0,0,1,2.526,2.526V55.267a2.526,2.526,0,0,1-2.526,2.526Z" fill="#ffcd69"/>
        <path id="Path_1245305" data-name="Path 1245305" d="M64.114,9.622H58.221V3.661A3.666,3.666,0,0,0,54.56,0H8.16A3.666,3.666,0,0,0,4.5,3.661V21.953H3.887A3.666,3.666,0,0,0,.227,25.614V55.262a3.659,3.659,0,0,0,2.527,3.479v8.126a1.141,1.141,0,0,0,.737,1.065A1.158,1.158,0,0,0,4.749,67.6l7.514-8.682H50.3a3.657,3.657,0,0,0,3.649-3.661v-8.67h1.791l7.514,8.682a1.155,1.155,0,0,0,1.258.329,1.141,1.141,0,0,0,.737-1.065V46.411a3.67,3.67,0,0,0,2.527-3.479V13.283A3.666,3.666,0,0,0,64.114,9.622ZM6.766,3.661A1.393,1.393,0,0,1,8.16,2.267h46.4a1.393,1.393,0,0,1,1.394,1.394V9.622H17.7a3.657,3.657,0,0,0-3.649,3.661v8.67H6.766Zm44.915,51.6A1.391,1.391,0,0,1,50.3,56.657H11.742a1.122,1.122,0,0,0-.85.4L5.021,63.831V57.79c0-1.668-2.527-.691-2.527-2.527V25.614A1.393,1.393,0,0,1,3.887,24.22H50.3a1.391,1.391,0,0,1,1.383,1.394ZM65.508,42.932c0,1.816-2.527.876-2.527,2.527V51.5l-5.859-6.777a1.146,1.146,0,0,0-.861-.4H53.948v-6.6h5.927a1.134,1.134,0,0,0,0-2.267H53.948V29.286h5.927a1.134,1.134,0,0,0,0-2.267H53.948V25.614A3.657,3.657,0,0,0,50.3,21.953H16.32v-8.67A1.376,1.376,0,0,1,17.7,11.889H64.114a1.393,1.393,0,0,1,1.394,1.394ZM48.122,32.641a1.129,1.129,0,0,1-1.133,1.133H9.4a1.133,1.133,0,0,1,0-2.267H46.989A1.137,1.137,0,0,1,48.122,32.641Zm0,8.444a1.137,1.137,0,0,1-1.133,1.133H9.4a1.133,1.133,0,0,1,0-2.267H46.989A1.137,1.137,0,0,1,48.122,41.084Zm0,8.444a1.137,1.137,0,0,1-1.133,1.133H34.828a1.133,1.133,0,0,1,0-2.267H46.989a1.137,1.137,0,0,1,1.133,1.133Zm-17.7,0a1.137,1.137,0,0,1-1.133,1.133H9.4a1.133,1.133,0,0,1,0-2.267h19.89a1.137,1.137,0,0,1,1.133,1.133ZM61.009,19.709a1.122,1.122,0,0,1-1.133,1.133H22.293a1.133,1.133,0,0,1,0-2.267H59.875a1.129,1.129,0,0,1,1.133,1.133Z"/>
      </g>
    </g>
  </g>
</svg>
