<svg xmlns="http://www.w3.org/2000/svg" xmlns:xlink="http://www.w3.org/1999/xlink" width="118" height="118" viewBox="0 0 118 118">
  <defs>
    <filter id="Ellipse_12740" x="0" y="0" width="118" height="118" filterUnits="userSpaceOnUse">
      <feOffset dy="3" input="SourceAlpha"/>
      <feGaussianBlur stdDeviation="3" result="blur"/>
      <feFlood flood-opacity="0.161"/>
      <feComposite operator="in" in2="blur"/>
      <feComposite in="SourceGraphic"/>
    </filter>
    <clipPath id="clip-path">
      <rect id="Rectangle_411101" data-name="Rectangle 411101" width="71" height="68" transform="translate(1132.531 2542.738)" fill="#fff" stroke="#707070" stroke-width="1"/>
    </clipPath>
  </defs>
  <g id="Group_1204890" data-name="Group 1204890" transform="translate(-1108.781 -2520.738)">
    <g transform="matrix(1, 0, 0, 1, 1108.78, 2520.74)" filter="url(#Ellipse_12740)">
      <g id="Ellipse_12740-2" data-name="Ellipse 12740" transform="translate(9 6)" fill="#5bd4dd" stroke="#3f939a" stroke-width="1">
        <circle cx="50" cy="50" r="50" stroke="none"/>
        <circle cx="50" cy="50" r="49.5" fill="none"/>
      </g>
    </g>
    <g id="Mask_Group_1099365" data-name="Mask Group 1099365" clip-path="url(#clip-path)">
      <g id="decision-making_18091921" transform="translate(1128.558 2537.286)">
        <g id="Group_1204880" data-name="Group 1204880">
          <path id="Path_1245230" data-name="Path 1245230" d="M28.862,48.079,24.824,54.7,20.33,47.849c-1.688-2.577-6.471.707-4.242,2.858l7.7,10.752a2.564,2.564,0,0,0,.629.433,2.435,2.435,0,0,0,3.21-1.041l2.889-5.608v13.68c0,.764.728,1.054,1.44,1.388H46.211a1.416,1.416,0,0,0,1.435-1.388V55.245l2.894,5.608a2.432,2.432,0,0,0,3.21,1.041,2.533,2.533,0,0,0,.624-.433l6.849-10.336c2.225-2.156-1.9-5.96-3.392-3.275l-4.494,8.059L49.3,48.079c-.686-1.327-5.452-2-10.223-2s-9.537.669-10.218,2Z" fill="#b39ccb" fill-rule="evenodd"/>
          <path id="Path_1245231" data-name="Path 1245231" d="M47.678,35.752l1.544.083c.851.043,1.232.764.851,1.591l-.754,1.657a2.556,2.556,0,0,1-2.234,1.431l-1.544-.087Z" fill="#f598a2" fill-rule="evenodd"/>
          <path id="Path_1245232" data-name="Path 1245232" d="M49.3,48.079l4.033,7.83,4.494-8.059a1.458,1.458,0,0,1,.82-.52,12.035,12.035,0,0,1,2.173,4.177l-6.45,9.955a2.44,2.44,0,0,1-3.835-.607l-2.894-5.608v7.877c-.2-.035-.4-.073-.6-.113-9.13-1.809-16.53-8.293-16.53-14.478A7.063,7.063,0,0,1,30.68,47c4.866-1.507,17.479-1.148,18.625,1.082Z" fill="#d0c3e1" fill-rule="evenodd"/>
          <path id="Path_1245233" data-name="Path 1245233" d="M35.463,43.23h7.192v3.192c0,1.752.494,2.542-1.141,3.187a5.348,5.348,0,0,1-4.8,0c-1.535-.846-1.249-1.435-1.249-3.187Z" fill="#f598a2" fill-rule="evenodd"/>
          <path id="Path_1245234" data-name="Path 1245234" d="M32.843,53.552l.8-6.649,5.721,4.007Z" fill="#43b3e6" fill-rule="evenodd"/>
          <path id="Path_1245235" data-name="Path 1245235" d="M45.886,53.552l-.806-6.705-5.712,4.064Z" fill="#43b3e6" fill-rule="evenodd"/>
          <path id="Path_1245236" data-name="Path 1245236" d="M37.567,50.109h3.288l1.223,13.081h-.017L40.638,65.42,39.212,67.65,37.784,65.42l-1.423-2.229h-.017Z" fill="#43b3e6" fill-rule="evenodd"/>
          <path id="Path_1245237" data-name="Path 1245237" d="M39.831,50.109h1.024l1.223,13.081h-.017L40.638,65.42l-.142.225L40.087,65l-1.426-2.229h-.018Z" fill="#83d4f7" fill-rule="evenodd"/>
          <path id="Path_1245238" data-name="Path 1245238" d="M38.526,48.2h1.366a1.162,1.162,0,0,1,1.163,1.163V51.9a1.165,1.165,0,0,1-1.163,1.163H38.526A1.168,1.168,0,0,1,37.363,51.9V49.363A1.166,1.166,0,0,1,38.526,48.2Z" fill="#43b3e6" fill-rule="evenodd"/>
          <path id="Path_1245239" data-name="Path 1245239" d="M39.3,28.517A6.977,6.977,0,0,1,46.276,35.5c0,3.851-3.123,8.944-6.979,8.944s-6.974-5.092-6.974-8.944A6.976,6.976,0,0,1,39.3,28.517Z" fill="#f598a2" fill-rule="evenodd"/>
          <path id="Path_1245240" data-name="Path 1245240" d="M39.3,28.517A6.977,6.977,0,0,1,46.276,35.5a10.612,10.612,0,0,1-3.8,7.764c-.069,0-.139,0-.208,0-3.851,0-6.979-5.092-6.979-8.944a6.975,6.975,0,0,1,2.993-5.73,7.2,7.2,0,0,1,1.014-.073Z" fill="#f9b5b2" fill-rule="evenodd"/>
          <path id="Path_1245241" data-name="Path 1245241" d="M13.464,46.074h5.248a2.317,2.317,0,0,1,0,4.633H13.464a2.317,2.317,0,1,1,0-4.633Z" fill="#f598a2" fill-rule="evenodd"/>
          <path id="Path_1245242" data-name="Path 1245242" d="M64.845,46.96H59.6a2.319,2.319,0,1,0,0,4.638h5.248a2.319,2.319,0,0,0,0-4.638Z" fill="#f598a2" fill-rule="evenodd"/>
          <path id="Path_1245243" data-name="Path 1245243" d="M46.411,36.26a5.866,5.866,0,0,1-1.856-2.494q-4.366,1.951-7.6-.6a1.848,1.848,0,0,0-1.891-.269,5.394,5.394,0,0,0-3.3,4.138c-1.071-2.281-2.012-10.922,2.48-9.551,1.466-5.651,15.982-3.336,12.162,8.78Z" fill="#6dcff1" fill-rule="evenodd"/>
          <path id="Path_1245244" data-name="Path 1245244" d="M45.921,35.868a7.983,7.983,0,0,1-1.366-2.1q-4.366,1.951-7.6-.6a1.848,1.848,0,0,0-1.891-.269A5.406,5.406,0,0,0,32.54,35c-.217-3.071.407-6.414,3.331-5.525.9-3.478,6.754-3.939,10.223-.946,1.036,1.874,1.353,4.433.326,7.707-.083-.151-.165-.312-.243-.477C46.09,35.795,46,35.83,45.921,35.868Z" fill="#3ab6e9" fill-rule="evenodd"/>
          <path id="Path_1245245" data-name="Path 1245245" d="M67.357,39.856A17.629,17.629,0,0,1,73.9,31.61,39.769,39.769,0,0,1,65.435,24.7s-.118,1.513-.352,4.541A12.685,12.685,0,0,0,53.575,44.726a15.863,15.863,0,0,1,12.54-10Q67.359,39.856,67.357,39.856Z" fill="#43b649" fill-rule="evenodd"/>
          <path id="Path_1245246" data-name="Path 1245246" d="M67.357,39.856A20.689,20.689,0,0,1,73.9,31.61c-2.026-1.444-4.7-2.8-6.75-4.932T66.8,31.215A12.672,12.672,0,0,0,55.176,41.638a15.861,15.861,0,0,1,10.939-6.91Q67.359,39.856,67.357,39.856Z" fill="#5fbb46" fill-rule="evenodd"/>
          <path id="Path_1245247" data-name="Path 1245247" d="M23.05,8.583a7.779,7.779,0,1,1-7.778,7.781A7.78,7.78,0,0,1,23.05,8.583Z" fill="#fed733" fill-rule="evenodd"/>
          <path id="Path_1245248" data-name="Path 1245248" d="M29.486,12a7.779,7.779,0,0,1-9.825,11.369A7.781,7.781,0,0,1,29.486,12Z" fill="#feea3a" fill-rule="evenodd"/>
          <path id="Path_1245249" data-name="Path 1245249" d="M54.6,8.621a7.759,7.759,0,1,1-7.759,7.759A7.759,7.759,0,0,1,54.6,8.621Z" fill="#fed733" fill-rule="evenodd"/>
          <path id="Path_1245250" data-name="Path 1245250" d="M58.764,22.931a7.759,7.759,0,0,1-11.159-9.9,7.759,7.759,0,0,1,11.159,9.9Z" fill="#feea3a" fill-rule="evenodd"/>
          <path id="Path_1245251" data-name="Path 1245251" d="M11.591,39.856A17.685,17.685,0,0,0,5.046,31.61,39.769,39.769,0,0,0,13.513,24.7s.118,1.513.352,4.541a12.679,12.679,0,0,1,11.5,15.481,15.857,15.857,0,0,0-12.535-10q-1.246,5.128-1.242,5.128Z" fill="#43b649" fill-rule="evenodd"/>
          <path id="Path_1245252" data-name="Path 1245252" d="M11.591,39.856A20.689,20.689,0,0,0,5.046,31.61c2.021-1.444,4.7-2.8,6.75-4.932t.347,4.537A12.686,12.686,0,0,1,23.772,41.638a15.861,15.861,0,0,0-10.939-6.91Q11.587,39.856,11.591,39.856Z" fill="#5fbb46" fill-rule="evenodd"/>
          <path id="Path_1245253" data-name="Path 1245253" d="M31.33,35.752l-1.544.083c-.851.043-1.236.764-.854,1.591l.759,1.657a2.547,2.547,0,0,0,2.234,1.431l1.544-.087Z" fill="#f598a2" fill-rule="evenodd"/>
        </g>
        <path id="Path_1245254" data-name="Path 1245254" d="M30.661,36.858l-.794.043.79,1.74a1.52,1.52,0,0,0,1.189.806Zm-.932-2.092.317-.017c-.329-2.021-.442-4.927.542-6.75a3.022,3.022,0,0,1,2.988-1.726c2.88-5.565,16.417-2.837,14.331,8.419l1.366.073a2.08,2.08,0,0,1,1.77,3.106L50.29,39.53a3.627,3.627,0,0,1-3.262,2.052L45.47,41.5a10.689,10.689,0,0,1-1.744,2.1v1.636c2.057.2,5.674.695,6.528,2.355l3.123,6.055,2.962-5.313a3.4,3.4,0,0,1,.863-1.449,3.359,3.359,0,0,1,2.395-1h5.248a3.39,3.39,0,0,1,0,6.78H61.483l-6.215,9.381a3.123,3.123,0,0,1-1.054.806,3.5,3.5,0,0,1-4.624-1.513l-.872-1.688v9.27a2.5,2.5,0,0,1-2.506,2.464H31.954a1.2,1.2,0,0,1-.577-.161c-.984-.459-1.93-.9-1.93-2.3v-9.27l-.872,1.688a3.508,3.508,0,0,1-5.1,1.236,2.623,2.623,0,0,1-.56-.494l-7.383-10.3H13.464a3.389,3.389,0,0,1,0-6.779h5.248A3.4,3.4,0,0,1,22.1,48.394c0,.066,0,.13,0,.2l2.7,4.116,3.14-5.154c.941-1.631,4.376-2.095,6.463-2.307l0-2.109a11.062,11.062,0,0,1-1.253-1.617,4.306,4.306,0,0,1-3.088-.49,3.629,3.629,0,0,1-1.34-1.5l-.759-1.657a2.081,2.081,0,0,1,1.769-3.109ZM10.593,40.241a16.654,16.654,0,0,0-6.125-7.729,1.065,1.065,0,0,1,.092-1.851,32.373,32.373,0,0,0,4.026-2.832,46.248,46.248,0,0,0,4.159-3.861,1.07,1.07,0,0,1,1.835.664v0l.282,3.648A13.764,13.764,0,0,1,26.412,44.967a1.07,1.07,0,0,1-2.064.078,14.791,14.791,0,0,0-10.713-9.083l-1.007,4.147a1.069,1.069,0,0,1-2.035.133Zm-.976-5.877a19.991,19.991,0,0,1,1.622,2.395l.539-2.22a1.067,1.067,0,0,1,1.206-.863,16.91,16.91,0,0,1,11.594,7.253A11.6,11.6,0,0,0,13.82,30.32a1.069,1.069,0,0,1-1.024-.993l-.173-2.22a40.58,40.58,0,0,1-5.665,4.577,16.823,16.823,0,0,1,2.658,2.681Zm41.2-16.457a1.069,1.069,0,1,1,1.35-1.657l1.908,1.558,2.832-5.088a1.067,1.067,0,0,1,1.865,1.037l-3.556,6.359a1.072,1.072,0,0,1-1.506.151ZM54.605,7.55a8.831,8.831,0,1,1-8.831,8.831A8.829,8.829,0,0,1,54.605,7.55Zm4.727,4.1a6.689,6.689,0,1,0,0,9.459A6.692,6.692,0,0,0,59.332,11.654ZM24.911,12.928a1.072,1.072,0,0,1,1.513,1.518l-1.861,1.861,1.978,1.974a1.072,1.072,0,0,1-1.518,1.513L23.05,17.82l-1.978,1.974a1.07,1.07,0,1,1-1.513-1.513l1.978-1.974-1.861-1.861a1.072,1.072,0,0,1,1.513-1.518l1.861,1.861ZM23.05,7.515A8.849,8.849,0,1,1,14.2,16.363,8.847,8.847,0,0,1,23.05,7.515Zm4.74,4.1a6.706,6.706,0,1,0,0,9.485A6.711,6.711,0,0,0,27.791,11.618ZM67.7,36.759a18.029,18.029,0,0,1,4.281-5.079A41.009,41.009,0,0,1,66.32,27.1l-.17,2.22a1.072,1.072,0,0,1-1.028.993A11.6,11.6,0,0,0,54.369,40.925a16.9,16.9,0,0,1,11.594-7.253,1.064,1.064,0,0,1,1.2.863ZM71,35.7a19.7,19.7,0,0,0-2.646,4.546,1.068,1.068,0,0,1-2.034-.135L65.315,35.96A14.791,14.791,0,0,0,54.6,45.043a1.07,1.07,0,0,1-2.064-.078A13.762,13.762,0,0,1,64.089,28.274l.282-3.648v0a1.07,1.07,0,0,1,1.835-.664,46.437,46.437,0,0,0,4.156,3.861,32.487,32.487,0,0,0,4.026,2.832,1.067,1.067,0,0,1,.095,1.851A14.345,14.345,0,0,0,71,35.7ZM35.585,27.073a6.354,6.354,0,0,1,2.516,5.6c1.87,1.21,3.9,1.062,6.02.118a1.073,1.073,0,0,1,1.4.511c.113.239.23.456.338.655C47.132,25.541,37.6,24.019,35.585,27.073Zm.776,6.979a.875.875,0,0,0-.464-.225c-.5-.073-1.371.555-1.7.854a4.552,4.552,0,0,0-.8.967,9.711,9.711,0,0,0,2.047,5.426c2.1,2.688,4.941,3.314,7.516.239a10.035,10.035,0,0,0,2.161-4.736,7.193,7.193,0,0,1-1.059-1.461,7.708,7.708,0,0,1-7.7-1.063Zm-.4-2.369a4.382,4.382,0,0,0-.386-1.345,4.242,4.242,0,0,0-1.731-1.865,1.812,1.812,0,0,0-.577-.066c-.972.069-1.227,1.8-1.288,2.714a14.52,14.52,0,0,0,.095,2.7c.871-1.07,2.454-2.223,3.887-2.141ZM64.845,48.031H59.6a1.247,1.247,0,0,0,0,2.494h5.248a1.247,1.247,0,0,0,0-2.494ZM58.96,52.607a3.4,3.4,0,0,1-1.93-1.119l-2.754,4.941a1.068,1.068,0,0,1-1.882-.031l-4.038-7.825c-.151-.3-1.414-.643-2.083-.79l.681,5.648a1.075,1.075,0,0,1-1.466,1.114l-3.27-1.324.924,9.873a1.086,1.086,0,0,1-.265.806l-2.767,4.324a1.067,1.067,0,0,1-1.809-.017l-2.742-4.289a1.04,1.04,0,0,1-.269-.92l.9-9.646-2.95,1.194a1.071,1.071,0,0,1-1.461-1.114l.695-5.764c-.686.125-2.473.534-2.662.906-.017.026-.031.052-.047.073l-4.029,6.61a1.069,1.069,0,0,1-1.8.031l-2.9-4.424a3.388,3.388,0,0,1-2.317.92h-.542l6.428,8.97a1.394,1.394,0,0,0,2.078-.39l2.889-5.6a1.071,1.071,0,0,1,2.021.49V68.927a2.474,2.474,0,0,0,.6.321H46.217a.345.345,0,0,0,.364-.321V55.251a1.072,1.072,0,0,1,2.057-.421L51.5,60.365a1.364,1.364,0,0,0,1.982.459.544.544,0,0,0,.087-.066Zm-40.248-5.46H13.464a1.247,1.247,0,0,0,0,2.494h5.248a1.246,1.246,0,0,0,.88-2.125A1.221,1.221,0,0,0,18.712,47.147Zm22.871-2.118a5.663,5.663,0,0,1-5.05-.234l-.021,2.815.36.256a2.221,2.221,0,0,1,1.653-.738h1.366a2.225,2.225,0,0,1,1.752.851l.012,0-.073-1.553V45.029Zm.542,5.232v.617l2.485,1.007-.378-3.123Zm-1.969,3.864H38.265L37.44,62.9l1.769,2.768,1.77-2.768ZM36.292,51v-.936l-1.8-1.262-.369,3.08Zm3.6-1.731H38.526l-.092.092v2.542l.092.092h1.366l.092-.092V49.363ZM49.135,36.9l-.79-.043-1.184,2.589a1.513,1.513,0,0,0,1.184-.806Z"/>
      </g>
    </g>
  </g>
</svg>
