<svg xmlns="http://www.w3.org/2000/svg" xmlns:xlink="http://www.w3.org/1999/xlink" width="118" height="118" viewBox="0 0 118 118">
  <defs>
    <filter id="Ellipse_12821" x="0" y="0" width="118" height="118" filterUnits="userSpaceOnUse">
      <feOffset dy="3" input="SourceAlpha"/>
      <feGaussianBlur stdDeviation="3" result="blur"/>
      <feFlood flood-opacity="0.161"/>
      <feComposite operator="in" in2="blur"/>
      <feComposite in="SourceGraphic"/>
    </filter>
    <clipPath id="clip-path">
      <rect id="Rectangle_411104" data-name="Rectangle 411104" width="71" height="68" transform="translate(-3034.886 -9225.662)" fill="#fff" stroke="#707070" stroke-width="1"/>
    </clipPath>
  </defs>
  <g id="Group_1204891" data-name="Group 1204891" transform="translate(3059.27 9247.662)">
    <g transform="matrix(1, 0, 0, 1, -3059.27, -9247.66)" filter="url(#Ellipse_12821)">
      <g id="Ellipse_12821-2" data-name="Ellipse 12821" transform="translate(9 6)" fill="#5bd4dd" stroke="#3f939a" stroke-width="1">
        <circle cx="50" cy="50" r="50" stroke="none"/>
        <circle cx="50" cy="50" r="49.5" fill="none"/>
      </g>
    </g>
    <g id="Mask_Group_1099366" data-name="Mask Group 1099366" clip-path="url(#clip-path)">
      <g id="risk-assessment_17861947" transform="translate(-3033.519 -9225.796)">
        <g id="Group_1204885" data-name="Group 1204885">
          <g id="Group_1204882" data-name="Group 1204882">
            <path id="Path_1245255" data-name="Path 1245255" d="M10.854,6.268H53.186a2.521,2.521,0,0,1,2.519,2.519V59.367a2.521,2.521,0,0,1-2.519,2.519H10.854a2.52,2.52,0,0,1-2.519-2.519V8.788a2.52,2.52,0,0,1,2.519-2.519Z" fill="#b4d2d7"/>
            <g id="Group_1204881" data-name="Group 1204881">
              <path id="Path_1245256" data-name="Path 1245256" d="M53.186,6.268a2.524,2.524,0,0,1,2.519,2.519V59.367a2.524,2.524,0,0,1-2.519,2.519H50.714a2.524,2.524,0,0,0,2.519-2.519V8.788a2.524,2.524,0,0,0-2.519-2.519h2.472Z" fill="#9bb9c3" fill-rule="evenodd"/>
              <path id="Path_1245257" data-name="Path 1245257" d="M51.6,10.868V57.287a.5.5,0,0,1-.495.495H18.469l-6.029-6.03V10.868a.5.5,0,0,1,.495-.495H51.106a.5.5,0,0,1,.495.495Z" fill="#eff4f7" fill-rule="evenodd"/>
              <path id="Path_1245258" data-name="Path 1245258" d="M14.585,53.9,12.44,51.752V10.868a.5.5,0,0,1,.495-.495H15.08a.5.5,0,0,0-.495.495Z" fill="#e2e3e3" fill-rule="evenodd"/>
              <path id="Path_1245259" data-name="Path 1245259" d="M18.469,51.752v6.029L12.44,51.752Z" fill="#e2e3e3" fill-rule="evenodd"/>
              <path id="Path_1245260" data-name="Path 1245260" d="M14.585,53.9,12.44,51.752h2.145Z" fill="#d8d8d8" fill-rule="evenodd"/>
              <path id="Path_1245261" data-name="Path 1245261" d="M23.3,6.268h6.316L27.1,2.715a1.2,1.2,0,0,1,.982-1.9h7.868a1.2,1.2,0,0,1,.982,1.9L34.424,6.268h6.316a.493.493,0,0,1,.483.6l-.854,3.952a1.471,1.471,0,0,1-1.45,1.17h-13.8a1.471,1.471,0,0,1-1.45-1.17l-.854-3.952a.493.493,0,0,1,.483-.6Z" fill="#da8c36" fill-rule="evenodd"/>
              <path id="Path_1245262" data-name="Path 1245262" d="M34.292.818h1.662a1.2,1.2,0,0,1,.982,1.9L34.424,6.268H32.762l2.513-3.553a1.2,1.2,0,0,0-.982-1.9Zm4.785,5.45a.493.493,0,0,1,.483.6l-.854,3.952a1.471,1.471,0,0,1-1.45,1.17h1.662a1.47,1.47,0,0,0,1.45-1.17l.854-3.952a.493.493,0,0,0-.483-.6Z" fill="#c97629" fill-rule="evenodd"/>
            </g>
          </g>
          <g id="Group_1204884" data-name="Group 1204884">
            <g id="Group_1204883" data-name="Group 1204883">
              <path id="Path_1245263" data-name="Path 1245263" d="M46.86,56.763,49.166,54.3l-4.66-4.66-2.471,2.3Z" fill="#b4d2d7" fill-rule="evenodd"/>
              <path id="Path_1245264" data-name="Path 1245264" d="M46.86,56.763,49.166,54.3l-.025-.025-1.29,1.379-4.728-4.728-1.089,1.013Z" fill="#9bb9c3" fill-rule="evenodd"/>
              <path id="Path_1245265" data-name="Path 1245265" d="M48.949,52.632l-3.834,3.834a.273.273,0,0,0,0,.385l9.728,9.728a2.983,2.983,0,1,0,4.219-4.219l-9.728-9.728a.273.273,0,0,0-.385,0Z" fill="#8d9ca8" fill-rule="evenodd"/>
              <path id="Path_1245266" data-name="Path 1245266" d="M45.837,55.743l-.723.723a.273.273,0,0,0,0,.385l9.728,9.728a2.983,2.983,0,0,0,4.55-.393,2.994,2.994,0,0,1-3.825-.331l-9.728-9.728a.273.273,0,0,1,0-.384Z" fill="#7a8c98" fill-rule="evenodd"/>
              <path id="Path_1245267" data-name="Path 1245267" d="M45.115,56.466a.273.273,0,0,0,0,.385l2.524,2.524,4.219-4.219-2.524-2.524a.273.273,0,0,0-.385,0l-3.834,3.834Z" fill="#7a8c98" fill-rule="evenodd"/>
              <path id="Path_1245268" data-name="Path 1245268" d="M45.115,56.466a.273.273,0,0,0,0,.385l2.524,2.524.724-.724-2.524-2.524a.273.273,0,0,1,0-.384Z" fill="#596c76" fill-rule="evenodd"/>
            </g>
            <circle id="Ellipse_13049" data-name="Ellipse 13049" cx="14.122" cy="14.122" r="14.122" transform="matrix(0.036, -0.999, 0.999, 0.036, 19.694, 55.468)" fill="#64b5f6"/>
            <path id="Path_1245269" data-name="Path 1245269" d="M42.709,30.47A14.127,14.127,0,1,1,24.166,51.658,14.127,14.127,0,0,0,42.709,30.47Z" fill="#42a5f5" fill-rule="evenodd"/>
            <path id="Path_1245270" data-name="Path 1245270" d="M34.319,52.5A10.661,10.661,0,1,0,23.658,41.836,10.682,10.682,0,0,0,34.319,52.5Z" fill="#e6f8ff" fill-rule="evenodd"/>
            <path id="Path_1245271" data-name="Path 1245271" d="M34.319,31.175a10.639,10.639,0,0,1,8.189,3.835A10.661,10.661,0,0,0,27.492,50.025a10.661,10.661,0,0,1,6.827-18.85Z" fill="#cbf0ff" fill-rule="evenodd"/>
            <path id="Path_1245272" data-name="Path 1245272" d="M33.085,47.825A1.375,1.375,0,1,1,31.71,49.2,1.375,1.375,0,0,1,33.085,47.825Zm1.069-2.714a1.071,1.071,0,0,1-2.137,0l-.656-9.526c0-2.161,3.449-2.161,3.449,0Z" fill="#cbf0ff" fill-rule="evenodd"/>
            <path id="Path_1245273" data-name="Path 1245273" d="M34.319,47.391a1.375,1.375,0,1,1-1.375,1.375A1.375,1.375,0,0,1,34.319,47.391Zm1.069-2.714a1.071,1.071,0,0,1-2.137,0l-.656-9.526c0-2.161,3.449-2.161,3.449,0Z" fill="#fc685b" fill-rule="evenodd"/>
          </g>
        </g>
        <path id="Path_1245274" data-name="Path 1245274" d="M47.491,24.27H18.527a1.067,1.067,0,0,1,0-2.134H47.491a1.067,1.067,0,0,1,0,2.134ZM17.46,17.447a1.067,1.067,0,0,1,1.067-1.067H47.491a1.067,1.067,0,0,1,0,2.134H18.526A1.067,1.067,0,0,1,17.46,17.447ZM33.995,48.58a.309.309,0,1,1,.309-.309A.309.309,0,0,1,33.995,48.58Zm0-14.478a.575.575,0,0,1,.658.525L34,44.109v.011h-.008v-.011l-.653-9.482a.576.576,0,0,1,.657-.525Zm0-2.133a2.68,2.68,0,0,0-2.79,2.687c0,.024,0,.048,0,.073l.655,9.5a2.013,2.013,0,0,0,1.156,1.811,2.443,2.443,0,1,0,1.958,0,2.014,2.014,0,0,0,1.156-1.811l.655-9.5c0-.025,0-.049,0-.073a2.68,2.68,0,0,0-2.792-2.687Zm0,19.324a9.952,9.952,0,1,0-9.952-9.952A9.963,9.963,0,0,0,33.995,51.293Zm0-22.037A12.085,12.085,0,1,0,46.08,41.341,12.1,12.1,0,0,0,33.995,29.256ZM58.06,65.48a1.8,1.8,0,0,1-2.528,0l-6.538-6.537,2.528-2.528,6.538,6.537a1.789,1.789,0,0,1,0,2.528ZM11.137,61.2h37.1L46.264,59.23H18.752A1.065,1.065,0,0,1,18,58.917l-6.03-6.029a1.066,1.066,0,0,1-.312-.754V10.756a1.067,1.067,0,0,1,1.067-1.067h9.813l-.426-1.971H11.137A1.454,1.454,0,0,0,9.685,9.17V59.748A1.454,1.454,0,0,0,11.137,61.2Zm16.1-53.484H29.9a1.067,1.067,0,0,0,.871-1.683L28.259,2.482a.126.126,0,0,1-.012-.142.124.124,0,0,1,.123-.073h7.868a.125.125,0,0,1,.123.073.129.129,0,0,1-.011.142L33.836,6.034a1.067,1.067,0,0,0,.871,1.683h5.606l-.7,3.259a.406.406,0,0,1-.408.329h-13.8A.405.405,0,0,1,25,10.976l-.7-3.259ZM47.826,57.1l2.189-2.188-.692-.692L46.8,56.744l.353.352ZM33.995,54.289A12.948,12.948,0,1,0,21.048,41.341,12.963,12.963,0,0,0,33.995,54.289Zm12.138.1-1.944-1.944c.289-.265.567-.541.835-.828l1.941,1.941Zm-27.38-3.323a1.067,1.067,0,0,1,1.067,1.067V57.1H44.37a1.341,1.341,0,0,1-.048-.352,1.294,1.294,0,0,1,.306-.841l-2.12-2.12a15.1,15.1,0,1,1,3.862-3.833l2.105,2.1a1.307,1.307,0,0,1,1.773.071l.568.568V11.822H41.575A2.53,2.53,0,0,1,39.2,13.438h-13.8a2.531,2.531,0,0,1-2.374-1.616H13.791V51.066h4.962Zm-1.067,4.522L15.3,53.2h2.387ZM54.922,9.17A1.454,1.454,0,0,0,53.47,7.717H42.5L42.07,9.688h9.815a1.068,1.068,0,0,1,1.067,1.067v44.07L54.922,56.8V9.17Zm4.647,52.274-2.514-2.513V9.17A3.589,3.589,0,0,0,53.47,5.584h-16.7l1.323-1.871A2.268,2.268,0,0,0,36.238.134H28.369a2.268,2.268,0,0,0-1.853,3.579l1.322,1.871h-16.7A3.59,3.59,0,0,0,7.551,9.17V59.748a3.591,3.591,0,0,0,3.586,3.586H50.369l3.655,3.654a3.921,3.921,0,1,0,5.544-5.545Z" fill-rule="evenodd"/>
      </g>
    </g>
  </g>
</svg>
