<svg xmlns="http://www.w3.org/2000/svg" xmlns:xlink="http://www.w3.org/1999/xlink" width="110" height="110" viewBox="0 0 110 110">
  <defs>
    <clipPath id="clip-path">
      <rect id="Rectangle_411116" data-name="Rectangle 411116" width="71" height="68" transform="translate(764.051 5657.008)" fill="#fff" stroke="#707070" stroke-width="1"/>
    </clipPath>
  </defs>
  <g id="Group_1205076" data-name="Group 1205076" transform="translate(-745 -5636.008)">
    <circle id="Ellipse_12824" data-name="Ellipse 12824" cx="55" cy="55" r="55" transform="translate(745 5636.008)" fill="#f5ae5c"/>
    <g id="Mask_Group_1099373" data-name="Mask Group 1099373" clip-path="url(#clip-path)">
      <g id="comparison_12072195" transform="translate(764.332 5655.556)">
        <g id="Group_1205075" data-name="Group 1205075">
          <path id="Path_1245398" data-name="Path 1245398" d="M27.3,35.535c.877,0,1.767-.735,1.594-1.594L25.7,18.053H8.956L5.764,33.941c-.173.86.717,1.594,1.594,1.594Z" fill="#d65154" fill-rule="evenodd"/>
          <path id="Path_1245399" data-name="Path 1245399" d="M20.719,18.727H8.82L5.764,33.941c-.173.86.717,1.594,1.594,1.594H18.895l1.823-16.808Z" fill="#f24c4e" fill-rule="evenodd"/>
          <path id="Path_1245400" data-name="Path 1245400" d="M27.3,35.535c.877,0,1.767-.735,1.594-1.594L25.7,18.053H21.635l-1.9,17.483Z" fill="#ebcb68" fill-rule="evenodd"/>
          <path id="Path_1245401" data-name="Path 1245401" d="M27.3,35.535c.521,0,.655-.617.651-.637L24.755,19.01H21.562L19.769,35.537H27.3Z" fill="#293185" fill-rule="evenodd"/>
          <path id="Path_1245402" data-name="Path 1245402" d="M27.3,35.535c.581,0,.764-.356.651-.92L24.755,18.727H21.562L19.739,35.535Z" fill="#ffe177" fill-rule="evenodd"/>
          <path id="Path_1245403" data-name="Path 1245403" d="M55.931,32.685l-.018,6.089a3.109,3.109,0,0,1-2.429,3.279L19.739,48.131a2.877,2.877,0,0,1-3.486-2.6l.007-6.087h2.15l0,6.14c.051.284.569.5.953.433L53.1,39.939c.492-.089.658-.7.659-1.164l.018-6.089Z" fill="#00466c" fill-rule="evenodd"/>
          <path id="Path_1245404" data-name="Path 1245404" d="M8.025,35.535H26.647a.219.219,0,0,1,.218.218v1.955a2.179,2.179,0,0,1-2.173,2.173H9.98a2.179,2.179,0,0,1-2.173-2.173V35.753a.219.219,0,0,1,.218-.218Z" fill="#00466c" fill-rule="evenodd"/>
          <path id="Path_1245405" data-name="Path 1245405" d="M45.545,28.778H64.167a.219.219,0,0,1,.218.218v1.955a2.179,2.179,0,0,1-2.173,2.173H47.5a2.179,2.179,0,0,1-2.173-2.173V29a.219.219,0,0,1,.218-.218Z" fill="#00466c" fill-rule="evenodd"/>
          <path id="Path_1245406" data-name="Path 1245406" d="M59.111,28.778,60.989,8.83H63.76V26.695a2,2,0,0,1-1.878,2.084Z" fill="#ebcb68" fill-rule="evenodd"/>
          <path id="Path_1245407" data-name="Path 1245407" d="M59.111,28.778,60.9,10.435h1.745V27.654a2.109,2.109,0,0,1-.282,1.057,1.771,1.771,0,0,1-.484.069H59.111Z" fill="#ffe177" fill-rule="evenodd"/>
          <path id="Path_1245408" data-name="Path 1245408" d="M60.989,8.83V26.695a1.955,1.955,0,0,1-1.778,2.084H48.531a1.954,1.954,0,0,1-1.778-2.084V8.83H60.991Z" fill="#d65154" fill-rule="evenodd"/>
          <path id="Path_1245409" data-name="Path 1245409" d="M59.662,28.515a1.626,1.626,0,0,1-.881.263H48.413a1.913,1.913,0,0,1-1.788-2.008V10.435H59.837V27.654A2.194,2.194,0,0,1,59.662,28.515Z" fill="#f24c4e" fill-rule="evenodd"/>
          <path id="Path_1245410" data-name="Path 1245410" d="M35.132,44.036a1.889,1.889,0,0,1,3.452,0l7.16,22.191c.218.673.683,1.785-1.316,1.785H29.288c-2,0-1.533-1.112-1.316-1.785Z" fill="#434a8f" fill-rule="evenodd"/>
          <path id="Path_1245411" data-name="Path 1245411" d="M35.132,44.036a1.586,1.586,0,0,1,.285-.528,2.029,2.029,0,0,1,.674-.088,1.664,1.664,0,0,1,1.726,1.121l7.16,22.191a1.9,1.9,0,0,1,.147,1.219,3.535,3.535,0,0,1-.7.06H29.288c-2,0-1.533-1.112-1.316-1.785Z" fill="#5259a1" fill-rule="evenodd"/>
        </g>
        <path id="Path_1245412" data-name="Path 1245412" d="M52.848,16.7c0,.794.276.99,1.84,1.312,1.261.259,3.372.694,3.372,3.191A3.29,3.29,0,0,1,55.453,24.3v.5a.96.96,0,0,1-1.919,0v-.5a3.289,3.289,0,0,1-2.6-3.094.96.96,0,0,1,1.919,0,1.693,1.693,0,0,0,3.291,0c0-.794-.276-.99-1.84-1.312-1.261-.259-3.372-.694-3.372-3.191a3.289,3.289,0,0,1,2.6-3.094V13.1a.96.96,0,1,1,1.919,0v.507A3.29,3.29,0,0,1,58.059,16.7a.96.96,0,0,1-1.919,0,1.693,1.693,0,0,0-3.291,0ZM66.127,28.687v1.985a3.313,3.313,0,0,1-3.309,3.309H56.435l-.015,4.65a3.177,3.177,0,0,1-2.476,3.335l-14.52,2.616c.027.064.053.13.075.2l7.356,22.256a1.653,1.653,0,0,1-.81,1.955,3.411,3.411,0,0,1-1.79.462H29.306A3.41,3.41,0,0,1,27.524,69a1.654,1.654,0,0,1-.817-1.953l4.358-13.184L33.793,45.6,19.642,48.145a3.22,3.22,0,0,1-2.607-.684,2.536,2.536,0,0,1-.947-1.963l.007-4.646H9.717a3.313,3.313,0,0,1-3.309-3.309V36.355A2.9,2.9,0,0,1,4.851,35.4a2.256,2.256,0,0,1-.5-1.9L7.6,17.345a1.1,1.1,0,0,1,1.076-.881h1.989l.026-2.2a4.166,4.166,0,0,1,2.11-3.7,4.679,4.679,0,0,1,4.128-.2,5.47,5.47,0,0,1,2.152-.384A4.262,4.262,0,0,1,23.528,14.3l-.051,2.16H25.7a1.1,1.1,0,0,1,1.076.881L30.016,33.5a2.257,2.257,0,0,1-.5,1.9,2.9,2.9,0,0,1-1.541.953v1.191a3.311,3.311,0,0,1-3.305,3.309H18.289L18.282,45.5a.348.348,0,0,0,.159.277,1.043,1.043,0,0,0,.81.208l34.306-6.178c.631-.112.666-1,.666-1.182l.015-4.642H47.859a3.311,3.311,0,0,1-3.305-3.309V28.689a1.32,1.32,0,0,1,1.319-1.319h.3a2.9,2.9,0,0,1-.1-.728V8.425a1.1,1.1,0,0,1,1.1-1.1h2.559V6.155a4.582,4.582,0,0,1,4.757-4.7,5.179,5.179,0,0,1,1.829.334,5.179,5.179,0,0,1,1.829-.334,4.582,4.582,0,0,1,4.757,4.7V7.327h1.6a1.1,1.1,0,0,1,1.1,1.1V26.638a2.913,2.913,0,0,1-.143.9,1.32,1.32,0,0,1,.672,1.149ZM24.8,18.659H22.551L20.862,34.237h6.459a.631.631,0,0,0,.544-.3ZM18.89,12.18a4.444,4.444,0,0,1,.483,2.111l-.025,2.173h1.936l.052-2.211c.045-1.962-2.063-2.067-2.3-2.073H18.89Zm-2.518,4.284h.78l.026-2.2a2.139,2.139,0,0,0-.318-1.212,1.985,1.985,0,0,0-.436,1.25l-.051,2.16Zm-3.511,0h1.315l.052-2.211a4.3,4.3,0,0,1,.546-2.055,2.383,2.383,0,0,0-.9.281,1.96,1.96,0,0,0-.991,1.811ZM6.507,33.931a.626.626,0,0,0,.544.307h11.6L20.342,18.66H19.321l-.008.676a1.1,1.1,0,0,1-1.1,1.086H18.2a1.1,1.1,0,0,1-1.084-1.11l.007-.65H12.834l-.007.648a1.1,1.1,0,0,1-1.1,1.084h-.014a1.1,1.1,0,0,1-1.084-1.11l.007-.622H9.573L6.5,33.934Zm3.211,4.725H24.675a1.112,1.112,0,0,0,1.109-1.113V36.435H8.6v1.109A1.114,1.114,0,0,0,9.718,38.657Zm27.7,6.813a.733.733,0,0,0-.681-.33.573.573,0,0,0-.588.333l-3,9.074L28.958,67.225a1.816,1.816,0,0,0,.347.032H44.254a1.852,1.852,0,0,0,.351-.032l-7.19-21.754ZM63.4,9.523h-.5V26.638a2.922,2.922,0,0,1-.092.714.74.74,0,0,0,.589-.714ZM59.942,4.278a2.637,2.637,0,0,0-1.326-.592,4.8,4.8,0,0,1,.633,2.47V7.329h1.461V6.157A2.376,2.376,0,0,0,59.942,4.278ZM55.59,7.329h1.465V6.157a2.384,2.384,0,0,0-.731-1.841,2.369,2.369,0,0,0-.733,1.841V7.329Zm-3.656,0h1.461V6.157a4.792,4.792,0,0,1,.633-2.468,2.348,2.348,0,0,0-2.093,2.468V7.329ZM49.01,27.368h10.97a.739.739,0,0,0,.732-.728V9.523H59.25v1.335a1.1,1.1,0,0,1-2.2,0V9.523H51.932v1.335a1.1,1.1,0,0,1-2.2,0V9.523H48.275V26.638a.74.74,0,0,0,.732.728Zm14.923,2.2H46.753v1.109a1.112,1.112,0,0,0,1.109,1.113H62.82a1.114,1.114,0,0,0,1.113-1.113Zm-49.761.931A1.5,1.5,0,0,1,12.528,29.2a.96.96,0,1,0-1.919,0,3.289,3.289,0,0,0,2.6,3.094V32.8a.96.96,0,0,0,1.919,0V32.3A3.29,3.29,0,0,0,17.739,29.2c0-2.5-2.111-2.932-3.372-3.191-1.564-.322-1.84-.518-1.84-1.312A1.521,1.521,0,0,1,14.171,23.4,1.525,1.525,0,0,1,15.818,24.7a.96.96,0,0,0,1.919,0A3.29,3.29,0,0,0,15.13,21.6v-.5a.96.96,0,1,0-1.919,0v.5a3.289,3.289,0,0,0-2.6,3.094c0,2.5,2.111,2.932,3.372,3.191,1.564.322,1.84.518,1.84,1.312A1.5,1.5,0,0,1,14.172,30.5Z"/>
      </g>
    </g>
  </g>
</svg>
