<svg xmlns="http://www.w3.org/2000/svg" xmlns:xlink="http://www.w3.org/1999/xlink" width="110" height="110" viewBox="0 0 110 110">
  <defs>
    <clipPath id="clip-path">
      <rect id="Rectangle_411109" data-name="Rectangle 411109" width="71" height="68" transform="translate(765.52 4283.491)" fill="#fff" stroke="#707070" stroke-width="1"/>
    </clipPath>
  </defs>
  <g id="Group_1205068" data-name="Group 1205068" transform="translate(-744.782 -4262.491)">
    <circle id="Ellipse_12740" data-name="Ellipse 12740" cx="55" cy="55" r="55" transform="translate(744.782 4262.491)" fill="#f5ae5c"/>
    <g id="Mask_Group_1099371" data-name="Mask Group 1099371" clip-path="url(#clip-path)">
      <g id="report_3424364" transform="translate(765.923 4282.395)">
        <g id="Group_1205066" data-name="Group 1205066">
          <g id="Group_1205047" data-name="Group 1205047">
            <circle id="Ellipse_13055" data-name="Ellipse 13055" cx="18.645" cy="18.645" r="18.645" transform="translate(30.71 2.194)" fill="#fcd770"/>
          </g>
          <g id="Group_1205048" data-name="Group 1205048">
            <circle id="Ellipse_13056" data-name="Ellipse 13056" cx="14.258" cy="14.258" r="14.258" transform="translate(35.097 6.581)" fill="#69d6f4"/>
          </g>
          <g id="Group_1205049" data-name="Group 1205049">
            <path id="Path_1245363" data-name="Path 1245363" d="M6.581,42.862a5.039,5.039,0,0,0,.11.987l-.11.022H2.194V4.387H40.57a18.789,18.789,0,0,0-5.429,4.387H6.581v34Z" fill="#ccd1d9"/>
          </g>
          <g id="Group_1205050" data-name="Group 1205050">
            <path id="Path_1245364" data-name="Path 1245364" d="M6.581,8.774h28.56A18.543,18.543,0,0,0,30.71,20.839c0,.373.011.757.033,1.13l-4.42-4.42L6.581,35.1Z" fill="#e6e9ed"/>
          </g>
          <g id="Group_1205051" data-name="Group 1205051">
            <path id="Path_1245365" data-name="Path 1245365" d="M35.415,33.221a18.265,18.265,0,0,0,4.113,3.455l-.044.066v1.733a6,6,0,0,0-1.1-.088l-3.29.746V32.9Z" fill="#ff826e"/>
          </g>
          <g id="Group_1205052" data-name="Group 1205052">
            <path id="Path_1245366" data-name="Path 1245366" d="M32.958,40.635a7.632,7.632,0,0,0-2.248,5.429V28.516L35.1,32.9v6.23a7.533,7.533,0,0,0-2.139,1.5Z" fill="#ff826e"/>
          </g>
          <g id="Group_1205053" data-name="Group 1205053">
            <path id="Path_1245367" data-name="Path 1245367" d="M30.71,28.516V43.871H26.323V24.129Z" fill="#ff826e"/>
          </g>
          <g id="Group_1205054" data-name="Group 1205054">
            <path id="Path_1245368" data-name="Path 1245368" d="M26.323,24.129V43.871H21.935l-.11-.022a5.039,5.039,0,0,0,.11-.987V27.968Z" fill="#ff826e"/>
          </g>
          <g id="Group_1205055" data-name="Group 1205055">
            <path id="Path_1245369" data-name="Path 1245369" d="M21.935,27.968V42.862a4.256,4.256,0,0,0-1.9-3.543,5.386,5.386,0,0,0-2.49-.9V31.806Z" fill="#ff826e"/>
          </g>
          <g id="Group_1205056" data-name="Group 1205056">
            <path id="Path_1245370" data-name="Path 1245370" d="M17.548,31.806V38.42a4.972,4.972,0,0,0-.57-.033h-5.44a5.327,5.327,0,0,0-1.9.34Z" fill="#ff826e"/>
          </g>
          <g id="Group_1205057" data-name="Group 1205057">
            <path id="Path_1245371" data-name="Path 1245371" d="M54.839,46.065V68H50.452V66.9a8.765,8.765,0,0,0-5.166-8,5.2,5.2,0,0,0,2.972-4.694,5.259,5.259,0,0,0-.866-2.874l-.592-.877a4.379,4.379,0,0,1-.735-2.435V46.065Z" fill="#969faa"/>
          </g>
          <g id="Group_1205058" data-name="Group 1205058">
            <path id="Path_1245372" data-name="Path 1245372" d="M46.065,46.065a7.654,7.654,0,0,0-6.581-7.59V36.742l.044-.066a18.426,18.426,0,0,0,9.827,2.808,18.7,18.7,0,0,0,4.025-.439,5.451,5.451,0,0,1,1.459,3.729v3.29Z" fill="#ccd1d9"/>
          </g>
          <g id="Group_1205059" data-name="Group 1205059">
            <path id="Path_1245373" data-name="Path 1245373" d="M43.871,68H26.323V66.9a8.765,8.765,0,0,1,5.166-8,4.869,4.869,0,0,0,.79.3l1.634.472a4.473,4.473,0,0,1,3.027,2.9,1.527,1.527,0,0,0,2.9,0,4.473,4.473,0,0,1,3.027-2.9L44.5,59.2a4.869,4.869,0,0,0,.79-.3,8.765,8.765,0,0,1,5.166,8V68Z" fill="#fcd770"/>
          </g>
          <g id="Group_1205060" data-name="Group 1205060">
            <path id="Path_1245374" data-name="Path 1245374" d="M19.742,68H2.194V66.9a8.772,8.772,0,0,1,8.774-8.774h6.581A8.772,8.772,0,0,1,26.323,66.9V68Z" fill="#b4dd7f"/>
          </g>
          <g id="Group_1205061" data-name="Group 1205061">
            <path id="Path_1245375" data-name="Path 1245375" d="M10.968,53.742h6.581v4.387H10.968Z" fill="#a0d468"/>
          </g>
          <g id="Group_1205062" data-name="Group 1205062">
            <path id="Path_1245376" data-name="Path 1245376" d="M21.935,42.862a5.039,5.039,0,0,1-.11.987,4.65,4.65,0,0,1-.34.921l-.647,1.294.691,1.382a3.9,3.9,0,0,1,.406,1.722,3.842,3.842,0,0,1-2.128,3.444l-2.259,1.13H10.968l-2.259-1.13a3.842,3.842,0,0,1-2.128-3.444,3.9,3.9,0,0,1,.406-1.722l.691-1.382L7.03,44.77a4.65,4.65,0,0,1-.34-.921,5.039,5.039,0,0,1-.11-.987v-.088a4.269,4.269,0,0,1,1.9-3.455,5.522,5.522,0,0,1,3.06-.932h5.44a4.972,4.972,0,0,1,.57.033,5.386,5.386,0,0,1,2.49.9,4.256,4.256,0,0,1,1.9,3.543Z" fill="#656d78"/>
          </g>
          <g id="Group_1205063" data-name="Group 1205063">
            <path id="Path_1245377" data-name="Path 1245377" d="M39.484,38.475a7.654,7.654,0,0,1,6.581,7.59v1.963a4.379,4.379,0,0,0,.735,2.435l.592.877a5.259,5.259,0,0,1,.866,2.874,5.2,5.2,0,0,1-2.972,4.694,4.869,4.869,0,0,1-.79.3l-1.634.472a4.473,4.473,0,0,0-3.027,2.9,1.527,1.527,0,0,1-2.9,0,4.473,4.473,0,0,0-3.027-2.9L32.278,59.2a4.869,4.869,0,0,1-.79-.3,5.284,5.284,0,0,1-1.93-1.568,5.2,5.2,0,0,1-.175-6l.592-.877a4.379,4.379,0,0,0,.735-2.435V46.065a7.632,7.632,0,0,1,2.248-5.429,7.533,7.533,0,0,1,2.139-1.5l3.29-.746A6,6,0,0,1,39.484,38.475Z" fill="#b27946"/>
          </g>
          <g id="Group_1205064" data-name="Group 1205064">
            <path id="Path_1245378" data-name="Path 1245378" d="M68,2.194v9.871l-3.29-3.29-.625.625-3.137,3.137-19.9,19.9a14.214,14.214,0,0,1-3.729-3.948L57,8.807l3.159-3.159.165-.165-3.29-3.29Z" fill="#ff826e"/>
          </g>
          <g id="Group_1205065" data-name="Group 1205065">
            <path id="Path_1245379" data-name="Path 1245379" d="M30.743,21.968a18.5,18.5,0,0,0,4.672,11.253L35.1,32.9,30.71,28.516l-4.387-4.387-4.387,3.839-4.387,3.839L9.641,38.727a5.281,5.281,0,0,0-1.163.592,4.269,4.269,0,0,0-1.9,3.455V35.1L26.323,17.548Z" fill="#ff826e"/>
          </g>
        </g>
        <g id="Group_1205067" data-name="Group 1205067">
          <path id="Path_1245380" data-name="Path 1245380" d="M69.1,1.1H54.385l.91.91A19.675,19.675,0,0,0,40.351,3.29H1.1V43.871H3.29V5.484H36.973a19.773,19.773,0,0,0-2.291,2.194H5.484v35.1h.005c0,.03-.005.059-.005.09a5.4,5.4,0,0,0,.566,2.4l.4.8-.445.891a4.981,4.981,0,0,0-.522,2.212,4.922,4.922,0,0,0,2.735,4.427l1.652.826V57.1A9.883,9.883,0,0,0,1.1,66.9V69.1H55.935V42.774a6.544,6.544,0,0,0-.786-3.064,19.747,19.747,0,0,0,12.4-26.55L69.1,14.712ZM66.9,3.29V9.417L64.71,7.223,40.963,30.969A13.218,13.218,0,0,1,38.752,28.6L61.873,5.484,59.68,3.29ZM60.758,14.277A13.145,13.145,0,0,1,42.8,32.235ZM36.194,20.839A13.151,13.151,0,0,1,55.2,9.054L37.578,26.678a13.06,13.06,0,0,1-1.384-5.839ZM32.951,9.871a19.612,19.612,0,0,0-3.263,9.491l-3.321-3.321L7.677,32.654V9.871Zm12.938,41.2.586.879a4.091,4.091,0,0,1-2.281,6.2l-1.634.467a5.591,5.591,0,0,0-3.77,3.609.442.442,0,0,1-.806,0,5.589,5.589,0,0,0-3.77-3.609l-1.635-.467a4.093,4.093,0,0,1-2.279-6.2l.586-.879a5.474,5.474,0,0,0,.921-3.041V46.065a6.581,6.581,0,1,1,13.161,0v1.962a5.475,5.475,0,0,0,.921,3.042Zm-33.825,3.77h4.387v2.194H12.065ZM16.452,37.29H12.946l3.505-3.067ZM18.645,32.3l2.194-1.919v8.164c-.066-.048-.126-.1-.194-.148a6.6,6.6,0,0,0-2-.884Zm3.865,14.65-.445-.889.4-.8a5.4,5.4,0,0,0,.566-2.4v-14.4l2.194-1.919V43.871h2.194V26.777l2.194,2.194V48.027a3.279,3.279,0,0,1-.553,1.825l-.586.879a6.26,6.26,0,0,0,.981,8.1,9.867,9.867,0,0,0-3.125,3.59,9.881,9.881,0,0,0-7.685-5.32V54.42l1.652-.826a4.922,4.922,0,0,0,2.735-4.427,4.989,4.989,0,0,0-.522-2.213Zm9.3-6.674V31.164L34,33.357v5.12A8.849,8.849,0,0,0,31.806,40.28Zm6.581-2.99a8.722,8.722,0,0,0-2.194.288V35.511a19.9,19.9,0,0,0,2.279,1.783C38.444,37.295,38.416,37.29,38.387,37.29ZM26.372,22.628,9.031,37.8a6.552,6.552,0,0,0-1.158.6c-.069.045-.129.1-.2.147V35.59l18.6-16.534L29.7,22.474a19.587,19.587,0,0,0,.838,4.317ZM9.2,51.632a2.739,2.739,0,0,1-1.523-2.464,2.782,2.782,0,0,1,.291-1.233l.936-1.87-.892-1.783a3.168,3.168,0,0,1,1.077-4.054,4.4,4.4,0,0,1,2.453-.744h5.431a4.407,4.407,0,0,1,2.453.743A3.17,3.17,0,0,1,20.5,44.281l-.892,1.783.936,1.87a2.782,2.782,0,0,1,.291,1.233,2.739,2.739,0,0,1-1.523,2.464L17.29,52.645H11.228ZM20.839,66.9V64.71H18.645V66.9H9.871V64.71H7.677V66.9H3.29a7.686,7.686,0,0,1,7.677-7.677h6.581A7.686,7.686,0,0,1,25.226,66.9Zm10.73-6.8c.137.049.267.114.408.155l1.634.467A3.4,3.4,0,0,1,35.9,62.92a2.619,2.619,0,0,0,4.969,0,3.4,3.4,0,0,1,2.291-2.194l1.634-.467c.141-.041.271-.1.408-.155a7.686,7.686,0,0,1,4.15,6.8H44.968V64.71H42.774V66.9H34V64.71H31.806V66.9H27.419a7.682,7.682,0,0,1,4.149-6.8Zm19.98,6.8a9.883,9.883,0,0,0-4.229-8.076,6.26,6.26,0,0,0,.981-8.1l-.586-.879a3.279,3.279,0,0,1-.553-1.825v-.865h6.581V66.9Zm2.194-24.129v2.194H47.086a8.743,8.743,0,0,0-2.365-4.96,18.975,18.975,0,0,0,8.2.234A4.352,4.352,0,0,1,53.742,42.774Zm-4.387-4.387a17.548,17.548,0,1,1,9.08-32.567L56.827,7.428a15.378,15.378,0,1,0,5.529,5.251l1.587-1.587a17.36,17.36,0,0,1,2.96,9.746A17.569,17.569,0,0,1,49.355,38.387Z"/>
          <path id="Path_1245381" data-name="Path 1245381" d="M49.355,27.419h2.194v2.194H49.355Z"/>
          <path id="Path_1245382" data-name="Path 1245382" d="M53.742,27.419h2.194v2.194H53.742Z"/>
        </g>
      </g>
    </g>
  </g>
</svg>
