<svg xmlns="http://www.w3.org/2000/svg" xmlns:xlink="http://www.w3.org/1999/xlink" width="110" height="110" viewBox="0 0 110 110">
  <defs>
    <clipPath id="clip-path">
      <rect id="Rectangle_411110" data-name="Rectangle 411110" width="71" height="68" transform="translate(1184.5 4283.491)" fill="#fff" stroke="#707070" stroke-width="1"/>
    </clipPath>
  </defs>
  <g id="Group_1205046" data-name="Group 1205046" transform="translate(-1162.782 -4262.491)">
    <circle id="Ellipse_12740" data-name="Ellipse 12740" cx="55" cy="55" r="55" transform="translate(1162.782 4262.491)" fill="#f5ae5c"/>
    <g id="Mask_Group_1099370" data-name="Mask Group 1099370" clip-path="url(#clip-path)">
      <g id="Layer_31" transform="translate(1186.555 4283.491)">
        <g id="Group_1205045" data-name="Group 1205045">
          <g id="Group_1204906" data-name="Group 1204906">
            <g id="Group_1204905" data-name="Group 1204905">
              <circle id="Ellipse_13050" data-name="Ellipse 13050" cx="24.637" cy="24.637" r="24.637" transform="translate(9.363 18.063)" fill="#5290db"/>
            </g>
          </g>
          <g id="Group_1204908" data-name="Group 1204908">
            <g id="Group_1204907" data-name="Group 1204907">
              <path id="Path_1245306" data-name="Path 1245306" d="M37.52,7.3H30.48a1.132,1.132,0,0,0-1.129,1.129V12.02a1.132,1.132,0,0,0,1.129,1.129h7.039a1.132,1.132,0,0,0,1.129-1.129V8.434A1.132,1.132,0,0,0,37.52,7.3Z" fill="#5290db"/>
            </g>
          </g>
          <g id="Group_1204910" data-name="Group 1204910">
            <g id="Group_1204909" data-name="Group 1204909">
              <path id="Path_1245307" data-name="Path 1245307" d="M31.078,13.148v5.087a24.734,24.734,0,0,1,5.844,0V13.148Z" fill="#3a70bf"/>
            </g>
          </g>
          <g id="Group_1204912" data-name="Group 1204912">
            <g id="Group_1204911" data-name="Group 1204911">
              <path id="Path_1245308" data-name="Path 1245308" d="M21.048,16.491l-1.333-1.817a.712.712,0,0,0-.992-.152l-3.566,2.616a.712.712,0,0,0-.152.992l1.333,1.817a.712.712,0,0,0,.992.152L20.9,17.482a.711.711,0,0,0,.152-.991Z" fill="#5290db"/>
            </g>
          </g>
          <g id="Group_1204914" data-name="Group 1204914">
            <g id="Group_1204913" data-name="Group 1204913">
              <path id="Path_1245309" data-name="Path 1245309" d="M52.842,17.137l-3.566-2.616a.711.711,0,0,0-.992.152l-1.333,1.817a.711.711,0,0,0,.152.992L50.671,20.1a.711.711,0,0,0,.992-.152l1.333-1.817a.712.712,0,0,0-.152-.992Z" fill="#5290db"/>
            </g>
          </g>
          <g id="Group_1204916" data-name="Group 1204916">
            <g id="Group_1204915" data-name="Group 1204915">
              <path id="Path_1245310" data-name="Path 1245310" d="M20.593,17.7l-2.961,2.172,2.039,2.78A24.634,24.634,0,0,1,22.82,20.74Z" fill="#3a70bf"/>
            </g>
          </g>
          <g id="Group_1204918" data-name="Group 1204918">
            <g id="Group_1204917" data-name="Group 1204917">
              <path id="Path_1245311" data-name="Path 1245311" d="M47.407,17.7,45.18,20.74a24.616,24.616,0,0,1,3.148,1.916l2.039-2.78Z" fill="#3a70bf"/>
            </g>
          </g>
          <g id="Group_1204920" data-name="Group 1204920">
            <g id="Group_1204919" data-name="Group 1204919">
              <circle id="Ellipse_13051" data-name="Ellipse 13051" cx="19.806" cy="19.806" r="19.806" transform="translate(14.194 22.893)" fill="#fcdd86"/>
            </g>
          </g>
          <g id="Group_1204922" data-name="Group 1204922">
            <g id="Group_1204921" data-name="Group 1204921">
              <circle id="Ellipse_13052" data-name="Ellipse 13052" cx="17.15" cy="17.15" r="17.15" transform="translate(16.85 25.55)" fill="#edf4fc"/>
            </g>
          </g>
          <g id="Group_1204924" data-name="Group 1204924">
            <g id="Group_1204923" data-name="Group 1204923">
              <path id="Path_1245312" data-name="Path 1245312" d="M35.237,32.266c0,.105.007.21.007.316v7.906a2.54,2.54,0,1,1-2.488,0V32.582c0-.105,0-.211.007-.316a10.5,10.5,0,0,0-4.032,19.52,5.421,5.421,0,0,1,10.537,0,10.5,10.5,0,0,0-4.032-19.52Z" fill="#c7d7e5"/>
            </g>
          </g>
          <g id="Group_1204926" data-name="Group 1204926">
            <g id="Group_1204925" data-name="Group 1204925">
              <circle id="Ellipse_13053" data-name="Ellipse 13053" cx="5.428" cy="5.428" r="5.428" transform="translate(28.572 47.642)" fill="#dae6f1"/>
            </g>
          </g>
          <g id="Group_1204928" data-name="Group 1204928">
            <g id="Group_1204927" data-name="Group 1204927">
              <path id="Path_1245313" data-name="Path 1245313" d="M35.79,52.353l-1.4-2.029a.493.493,0,0,0-.812,0L32.216,52.3A2.219,2.219,0,0,0,34,55.791,2.193,2.193,0,0,0,35.79,52.353Z" fill="#fc657e"/>
            </g>
          </g>
          <g id="Group_1204930" data-name="Group 1204930">
            <g id="Group_1204929" data-name="Group 1204929">
              <path id="Path_1245314" data-name="Path 1245314" d="M34.366,27.739a.391.391,0,0,0-.732,0,13.79,13.79,0,0,0-.878,4.842v7.906a2.524,2.524,0,0,1,2.488,0V32.582a13.784,13.784,0,0,0-.878-4.842Z" fill="#fc657e"/>
            </g>
          </g>
          <g id="Group_1204932" data-name="Group 1204932">
            <g id="Group_1204931" data-name="Group 1204931">
              <circle id="Ellipse_13054" data-name="Ellipse 13054" cx="2.54" cy="2.54" r="2.54" transform="translate(31.46 40.159)" fill="#f98fa6"/>
            </g>
          </g>
          <g id="Group_1204934" data-name="Group 1204934">
            <g id="Group_1204933" data-name="Group 1204933">
              <path id="Path_1245315" data-name="Path 1245315" d="M48.928,5.817h-.611V5.206a.856.856,0,0,0-.85-.85.839.839,0,0,0-.85.85v.611h-.611a.856.856,0,0,0-.85.85.839.839,0,0,0,.85.85h.611v.611a.856.856,0,0,0,.85.85.839.839,0,0,0,.85-.85V7.517h.611a.856.856,0,0,0,.85-.85.839.839,0,0,0-.85-.85Z" fill="#70d6f9"/>
            </g>
          </g>
          <g id="Group_1204936" data-name="Group 1204936">
            <g id="Group_1204935" data-name="Group 1204935">
              <path id="Path_1245316" data-name="Path 1245316" d="M11.9,59.195a2.948,2.948,0,0,1-2.364-2.311c0-.053-.106-.053-.106,0a2.948,2.948,0,0,1-2.364,2.311c-.053,0-.053.08,0,.106A2.948,2.948,0,0,1,9.43,61.612c0,.053.106.053.106,0A2.948,2.948,0,0,1,11.9,59.3c.053-.027.053-.106,0-.106Z" fill="#fc657e"/>
            </g>
          </g>
          <g id="Group_1204938" data-name="Group 1204938">
            <g id="Group_1204937" data-name="Group 1204937">
              <path id="Path_1245317" data-name="Path 1245317" d="M59.84,25.879a1.807,1.807,0,0,1-1.45-1.417c0-.033-.065-.033-.065,0a1.807,1.807,0,0,1-1.45,1.417c-.033,0-.033.049,0,.065a1.808,1.808,0,0,1,1.45,1.417c0,.033.065.033.065,0a1.807,1.807,0,0,1,1.45-1.417C59.873,25.928,59.873,25.879,59.84,25.879Z" fill="#f5c84c"/>
            </g>
          </g>
          <g id="Group_1204940" data-name="Group 1204940">
            <g id="Group_1204939" data-name="Group 1204939">
              <path id="Path_1245318" data-name="Path 1245318" d="M14.291,64.945a.9.9,0,1,0,.9.9A.9.9,0,0,0,14.291,64.945Z" fill="#b2e26d"/>
            </g>
          </g>
          <g id="Group_1204942" data-name="Group 1204942">
            <g id="Group_1204941" data-name="Group 1204941">
              <path id="Path_1245319" data-name="Path 1245319" d="M53.6,10.227a.9.9,0,1,0,.9.9A.9.9,0,0,0,53.6,10.227Z" fill="#87d147"/>
            </g>
          </g>
          <g id="Group_1204946" data-name="Group 1204946">
            <g id="Group_1204945" data-name="Group 1204945">
              <g id="Group_1204944" data-name="Group 1204944">
                <g id="Group_1204943" data-name="Group 1204943">
                  <path id="Path_1245320" data-name="Path 1245320" d="M34,17.4A25.3,25.3,0,1,0,59.3,42.7,25.329,25.329,0,0,0,34,17.4Zm0,49.273A23.973,23.973,0,1,1,57.973,42.7,24,24,0,0,1,34,66.672Z"/>
                </g>
              </g>
            </g>
          </g>
          <g id="Group_1204950" data-name="Group 1204950">
            <g id="Group_1204949" data-name="Group 1204949">
              <g id="Group_1204948" data-name="Group 1204948">
                <g id="Group_1204947" data-name="Group 1204947">
                  <path id="Path_1245321" data-name="Path 1245321" d="M37.52,6.641H30.48a1.8,1.8,0,0,0-1.793,1.793V12.02a1.8,1.8,0,0,0,1.793,1.793h7.039a1.8,1.8,0,0,0,1.793-1.793V8.434A1.8,1.8,0,0,0,37.52,6.641Zm.465,5.379a.465.465,0,0,1-.465.465H30.48a.465.465,0,0,1-.465-.465V8.434a.465.465,0,0,1,.465-.465h7.039a.465.465,0,0,1,.465.465V12.02Z"/>
                </g>
              </g>
            </g>
          </g>
          <g id="Group_1204952" data-name="Group 1204952">
            <g id="Group_1204951" data-name="Group 1204951">
              <path id="Path_1245322" data-name="Path 1245322" d="M36.922,12.75a.664.664,0,0,0-.664.664V17.93a.664.664,0,0,0,1.328,0V13.414A.664.664,0,0,0,36.922,12.75Z"/>
            </g>
          </g>
          <g id="Group_1204954" data-name="Group 1204954">
            <g id="Group_1204953" data-name="Group 1204953">
              <path id="Path_1245323" data-name="Path 1245323" d="M31.078,12.734a.664.664,0,0,0-.664.664V17.93a.664.664,0,0,0,1.328,0V13.4A.664.664,0,0,0,31.078,12.734Z"/>
            </g>
          </g>
          <g id="Group_1204958" data-name="Group 1204958">
            <g id="Group_1204957" data-name="Group 1204957">
              <g id="Group_1204956" data-name="Group 1204956">
                <g id="Group_1204955" data-name="Group 1204955">
                  <path id="Path_1245324" data-name="Path 1245324" d="M21.584,16.1l-1.333-1.817a1.376,1.376,0,0,0-1.92-.3L14.765,16.6a1.375,1.375,0,0,0-.3,1.92L15.8,20.338a1.364,1.364,0,0,0,.9.544,1.4,1.4,0,0,0,.212.016,1.361,1.361,0,0,0,.808-.266l3.567-2.616a1.374,1.374,0,0,0,.3-1.919Zm-1.081.849-3.566,2.616a.051.051,0,0,1-.063-.01L15.54,17.736a.051.051,0,0,1,.01-.063l3.566-2.616a.048.048,0,0,1,.063.01l1.333,1.817a.048.048,0,0,1-.01.064Z"/>
                </g>
              </g>
            </g>
          </g>
          <g id="Group_1204962" data-name="Group 1204962">
            <g id="Group_1204961" data-name="Group 1204961">
              <g id="Group_1204960" data-name="Group 1204960">
                <g id="Group_1204959" data-name="Group 1204959">
                  <path id="Path_1245325" data-name="Path 1245325" d="M53.779,17.5a1.364,1.364,0,0,0-.544-.9l-3.566-2.616a1.375,1.375,0,0,0-1.92.3L46.416,16.1a1.375,1.375,0,0,0,.3,1.92l3.566,2.616a1.361,1.361,0,0,0,.808.266,1.4,1.4,0,0,0,.213-.016,1.364,1.364,0,0,0,.9-.544l1.333-1.817A1.361,1.361,0,0,0,53.779,17.5Zm-1.32.235-1.333,1.817a.051.051,0,0,1-.063.01L47.5,16.947a.048.048,0,0,1-.01-.063l1.333-1.817a.047.047,0,0,1,.038-.018.044.044,0,0,1,.026.008l3.566,2.616a.051.051,0,0,1,.01.063Z"/>
                </g>
              </g>
            </g>
          </g>
          <g id="Group_1204964" data-name="Group 1204964">
            <g id="Group_1204963" data-name="Group 1204963">
              <path id="Path_1245326" data-name="Path 1245326" d="M23.245,20.2l-2-2.722a.664.664,0,1,0-1.071.785l2,2.722a.664.664,0,1,0,1.071-.785Z"/>
            </g>
          </g>
          <g id="Group_1204966" data-name="Group 1204966">
            <g id="Group_1204965" data-name="Group 1204965">
              <path id="Path_1245327" data-name="Path 1245327" d="M20.107,22.127l-1.837-2.5a.664.664,0,0,0-1.071.785l1.837,2.5a.664.664,0,1,0,1.071-.785Z"/>
            </g>
          </g>
          <g id="Group_1204968" data-name="Group 1204968">
            <g id="Group_1204967" data-name="Group 1204967">
              <path id="Path_1245328" data-name="Path 1245328" d="M50.681,19.449a.664.664,0,0,0-.928.143L47.913,22.1a.664.664,0,0,0,1.071.785l1.84-2.509a.664.664,0,0,0-.143-.928Z"/>
            </g>
          </g>
          <g id="Group_1204970" data-name="Group 1204970">
            <g id="Group_1204969" data-name="Group 1204969">
              <path id="Path_1245329" data-name="Path 1245329" d="M47.706,17.3a.664.664,0,0,0-.928.143l-2.022,2.756a.664.664,0,0,0,1.071.785l2.022-2.756A.664.664,0,0,0,47.706,17.3Z"/>
            </g>
          </g>
          <g id="Group_1204972" data-name="Group 1204972">
            <g id="Group_1204971" data-name="Group 1204971">
              <path id="Path_1245330" data-name="Path 1245330" d="M38.383,0H29.617a3.856,3.856,0,0,0-3.852,3.852v8.766a3.856,3.856,0,0,0,3.852,3.852h1.339a.664.664,0,0,0,0-1.328H29.617a2.526,2.526,0,0,1-2.523-2.523V3.852a2.526,2.526,0,0,1,2.523-2.523h8.766a2.526,2.526,0,0,1,2.523,2.523v8.766a2.526,2.526,0,0,1-2.523,2.523h-1.35a.664.664,0,0,0,0,1.328h1.35a3.856,3.856,0,0,0,3.852-3.852V3.852A3.856,3.856,0,0,0,38.383,0Z"/>
            </g>
          </g>
          <g id="Group_1204974" data-name="Group 1204974">
            <g id="Group_1204973" data-name="Group 1204973">
              <path id="Path_1245331" data-name="Path 1245331" d="M34,22.5a.664.664,0,0,0-.664.664v1.063a.664.664,0,0,0,1.328,0V23.159A.664.664,0,0,0,34,22.5Z"/>
            </g>
          </g>
          <g id="Group_1204976" data-name="Group 1204976">
            <g id="Group_1204975" data-name="Group 1204975">
              <path id="Path_1245332" data-name="Path 1245332" d="M34,60.513a.664.664,0,0,0-.664.664v1.063a.664.664,0,0,0,1.328,0V61.177A.664.664,0,0,0,34,60.513Z"/>
            </g>
          </g>
          <g id="Group_1204978" data-name="Group 1204978">
            <g id="Group_1204977" data-name="Group 1204977">
              <path id="Path_1245333" data-name="Path 1245333" d="M29.859,24.679l-.275-1.026A.664.664,0,1,0,28.3,24l.275,1.026a.665.665,0,0,0,.641.492.675.675,0,0,0,.172-.023.665.665,0,0,0,.47-.814Z"/>
            </g>
          </g>
          <g id="Group_1204980" data-name="Group 1204980">
            <g id="Group_1204979" data-name="Group 1204979">
              <path id="Path_1245334" data-name="Path 1245334" d="M39.7,61.4l-.275-1.026a.664.664,0,0,0-1.283.344l.275,1.026a.665.665,0,0,0,.641.492.675.675,0,0,0,.172-.023.665.665,0,0,0,.47-.814Z"/>
            </g>
          </g>
          <g id="Group_1204982" data-name="Group 1204982">
            <g id="Group_1204981" data-name="Group 1204981">
              <path id="Path_1245335" data-name="Path 1245335" d="M25.336,26.365l-.531-.92a.664.664,0,0,0-1.15.664l.531.92a.664.664,0,1,0,1.15-.664Z"/>
            </g>
          </g>
          <g id="Group_1204984" data-name="Group 1204984">
            <g id="Group_1204983" data-name="Group 1204983">
              <path id="Path_1245336" data-name="Path 1245336" d="M44.345,59.289l-.531-.92a.664.664,0,0,0-1.15.664l.531.92a.664.664,0,0,0,1.15-.664Z"/>
            </g>
          </g>
          <g id="Group_1204986" data-name="Group 1204986">
            <g id="Group_1204985" data-name="Group 1204985">
              <path id="Path_1245337" data-name="Path 1245337" d="M21.4,29.164l-.751-.751a.664.664,0,0,0-.939.939l.751.751a.664.664,0,1,0,.939-.939Z"/>
            </g>
          </g>
          <g id="Group_1204988" data-name="Group 1204988">
            <g id="Group_1204987" data-name="Group 1204987">
              <path id="Path_1245338" data-name="Path 1245338" d="M48.286,56.047l-.751-.751a.664.664,0,0,0-.939.939l.751.751a.664.664,0,1,0,.939-.939Z"/>
            </g>
          </g>
          <g id="Group_1204990" data-name="Group 1204990">
            <g id="Group_1204989" data-name="Group 1204989">
              <path id="Path_1245339" data-name="Path 1245339" d="M18.33,32.885l-.92-.531a.664.664,0,0,0-.664,1.15l.92.531a.664.664,0,1,0,.664-1.15Z"/>
            </g>
          </g>
          <g id="Group_1204992" data-name="Group 1204992">
            <g id="Group_1204991" data-name="Group 1204991">
              <path id="Path_1245340" data-name="Path 1245340" d="M51.254,51.894l-.92-.531a.664.664,0,0,0-.664,1.15l.92.531a.664.664,0,1,0,.664-1.15Z"/>
            </g>
          </g>
          <g id="Group_1204994" data-name="Group 1204994">
            <g id="Group_1204993" data-name="Group 1204993">
              <path id="Path_1245341" data-name="Path 1245341" d="M16.324,37.275,15.3,37a.664.664,0,0,0-.344,1.283l1.026.275a.664.664,0,0,0,.344-1.283Z"/>
            </g>
          </g>
          <g id="Group_1204996" data-name="Group 1204996">
            <g id="Group_1204995" data-name="Group 1204995">
              <path id="Path_1245342" data-name="Path 1245342" d="M53.046,47.115,52.02,46.84a.664.664,0,0,0-.344,1.283L52.7,48.4a.664.664,0,0,0,.344-1.283Z"/>
            </g>
          </g>
          <g id="Group_1204998" data-name="Group 1204998">
            <g id="Group_1204997" data-name="Group 1204997">
              <path id="Path_1245343" data-name="Path 1245343" d="M15.523,42.035H14.46a.664.664,0,0,0,0,1.328h1.063a.664.664,0,1,0,0-1.328Z"/>
            </g>
          </g>
          <g id="Group_1205000" data-name="Group 1205000">
            <g id="Group_1204999" data-name="Group 1204999">
              <path id="Path_1245344" data-name="Path 1245344" d="M53.54,42.035H52.478a.664.664,0,0,0,0,1.328H53.54a.664.664,0,0,0,0-1.328Z"/>
            </g>
          </g>
          <g id="Group_1205002" data-name="Group 1205002">
            <g id="Group_1205001" data-name="Group 1205001">
              <path id="Path_1245345" data-name="Path 1245345" d="M16.794,47.31a.665.665,0,0,0-.813-.47l-1.026.275a.664.664,0,0,0,.172,1.306A.675.675,0,0,0,15.3,48.4l1.026-.275a.665.665,0,0,0,.47-.814Z"/>
            </g>
          </g>
          <g id="Group_1205004" data-name="Group 1205004">
            <g id="Group_1205003" data-name="Group 1205003">
              <path id="Path_1245346" data-name="Path 1245346" d="M53.516,37.47A.665.665,0,0,0,52.7,37l-1.026.275a.664.664,0,0,0,.172,1.306.675.675,0,0,0,.172-.023l1.026-.275a.664.664,0,0,0,.47-.814Z"/>
            </g>
          </g>
          <g id="Group_1205006" data-name="Group 1205006">
            <g id="Group_1205005" data-name="Group 1205005">
              <path id="Path_1245347" data-name="Path 1245347" d="M18.573,51.606a.664.664,0,0,0-.907-.243l-.92.531a.664.664,0,1,0,.664,1.15l.92-.531A.664.664,0,0,0,18.573,51.606Z"/>
            </g>
          </g>
          <g id="Group_1205008" data-name="Group 1205008">
            <g id="Group_1205007" data-name="Group 1205007">
              <path id="Path_1245348" data-name="Path 1245348" d="M51.5,32.6a.664.664,0,0,0-.907-.243l-.92.531a.664.664,0,1,0,.664,1.15l.92-.531A.664.664,0,0,0,51.5,32.6Z"/>
            </g>
          </g>
          <g id="Group_1205010" data-name="Group 1205010">
            <g id="Group_1205009" data-name="Group 1205009">
              <path id="Path_1245349" data-name="Path 1245349" d="M21.4,55.3a.664.664,0,0,0-.939,0l-.751.751a.664.664,0,0,0,.939.939l.751-.751a.664.664,0,0,0,0-.939Z"/>
            </g>
          </g>
          <g id="Group_1205012" data-name="Group 1205012">
            <g id="Group_1205011" data-name="Group 1205011">
              <path id="Path_1245350" data-name="Path 1245350" d="M48.286,28.413a.664.664,0,0,0-.939,0l-.751.751a.664.664,0,0,0,.939.939l.751-.751A.664.664,0,0,0,48.286,28.413Z"/>
            </g>
          </g>
          <g id="Group_1205014" data-name="Group 1205014">
            <g id="Group_1205013" data-name="Group 1205013">
              <path id="Path_1245351" data-name="Path 1245351" d="M25.093,58.126a.663.663,0,0,0-.907.243l-.531.92a.664.664,0,1,0,1.15.664l.531-.92A.664.664,0,0,0,25.093,58.126Z"/>
            </g>
          </g>
          <g id="Group_1205016" data-name="Group 1205016">
            <g id="Group_1205015" data-name="Group 1205015">
              <path id="Path_1245352" data-name="Path 1245352" d="M44.1,25.2a.663.663,0,0,0-.907.243l-.531.92a.664.664,0,1,0,1.15.664l.531-.92A.664.664,0,0,0,44.1,25.2Z"/>
            </g>
          </g>
          <g id="Group_1205018" data-name="Group 1205018">
            <g id="Group_1205017" data-name="Group 1205017">
              <path id="Path_1245353" data-name="Path 1245353" d="M29.39,59.906a.664.664,0,0,0-.813.47L28.3,61.4a.664.664,0,1,0,1.283.343l.275-1.026a.664.664,0,0,0-.47-.813Z"/>
            </g>
          </g>
          <g id="Group_1205020" data-name="Group 1205020">
            <g id="Group_1205019" data-name="Group 1205019">
              <path id="Path_1245354" data-name="Path 1245354" d="M39.229,23.183a.664.664,0,0,0-.813.47l-.275,1.026a.664.664,0,1,0,1.283.343L39.7,24A.664.664,0,0,0,39.229,23.183Z"/>
            </g>
          </g>
          <g id="Group_1205022" data-name="Group 1205022">
            <g id="Group_1205021" data-name="Group 1205021">
              <path id="Path_1245355" data-name="Path 1245355" d="M34.209,52.83h-.418a.664.664,0,0,0,0,1.328h.418a.664.664,0,0,0,0-1.328Z"/>
            </g>
          </g>
          <g id="Group_1205026" data-name="Group 1205026">
            <g id="Group_1205025" data-name="Group 1205025">
              <g id="Group_1205024" data-name="Group 1205024">
                <g id="Group_1205023" data-name="Group 1205023">
                  <path id="Path_1245356" data-name="Path 1245356" d="M34,22.23A20.47,20.47,0,1,0,54.47,42.7,20.493,20.493,0,0,0,34,22.23Zm0,39.611A19.142,19.142,0,1,1,53.142,42.7,19.163,19.163,0,0,1,34,61.841Z"/>
                </g>
              </g>
            </g>
          </g>
          <g id="Group_1205028" data-name="Group 1205028">
            <g id="Group_1205027" data-name="Group 1205027">
              <path id="Path_1245357" data-name="Path 1245357" d="M35.544,31.636a.664.664,0,1,0-.183,1.315,9.839,9.839,0,0,1,3.723,18.172.664.664,0,1,0,.688,1.136,11.1,11.1,0,0,0,5.4-9.56,11.215,11.215,0,0,0-9.629-11.064Z"/>
            </g>
          </g>
          <g id="Group_1205030" data-name="Group 1205030">
            <g id="Group_1205029" data-name="Group 1205029">
              <path id="Path_1245358" data-name="Path 1245358" d="M33.258,32.2a.663.663,0,0,0-.746-.57,11.167,11.167,0,0,0-4.284,20.631.664.664,0,0,0,.688-1.136,9.839,9.839,0,0,1,3.772-18.179.664.664,0,0,0,.57-.746Z"/>
            </g>
          </g>
          <g id="Group_1205034" data-name="Group 1205034">
            <g id="Group_1205033" data-name="Group 1205033">
              <g id="Group_1205032" data-name="Group 1205032">
                <g id="Group_1205031" data-name="Group 1205031">
                  <path id="Path_1245359" data-name="Path 1245359" d="M34,46.977a6.093,6.093,0,1,0,6.092,6.093A6.1,6.1,0,0,0,34,46.977Zm0,10.857a4.764,4.764,0,1,1,4.764-4.764A4.77,4.77,0,0,1,34,57.834Z"/>
                </g>
              </g>
            </g>
          </g>
          <g id="Group_1205038" data-name="Group 1205038">
            <g id="Group_1205037" data-name="Group 1205037">
              <g id="Group_1205036" data-name="Group 1205036">
                <g id="Group_1205035" data-name="Group 1205035">
                  <path id="Path_1245360" data-name="Path 1245360" d="M36.337,51.976l-1.4-2.029a1.158,1.158,0,0,0-1.906,0l-1.363,1.976a2.909,2.909,0,0,0-.172,3.02,2.776,2.776,0,0,0,2.487,1.512H34a2.857,2.857,0,0,0,2.335-4.479Zm-1,2.329a1.5,1.5,0,0,1-1.346.822,1.462,1.462,0,0,1-1.323-.8,1.564,1.564,0,0,1,.091-1.645l1.222-1.773,1.259,1.825A1.506,1.506,0,0,1,35.34,54.305Z"/>
                </g>
              </g>
            </g>
          </g>
          <g id="Group_1205040" data-name="Group 1205040">
            <g id="Group_1205039" data-name="Group 1205039">
              <path id="Path_1245361" data-name="Path 1245361" d="M34.988,27.506a1.055,1.055,0,0,0-1.975,0,14.407,14.407,0,0,0-.92,5.076v7.754a.664.664,0,0,0,1.328,0V32.582A13.072,13.072,0,0,1,34,28.722a13.075,13.075,0,0,1,.58,3.859v7.788a.664.664,0,0,0,1.328,0V32.582A14.4,14.4,0,0,0,34.988,27.506Z"/>
            </g>
          </g>
          <g id="Group_1205044" data-name="Group 1205044">
            <g id="Group_1205043" data-name="Group 1205043">
              <g id="Group_1205042" data-name="Group 1205042">
                <g id="Group_1205041" data-name="Group 1205041">
                  <path id="Path_1245362" data-name="Path 1245362" d="M34,39.5a3.2,3.2,0,1,0,3.2,3.2A3.208,3.208,0,0,0,34,39.5Zm0,5.08A1.876,1.876,0,1,1,35.876,42.7,1.878,1.878,0,0,1,34,44.575Z"/>
                </g>
              </g>
            </g>
          </g>
        </g>
      </g>
    </g>
  </g>
</svg>
