<svg xmlns="http://www.w3.org/2000/svg" xmlns:xlink="http://www.w3.org/1999/xlink" width="110" height="110" viewBox="0 0 110 110">
  <defs>
    <clipPath id="clip-path">
      <path id="path6957" d="M0-682.665H67.718v67.718H0Z" transform="translate(0 682.665)"/>
    </clipPath>
  </defs>
  <g id="Group_1203799" data-name="Group 1203799" transform="translate(-802.781 -1960)">
    <circle id="Ellipse_12740" data-name="Ellipse 12740" cx="55" cy="55" r="55" transform="translate(802.781 1960)" fill="#f5ae5c"/>
    <g id="g6951" transform="translate(823.922 1981.142)">
      <g id="g6953" transform="translate(0 0)">
        <g id="g6955" clip-path="url(#clip-path)">
          <g id="g6961" transform="translate(2.976 9.787)">
            <path id="path6963" d="M-529.671-401.157l-27.444,1.984L-588-401.157V-444.01a1.323,1.323,0,0,1,1.323-1.323h55.682a1.323,1.323,0,0,1,1.323,1.323Z" transform="translate(587.999 445.332)" fill="#6f6571"/>
          </g>
          <g id="g6965" transform="translate(58.253 9.787)">
            <path id="path6967" d="M-58.926-12.011V30.842h-3.968V26.213l-2.521-15.475L-62.893-8.7v-3.307a1.323,1.323,0,0,0-1.323-1.323h3.968a1.323,1.323,0,0,1,1.323,1.323" transform="translate(65.415 13.333)" fill="#5d5360"/>
          </g>
          <g id="g6969" transform="translate(6.944 13.755)">
            <path id="path6971" d="M-482.829-329.093h-52.508a.661.661,0,0,1-.661-.661v-34.917a.661.661,0,0,1,.661-.661h52.508a.661.661,0,0,1,.661.661v34.917a.661.661,0,0,1-.661.661" transform="translate(535.999 365.332)" fill="#ccf49f"/>
          </g>
          <g id="g6973" transform="translate(0.992 51.212)">
            <path id="path6975" d="M-558.5-61.009h-60.84a.661.661,0,0,1-.661-.661v-2.645a.661.661,0,0,1,.661-.661h23.664l8.541-2.751,8.4,2.751H-558.5a.661.661,0,0,1,.661.661v2.645a.661.661,0,0,1-.661.661" transform="translate(619.998 67.728)" fill="#d19a6e"/>
          </g>
          <g id="g6977" transform="translate(62.097 53.963)">
            <path id="path6979" d="M-42.037-6.005V-3.36A.662.662,0,0,1-42.7-2.7h-3.968a.662.662,0,0,0,.661-.661V-6.005a.662.662,0,0,0-.661-.661H-42.7a.662.662,0,0,1,.661.661" transform="translate(46.667 6.667)" fill="#bc845e"/>
          </g>
          <g id="g6981" transform="translate(25.46 48.011)">
            <path id="path6983" d="M-99.663,0h-8.591a1.323,1.323,0,0,0-1.291,1.036l-1.092,4.916H-97.28l-1.092-4.916A1.323,1.323,0,0,0-99.663,0" transform="translate(110.638)" fill="#fcf1f2"/>
          </g>
          <g id="g6985" transform="translate(35.906 48.011)">
            <path id="path6987" d="M-57.675-54.048h-3.968l-1.092-4.916A1.323,1.323,0,0,0-64.027-60h3.968a1.323,1.323,0,0,1,1.291,1.036Z" transform="translate(64.027 60)" fill="#f4e5e0"/>
          </g>
          <g id="g6989" transform="translate(52.839 27.973)">
            <path id="path6991" d="M-30.027,0h-2.645a.661.661,0,0,0-.661.661V7.274a.661.661,0,0,0,.661.661h2.645a.661.661,0,0,0,.661-.661V.661A.661.661,0,0,0-30.027,0" transform="translate(33.333)" fill="#95d6a4"/>
          </g>
          <g id="g6993" transform="translate(44.903 24.005)">
            <path id="path6995" d="M-30.027,0h-2.645a.661.661,0,0,0-.661.661V11.242a.661.661,0,0,0,.661.661h2.645a.661.661,0,0,0,.661-.661V.661A.661.661,0,0,0-30.027,0" transform="translate(33.333)" fill="#95d6a4"/>
          </g>
          <g id="g6997" transform="translate(36.967 31.941)">
            <path id="path6999" d="M-30.027,0h-2.645a.661.661,0,0,0-.661.661V3.307a.661.661,0,0,0,.661.661h2.645a.661.661,0,0,0,.661-.661V.661A.661.661,0,0,0-30.027,0" transform="translate(33.333)" fill="#95d6a4"/>
          </g>
          <g id="g7001" transform="translate(10.879 24.005)">
            <path id="path7003" d="M0-49.8v-5.484H3.382a2.783,2.783,0,0,1,2.806,2.642,2.736,2.736,0,0,1-2.734,2.829" transform="translate(0 55.284)" fill="none" stroke="#000" stroke-linecap="round" stroke-linejoin="round" stroke-miterlimit="10" stroke-width="1"/>
          </g>
          <g id="g7005" transform="translate(10.879 29.489)">
            <path id="path7007" d="M-36.055,0a3.238,3.238,0,0,1,3.284,3.441,3.2,3.2,0,0,1-3.194,2.965c-.877,0-4.06.014-4.06.014V0Z" transform="translate(40.025)" fill="none" stroke="#000" stroke-linecap="round" stroke-linejoin="round" stroke-miterlimit="10" stroke-width="1"/>
          </g>
          <g id="g7009" transform="translate(2.976 9.787)">
            <path id="path7011" d="M0-36.032v-2.645A1.323,1.323,0,0,1,1.323-40H60.444a1.323,1.323,0,0,1,1.323,1.323V3.6" transform="translate(0 40)" fill="none" stroke="#000" stroke-linecap="round" stroke-linejoin="round" stroke-miterlimit="10" stroke-width="1"/>
          </g>
          <g id="g7013" transform="translate(2.976 18.384)">
            <path id="path7015" d="M0-316.042v-34.8" transform="translate(0 350.844)" fill="none" stroke="#000" stroke-linecap="round" stroke-linejoin="round" stroke-miterlimit="10" stroke-width="1"/>
          </g>
          <g id="g7017" transform="translate(0.992 53.963)">
            <path id="path7019" d="M-542.883,0h5.29a.661.661,0,0,1,.661.661V3.307a.661.661,0,0,1-.661.661H-602a.661.661,0,0,1-.661-.661V.661A.661.661,0,0,1-602,0h54.492" transform="translate(602.665)" fill="none" stroke="#000" stroke-linecap="round" stroke-linejoin="round" stroke-miterlimit="10" stroke-width="1"/>
          </g>
          <g id="g7021" transform="translate(6.944 13.755)">
            <path id="path7023" d="M-170.892-329.093h-18.157a.661.661,0,0,1-.661-.661v-34.917a.661.661,0,0,1,.661-.661h52.508a.661.661,0,0,1,.661.661v34.917a.661.661,0,0,1-.661.661H-154.4" transform="translate(189.71 365.332)" fill="none" stroke="#000" stroke-linecap="round" stroke-linejoin="round" stroke-miterlimit="10" stroke-width="1"/>
          </g>
          <g id="g7025" transform="translate(25.556 48.011)">
            <path id="path7027" d="M-150.841-50.333l-1-4.507a1.323,1.323,0,0,0-1.291-1.036h-12.03a1.323,1.323,0,0,0-1.291,1.036l-1,4.485" transform="translate(167.452 55.876)" fill="none" stroke="#000" stroke-linecap="round" stroke-linejoin="round" stroke-miterlimit="10" stroke-width="1"/>
          </g>
          <g id="g7029" transform="translate(21.228 24.005)">
            <path id="path7031" d="M0,0H7.936" fill="none" stroke="#000" stroke-linecap="round" stroke-linejoin="round" stroke-miterlimit="10" stroke-width="1"/>
          </g>
          <g id="g7033" transform="translate(23.873 27.973)">
            <path id="path7035" d="M0,0H5.29" fill="none" stroke="#000" stroke-linecap="round" stroke-linejoin="round" stroke-miterlimit="10" stroke-width="1"/>
          </g>
          <g id="g7037" transform="translate(23.873 31.941)">
            <path id="path7039" d="M0,0H5.29" fill="none" stroke="#000" stroke-linecap="round" stroke-linejoin="round" stroke-miterlimit="10" stroke-width="1"/>
          </g>
          <g id="g7041" transform="translate(21.228 35.909)">
            <path id="path7043" d="M0,0H7.936" fill="none" stroke="#000" stroke-linecap="round" stroke-linejoin="round" stroke-miterlimit="10" stroke-width="1"/>
          </g>
          <g id="g7045" transform="translate(52.839 27.973)">
            <path id="path7047" d="M-30.027,0h-2.645a.661.661,0,0,0-.661.661V7.274a.661.661,0,0,0,.661.661h2.645a.661.661,0,0,0,.661-.661V.661A.661.661,0,0,0-30.027,0Z" transform="translate(33.333)" fill="none" stroke="#000" stroke-linecap="round" stroke-linejoin="round" stroke-miterlimit="10" stroke-width="1"/>
          </g>
          <g id="g7049" transform="translate(44.903 24.005)">
            <path id="path7051" d="M-30.027,0h-2.645a.661.661,0,0,0-.661.661V11.242a.661.661,0,0,0,.661.661h2.645a.661.661,0,0,0,.661-.661V.661A.661.661,0,0,0-30.027,0Z" transform="translate(33.333)" fill="none" stroke="#000" stroke-linecap="round" stroke-linejoin="round" stroke-miterlimit="10" stroke-width="1"/>
          </g>
          <g id="g7053" transform="translate(36.967 31.941)">
            <path id="path7055" d="M-30.027,0h-2.645a.661.661,0,0,0-.661.661V3.307a.661.661,0,0,0,.661.661h2.645a.661.661,0,0,0,.661-.661V.661A.661.661,0,0,0-30.027,0Z" transform="translate(33.333)" fill="none" stroke="#000" stroke-linecap="round" stroke-linejoin="round" stroke-miterlimit="10" stroke-width="1"/>
          </g>
          <g id="g7057" transform="translate(10.912 39.877)">
            <path id="path7059" d="M0,0H18.252" fill="none" stroke="#000" stroke-linecap="round" stroke-linejoin="round" stroke-miterlimit="10" stroke-width="1"/>
          </g>
          <g id="g7061" transform="translate(36.967 39.877)">
            <path id="path7063" d="M0,0H19.839" fill="none" stroke="#000" stroke-linecap="round" stroke-linejoin="round" stroke-miterlimit="10" stroke-width="1"/>
          </g>
        </g>
      </g>
    </g>
  </g>
</svg>
