<svg xmlns="http://www.w3.org/2000/svg" xmlns:xlink="http://www.w3.org/1999/xlink" width="110" height="110" viewBox="0 0 110 110">
  <defs>
    <clipPath id="clip-path">
      <rect id="Rectangle_411115" data-name="Rectangle 411115" width="71" height="68" transform="translate(344.551 5657.008)" fill="#fff" stroke="#707070" stroke-width="1"/>
    </clipPath>
  </defs>
  <g id="Group_1205078" data-name="Group 1205078" transform="translate(-325.5 -5636.008)">
    <circle id="Ellipse_12823" data-name="Ellipse 12823" cx="55" cy="55" r="55" transform="translate(325.5 5636.008)" fill="#f5ae5c"/>
    <g id="Mask_Group_1099374" data-name="Mask Group 1099374" clip-path="url(#clip-path)">
      <g id="Layer_23" data-name="Layer 23" transform="translate(344.954 5655.911)">
        <path id="Path_1245413" data-name="Path 1245413" d="M2.194,35.1H54.839V63.613H2.194Z" fill="#67ac5c"/>
        <path id="Path_1245414" data-name="Path 1245414" d="M46.065,59.226a4.387,4.387,0,0,1,4.387-4.387V43.871a4.387,4.387,0,0,1-4.387-4.387h-35.1a4.387,4.387,0,0,1-4.387,4.387V54.839a4.387,4.387,0,0,1,4.387,4.387Z" fill="#eee"/>
        <circle id="Ellipse_13058" data-name="Ellipse 13058" cx="9.871" cy="9.871" r="9.871" transform="translate(18.645 39.484)" fill="#67ac5c"/>
        <path id="Path_1245415" data-name="Path 1245415" d="M18.645,49.355a9.871,9.871,0,0,0,3.192,7.25c7.612-1.481,13.26-6.778,13.26-13.117a10.847,10.847,0,0,0-.132-1.59,9.871,9.871,0,0,0-16.32,7.458Z" fill="#7bb873"/>
        <path id="Path_1245416" data-name="Path 1245416" d="M43.871,41.677H65.806v6.581H43.871Z" fill="#f8d859"/>
        <path id="Path_1245417" data-name="Path 1245417" d="M43.871,48.258H65.806v6.581H43.871Z" fill="#fbe89b"/>
        <path id="Path_1245418" data-name="Path 1245418" d="M46.065,54.839H68v6.581H46.065Z" fill="#f8d859"/>
        <path id="Path_1245419" data-name="Path 1245419" d="M43.871,61.419H65.806V68H43.871Z" fill="#fbe89b"/>
        <path id="Path_1245420" data-name="Path 1245420" d="M13.161,26.323H57.032V30.71H13.161Z" fill="#94a4ad"/>
        <g id="Group_1205077" data-name="Group 1205077">
          <path id="Path_1245421" data-name="Path 1245421" d="M15.355,6.581h6.581V26.323H15.355Z" fill="#67ac5c"/>
          <path id="Path_1245422" data-name="Path 1245422" d="M26.323,10.968H32.9V26.323H26.323Z" fill="#67ac5c"/>
          <path id="Path_1245423" data-name="Path 1245423" d="M37.29,15.355h6.581V26.323H37.29Z" fill="#67ac5c"/>
          <path id="Path_1245424" data-name="Path 1245424" d="M48.258,19.742h6.581v6.581H48.258Z" fill="#67ac5c"/>
        </g>
        <path id="Path_1245425" data-name="Path 1245425" d="M68,53.742H66.9V41.677a1.1,1.1,0,0,0-1.1-1.1H55.935V35.1a1.1,1.1,0,0,0-1.1-1.1H2.194a1.1,1.1,0,0,0-1.1,1.1V63.613a1.1,1.1,0,0,0,1.1,1.1H42.774V68a1.1,1.1,0,0,0,1.1,1.1H65.806A1.1,1.1,0,0,0,66.9,68V62.516H68a1.1,1.1,0,0,0,1.1-1.1V54.839A1.1,1.1,0,0,0,68,53.742Zm-7.677,8.774V66.9H58.129V62.516ZM55.935,66.9H53.742V62.516h2.194Zm-4.387,0H49.355V62.516h2.194ZM35.1,58.129a10.968,10.968,0,0,0,0-17.548h8.774a1.1,1.1,0,0,0-1.1,1.1V54.839a1.1,1.1,0,0,0,1.1,1.1h1.1v2.194ZM19.742,49.355a8.774,8.774,0,1,1,8.774,8.774A8.774,8.774,0,0,1,19.742,49.355Zm2.194,8.774H11.955a5.484,5.484,0,0,0-4.277-4.277V44.858a5.484,5.484,0,0,0,4.277-4.277h9.981a10.968,10.968,0,0,0,0,17.548Zm23.032-4.387V49.355h2.194v4.387Zm4.387-4.387h2.194v4.387H49.355Zm4.387,0h2.194v4.387H53.742Zm4.387,0h2.194v4.387H58.129Zm4.387,0H64.71v4.387H62.516Zm2.194-2.194H44.968V42.774H64.71ZM42.774,61.419v1.1H3.29V36.194H53.742v4.387H47.37a3.356,3.356,0,0,1-.208-1.1,1.1,1.1,0,0,0-1.1-1.1h-35.1a1.1,1.1,0,0,0-1.1,1.1,3.29,3.29,0,0,1-3.29,3.29,1.1,1.1,0,0,0-1.1,1.1V54.839a1.1,1.1,0,0,0,1.1,1.1,3.29,3.29,0,0,1,3.29,3.29,1.1,1.1,0,0,0,1.1,1.1h32.9A1.1,1.1,0,0,0,42.774,61.419Zm4.387,1.1V66.9H44.968V62.516ZM64.71,66.9H62.516V62.516H64.71ZM47.161,60.323V55.935H66.9v4.387Z"/>
        <path id="Path_1245426" data-name="Path 1245426" d="M13.161,31.806H57.032a1.1,1.1,0,0,0,1.1-1.1V26.323a1.1,1.1,0,0,0-1.1-1.1h-1.1V19.742a1.1,1.1,0,0,0-1.1-1.1H48.258a1.1,1.1,0,0,0-1.1,1.1v5.484H44.968V15.355a1.1,1.1,0,0,0-1.1-1.1H37.29a1.1,1.1,0,0,0-1.1,1.1v9.871H34V10.968a1.1,1.1,0,0,0-1.1-1.1H26.323a1.1,1.1,0,0,0-1.1,1.1V25.226H23.032V6.581a1.1,1.1,0,0,0-1.1-1.1H15.355a1.1,1.1,0,0,0-1.1,1.1V25.226h-1.1a1.1,1.1,0,0,0-1.1,1.1V30.71A1.1,1.1,0,0,0,13.161,31.806ZM49.355,20.839h4.387v4.387H49.355ZM38.387,16.452h4.387v8.774H38.387ZM27.419,12.065h4.387V25.226H27.419ZM16.452,7.677h4.387V25.226H16.452ZM14.258,27.419H55.935v2.194H14.258Z"/>
        <path id="Path_1245427" data-name="Path 1245427" d="M38.606,10.529a1.1,1.1,0,0,0,.614.406L53.9,14.6l-1.744.877.987,1.952,4.387-2.194a1.1,1.1,0,0,0,.483-1.47L55.815,9.377l-1.952.987,1.1,2.248L40.131,8.906l-3.06-4.08a1.1,1.1,0,0,0-.614-.439L23.3,1.1,22.769,3.29,35.546,6.449Z"/>
      </g>
    </g>
  </g>
</svg>
