<svg xmlns="http://www.w3.org/2000/svg" xmlns:xlink="http://www.w3.org/1999/xlink" width="110" height="110" viewBox="0 0 110 110">
  <defs>
    <clipPath id="clip-path">
      <rect id="Rectangle_412351" data-name="Rectangle 412351" width="71" height="68" transform="translate(333.6 5107.732)" fill="#fff" stroke="#707070" stroke-width="1"/>
    </clipPath>
  </defs>
  <g id="Group_1205090" data-name="Group 1205090" transform="translate(-314.549 -5086.732)">
    <circle id="Ellipse_12874" data-name="Ellipse 12874" cx="55" cy="55" r="55" transform="translate(314.549 5086.732)" fill="#f5ae5c"/>
    <g id="Mask_Group_1099376" data-name="Mask Group 1099376" clip-path="url(#clip-path)">
      <g id="layer2" transform="translate(330.242 5102.875)">
        <path id="path3844" d="M51,17V53.429a7.27,7.27,0,0,1-7.286,7.286h-17v2.429A7.27,7.27,0,0,0,34,70.429H63.143a7.27,7.27,0,0,0,7.286-7.286V24.286A7.27,7.27,0,0,0,63.143,17Z" fill="#549ad4"/>
        <path id="path3846" d="M51,17V53.429a7.27,7.27,0,0,1-7.286,7.286h-17v2.429a7.253,7.253,0,0,0,.441,2.429H48.571a7.27,7.27,0,0,0,7.286-7.286V19.429A7.253,7.253,0,0,0,55.416,17Z" fill="#3588cb"/>
        <path id="path3848" d="M58.286,17a7.27,7.27,0,0,1,7.286,7.286V63.143a7.27,7.27,0,0,1-7.286,7.286h4.857a7.27,7.27,0,0,0,7.286-7.286V24.286A7.27,7.27,0,0,0,63.143,17Z" fill="#3588cb"/>
        <path id="path3850" d="M21.857,7.286H43.714A7.27,7.27,0,0,1,51,14.571V53.429a7.27,7.27,0,0,1-7.286,7.286H14.571a7.27,7.27,0,0,1-7.286-7.286V21.857Z" fill="#e4eff8"/>
        <path id="path3852" d="M21.857,7.286,7.286,21.857V53.429a7.27,7.27,0,0,0,7.286,7.286h4.857a7.27,7.27,0,0,1-7.286-7.286V21.857L26.714,7.286Z" fill="#fbfcfe"/>
        <path id="path3854" d="M38.857,7.286a7.27,7.27,0,0,1,7.286,7.286V53.429a7.27,7.27,0,0,1-7.286,7.286h4.857A7.27,7.27,0,0,0,51,53.429V14.571a7.27,7.27,0,0,0-7.286-7.286Z" fill="#c4dcf0"/>
        <path id="path3856" d="M7.286,21.857H21.857V7.407" fill="#549ad4"/>
        <path id="path3858" d="M21.857,7.409,7.286,21.857h4.857l9.714-9.634Z" fill="#b4d2ec"/>
        <path id="path1775" d="M21.852,4.857a2.429,2.429,0,0,0-1.722.716L5.573,20.131a2.429,2.429,0,0,0-.716,1.722V53.424a9.7,9.7,0,0,0,9.719,9.714H24.29a9.688,9.688,0,0,0,9.719,9.719H63.138a9.7,9.7,0,0,0,9.719-9.719V24.29a9.7,9.7,0,0,0-9.719-9.714H53.424A9.694,9.694,0,0,0,43.7,4.857ZM24.29,9.719H43.7a4.822,4.822,0,0,1,4.862,4.857V53.424A4.8,4.8,0,0,1,43.7,58.281H14.576a4.823,4.823,0,0,1-4.857-4.857V24.29H21.852a2.429,2.429,0,0,0,2.438-2.438Zm-4.857,3.425v6.29h-6.29Zm12.138,6.285a2.429,2.429,0,1,0,0,4.857h9.714a2.429,2.429,0,1,0,0-4.857Zm21.852,0h9.714A4.833,4.833,0,0,1,68,24.29V63.138A4.837,4.837,0,0,1,63.138,68H34.009a4.833,4.833,0,0,1-4.857-4.862H43.7a9.751,9.751,0,0,0,9.719-9.714l7.29,0a2.429,2.429,0,1,0,0-4.857l-7.29,0V43.7l7.29.009a2.429,2.429,0,1,0,0-4.857l-7.29-.009V34h7.29a2.429,2.429,0,1,0,0-4.857h-7.29ZM17,29.143A2.429,2.429,0,1,0,17,34h24.29a2.429,2.429,0,1,0,0-4.857Zm0,9.7A2.429,2.429,0,0,0,17,43.7H41.252a2.429,2.429,0,0,0,0-4.857Zm0,9.719a2.429,2.429,0,0,0,0,4.857H41.252a2.429,2.429,0,0,0,0-4.857Z" fill="#333"/>
      </g>
    </g>
  </g>
</svg>
