<svg xmlns="http://www.w3.org/2000/svg" xmlns:xlink="http://www.w3.org/1999/xlink" width="110" height="110" viewBox="0 0 110 110">
  <defs>
    <clipPath id="clip-path">
      <rect id="Rectangle_412353" data-name="Rectangle 412353" width="71" height="68" transform="translate(1180.832 5107.732)" fill="#fff" stroke="#707070" stroke-width="1"/>
    </clipPath>
  </defs>
  <g id="Group_1205092" data-name="Group 1205092" transform="translate(-1161.781 -5086.732)">
    <circle id="Ellipse_12876" data-name="Ellipse 12876" cx="55" cy="55" r="55" transform="translate(1161.781 5086.732)" fill="#f5ae5c"/>
    <g id="Mask_Group_1099377" data-name="Mask Group 1099377" clip-path="url(#clip-path)">
      <g id="stress_2327097" transform="translate(1178.984 5105.465)">
        <path id="Path_1245439" data-name="Path 1245439" d="M66.69,53.695a3.022,3.022,0,0,1,.6,2.056,1.825,1.825,0,0,1-1.943,1.57c-1.131-.116-1.393-1.006-1.7-1.9a4.159,4.159,0,0,0-2.261-2.541l-1.34-.583,2.186-.467a4.746,4.746,0,0,1,4.452,1.867Z" fill="#adc4e6"/>
        <path id="Path_1245440" data-name="Path 1245440" d="M5.67,62.67A3.024,3.024,0,0,0,5.864,64.8a1.826,1.826,0,0,0,2.383.748c1.01-.522.927-1.447.881-2.393A4.154,4.154,0,0,1,10.3,59.966l1.034-1.031L9.128,59.3A4.747,4.747,0,0,0,5.67,62.67Z" fill="#adc4e6"/>
        <path id="Path_1245441" data-name="Path 1245441" d="M44.166,29.134l2.3-.029-.052-4.07-2.3.029a8.084,8.084,0,0,0-.893-2.082l1.606-1.648-2.915-2.841-1.606,1.648a8.108,8.108,0,0,0-2.1-.84L38.171,17l-4.07.052.029,2.3a8.084,8.084,0,0,0-2.082.893L30.4,18.641,27.56,21.556l1.648,1.606a8.108,8.108,0,0,0-.84,2.1l-2.3.029.052,4.07,2.3-.029a8.084,8.084,0,0,0,.893,2.082l-1.606,1.648,2.915,2.841,1.606-1.648a8.108,8.108,0,0,0,2.1.84l.029,2.3,4.07-.052-.029-2.3a8.084,8.084,0,0,0,2.082-.893l1.648,1.606,2.841-2.915-1.648-1.606a8.074,8.074,0,0,0,.839-2.1Zm-7.879,1.421A3.408,3.408,0,1,1,39.65,27.1,3.408,3.408,0,0,1,36.287,30.555Z" fill="#526273"/>
        <path id="Path_1245442" data-name="Path 1245442" d="M69.134,10.2,61.2,3.4V6.8H46.467v6.8H61.2V17Z" fill="#ff8088"/>
        <path id="Path_1245443" data-name="Path 1245443" d="M47.6,39.667v13.6a2.266,2.266,0,0,1-2.267,2.267H27.2a2.266,2.266,0,0,1-2.267-2.267v-13.6H19.267v17A4.534,4.534,0,0,0,23.8,61.2h3.4v9.067H45.334V61.2h3.4a4.534,4.534,0,0,0,4.533-4.533v-17Z" fill="#cfcfcf"/>
        <path id="Path_1245444" data-name="Path 1245444" d="M36.267,55.534l-3.4,9.067,3.4,4.533,3.4-4.533Z" fill="#759acc"/>
        <path id="Path_1245445" data-name="Path 1245445" d="M43.067,48.734a4.322,4.322,0,0,1-.068.843,6.783,6.783,0,0,1-13.464,0,4.322,4.322,0,0,1-.068-.843,6.8,6.8,0,0,1,13.6,0Z" fill="#ffdbac"/>
        <path id="Path_1245446" data-name="Path 1245446" d="M43.067,48.734a6.8,6.8,0,1,0-13.6,0,4.322,4.322,0,0,0,.068.843c.019.161.069.311.1.467a7.937,7.937,0,0,1,13.265,0c.029-.158.08-.306.1-.467a4.322,4.322,0,0,0,.068-.843Z" fill="#526273"/>
        <path id="Path_1245447" data-name="Path 1245447" d="M59.814,51.188a1.133,1.133,0,0,0-.214,2.148l1.34.583a3.1,3.1,0,0,1,1.669,1.954,3.138,3.138,0,0,0,2.624,2.576c.091.009.181.014.273.014a2.958,2.958,0,0,0,1.865-.685,2.863,2.863,0,0,0,1.048-1.922,4.141,4.141,0,0,0-.809-2.821h0A5.859,5.859,0,0,0,62,50.722Zm5.956,3.169a1.885,1.885,0,0,1,.392,1.291.594.594,0,0,1-.23.379.674.674,0,0,1-.468.167c-.284-.029-.382-.08-.738-1.139a5.55,5.55,0,0,0-1.283-2.114,3.833,3.833,0,0,1,2.327,1.417Z"/>
        <path id="Path_1245448" data-name="Path 1245448" d="M4.571,62.392a4.147,4.147,0,0,0,.281,2.921A2.859,2.859,0,0,0,6.53,66.718a3.054,3.054,0,0,0,.94.15,2.837,2.837,0,0,0,1.3-.308c1.624-.841,1.544-2.417,1.491-3.452a3.046,3.046,0,0,1,.841-2.338l1.032-1.032a1.133,1.133,0,0,0-.987-1.92l-2.207.367a5.859,5.859,0,0,0-4.369,4.208Zm2.2.556a3.828,3.828,0,0,1,1.651-2.175A5.813,5.813,0,0,0,8,63.314c.051,1.017-.02,1.1-.275,1.232a.674.674,0,0,1-.5.017.59.59,0,0,1-.354-.269,1.884,1.884,0,0,1-.108-1.345Z"/>
        <path id="Path_1245449" data-name="Path 1245449" d="M15.15,21.333,12.24,17.454l-1.813,1.36,3.4,4.533a1.133,1.133,0,0,0,1.265.4l2.538-.847,2.932,4.887L22.5,26.617,19.1,20.95a1.136,1.136,0,0,0-1.331-.492Z"/>
        <path id="Path_1245450" data-name="Path 1245450" d="M36.186,22.606a4.542,4.542,0,0,0,.054,9.083H36.3A4.541,4.541,0,0,0,39.413,23.9,4.649,4.649,0,0,0,36.186,22.606Zm1.686,6.129a2.261,2.261,0,0,1-1.6.687,2.419,2.419,0,0,1-1.616-.645,2.275,2.275,0,0,1,1.558-3.9h.031a2.276,2.276,0,0,1,1.627,3.862Z"/>
        <path id="Path_1245451" data-name="Path 1245451" d="M45.617,20.523,42.7,17.683a1.292,1.292,0,0,0-.806-.322,1.127,1.127,0,0,0-.8.342l-1.023,1.051c-.247-.111-.5-.211-.754-.3l-.018-1.468a1.134,1.134,0,0,0-1.148-1.119l-4.07.052a1.133,1.133,0,0,0-1.119,1.148l.019,1.468c-.254.1-.5.2-.745.318L31.193,17.83a1.056,1.056,0,0,0-.806-.322,1.127,1.127,0,0,0-.8.342l-2.841,2.915a1.134,1.134,0,0,0,.02,1.6l1.052,1.023c-.111.246-.212.5-.3.753l-1.468.019a1.134,1.134,0,0,0-1.119,1.148l.052,4.07A1.133,1.133,0,0,0,26.12,30.5h.015l1.468-.019q.145.379.32.745L26.9,32.277a1.132,1.132,0,0,0,.02,1.6l2.914,2.84a1.2,1.2,0,0,0,.806.322,1.127,1.127,0,0,0,.8-.342l1.023-1.051c.247.111.5.211.754.3l.018,1.468a1.132,1.132,0,0,0,1.131,1.117h.015l4.07-.052a1.133,1.133,0,0,0,1.119-1.148l-.019-1.468c.254-.1.5-.2.745-.318l1.051,1.023a1.3,1.3,0,0,0,.806.322,1.127,1.127,0,0,0,.8-.342l2.841-2.915a1.134,1.134,0,0,0-.02-1.6l-1.052-1.023c.111-.246.212-.5.3-.753l1.468-.019A1.132,1.132,0,0,0,47.6,29.089l-.052-4.069A1.145,1.145,0,0,0,46.4,23.9l-1.468.019q-.144-.379-.32-.745l1.023-1.051a1.131,1.131,0,0,0-.018-1.6ZM45.3,26.184l.024,1.8L44.152,28a1.132,1.132,0,0,0-1.087.866,6.916,6.916,0,0,1-.722,1.809,1.134,1.134,0,0,0,.193,1.375l.836.815-1.258,1.292-.836-.816a1.137,1.137,0,0,0-1.382-.156,6.992,6.992,0,0,1-1.79.768,1.134,1.134,0,0,0-.835,1.108l.015,1.168-1.8.024-.015-1.168A1.133,1.133,0,0,0,34.6,34a6.947,6.947,0,0,1-1.81-.722,1.133,1.133,0,0,0-1.376.192l-.816.836-1.291-1.258.815-.836a1.133,1.133,0,0,0,.158-1.379,6.983,6.983,0,0,1-.768-1.791,1.165,1.165,0,0,0-1.108-.836l-1.168.015-.024-1.8,1.168-.015a1.132,1.132,0,0,0,1.087-.866,6.916,6.916,0,0,1,.722-1.809A1.134,1.134,0,0,0,30,22.352l-.836-.815,1.258-1.292.836.816a1.135,1.135,0,0,0,1.382.156,6.992,6.992,0,0,1,1.79-.768,1.134,1.134,0,0,0,.835-1.108l-.015-1.168,1.8-.024.015,1.168a1.133,1.133,0,0,0,.865,1.087,6.947,6.947,0,0,1,1.81.722,1.135,1.135,0,0,0,1.376-.192l.816-.836,1.291,1.258-.815.836a1.133,1.133,0,0,0-.158,1.379,6.983,6.983,0,0,1,.768,1.791,1.133,1.133,0,0,0,1.094.836h.015Z"/>
        <path id="Path_1245452" data-name="Path 1245452" d="M19.148,32.361l-2.267-4.533a1.135,1.135,0,0,0-1.372-.568l-2.65.884L8.82,23.093l-1.77,1.416,4.533,5.667a1.131,1.131,0,0,0,1.244.367l2.467-.823,1.827,3.654Z"/>
        <path id="Path_1245453" data-name="Path 1245453" d="M58.61,24.42l-2.186-1.7A1.134,1.134,0,0,0,55,22.748L49.92,26.967l1.447,1.744,4.386-3.638,2.113,1.64a1.132,1.132,0,0,0,1.325.046l4.71-3.15-1.259-1.884Z"/>
        <path id="Path_1245454" data-name="Path 1245454" d="M58.515,31.6l-2.207-1.712a1.133,1.133,0,0,0-1.484.082L51.183,33.5l1.576,1.629L55.7,32.286,57.75,33.88a1.136,1.136,0,0,0,1.3.066L65.2,30.1,64,28.181Z"/>
        <path id="Path_1245455" data-name="Path 1245455" d="M69.871,9.34l-7.933-6.8a1.133,1.133,0,0,0-1.87.86V5.667h-13.6A1.133,1.133,0,0,0,45.334,6.8v6.8a1.133,1.133,0,0,0,1.133,1.133h13.6V17a1.132,1.132,0,0,0,1.87.86l7.933-6.8a1.131,1.131,0,0,0,0-1.72Zm-7.537,5.2V13.6A1.133,1.133,0,0,0,61.2,12.467H47.6V7.933H61.2A1.133,1.133,0,0,0,62.334,6.8V5.864L67.394,10.2Z"/>
        <path id="Path_1245456" data-name="Path 1245456" d="M46.467,39.667v13.6A1.134,1.134,0,0,1,45.334,54.4H41.823a7.669,7.669,0,0,0,2.288-4.6,5.269,5.269,0,0,0,.09-1.064,7.933,7.933,0,1,0-15.867,0,4.949,4.949,0,0,0,.075.976A7.835,7.835,0,0,0,30.723,54.4H27.2a1.134,1.134,0,0,1-1.133-1.133v-13.6a1.133,1.133,0,0,0-1.133-1.133H19.267a1.133,1.133,0,0,0-1.133,1.133v17A5.673,5.673,0,0,0,23.8,62.334h2.267v7.933h2.267V61.2A1.133,1.133,0,0,0,27.2,60.068H23.8a3.4,3.4,0,0,1-3.4-3.4V40.8h3.4V53.268a3.4,3.4,0,0,0,3.4,3.4h7.431L31.806,64.2a1.135,1.135,0,0,0,.155,1.078l3.4,4.533a1.133,1.133,0,0,0,1.813,0l3.4-4.533A1.135,1.135,0,0,0,40.73,64.2L37.9,56.668h7.431a3.4,3.4,0,0,0,3.4-3.4V40.8h3.4V56.668a3.4,3.4,0,0,1-3.4,3.4h-3.4A1.133,1.133,0,0,0,44.2,61.2v9.067h2.267V62.334h2.267A5.673,5.673,0,0,0,54.4,56.668v-17a1.133,1.133,0,0,0-1.133-1.133H47.6A1.133,1.133,0,0,0,46.467,39.667Zm-10.2,3.4a5.656,5.656,0,0,1,5.408,4.066,9.026,9.026,0,0,0-10.817,0A5.656,5.656,0,0,1,36.267,43.067Zm2.12,21.35-2.121,2.828-2.12-2.828,2.12-5.655ZM36.267,54.4a5.637,5.637,0,0,1-5.419-4.09,6.773,6.773,0,0,1,10.841,0A5.633,5.633,0,0,1,36.267,54.4Z"/>
      </g>
    </g>
  </g>
</svg>
