<svg xmlns="http://www.w3.org/2000/svg" xmlns:xlink="http://www.w3.org/1999/xlink" width="110" height="110" viewBox="0 0 110 110">
  <defs>
    <clipPath id="clip-path">
      <rect id="Rectangle_412353" data-name="Rectangle 412353" width="71" height="68" transform="translate(764.051 7125.994)" fill="#fff" stroke="#707070" stroke-width="1"/>
    </clipPath>
  </defs>
  <g id="Group_1205098" data-name="Group 1205098" transform="translate(-745 -7104.994)">
    <circle id="Ellipse_12876" data-name="Ellipse 12876" cx="55" cy="55" r="55" transform="translate(745 7104.994)" fill="#f5ae5c"/>
    <g id="Mask_Group_1099379" data-name="Mask Group 1099379" clip-path="url(#clip-path)">
      <g id="timer_878910" transform="translate(765.551 7125.994)">
        <path id="Path_1245457" data-name="Path 1245457" d="M56.465,21.442l3.559-3.559-5.192-5.192L51.3,16.219" fill="#f15d5c"/>
        <path id="Path_1245458" data-name="Path 1245458" d="M34,66.672a28.191,28.191,0,1,1,19.934-8.257A28.006,28.006,0,0,1,34,66.672Z" fill="#009796"/>
        <circle id="Ellipse_13059" data-name="Ellipse 13059" cx="22.995" cy="22.995" r="22.995" transform="translate(11.005 15.486)" fill="#dd976d"/>
        <path id="Path_1245459" data-name="Path 1245459" d="M58.209,21.576l2.755-2.755a1.328,1.328,0,0,0,0-1.878l-5.192-5.192a1.328,1.328,0,0,0-1.878,0l-2.715,2.715a29.2,29.2,0,0,0-8.07-4.08V9.109a9.108,9.108,0,1,0-18.217,0v1.278A29.521,29.521,0,1,0,58.209,21.576Zm-3.376-7.007,3.314,3.314-1.573,1.573q-.806-.953-1.7-1.847-.775-.775-1.6-1.484ZM27.548,9.108a6.452,6.452,0,1,1,12.9,0v.556a29.956,29.956,0,0,0-12.9,0ZM52.995,57.476a26.863,26.863,0,1,1,7.868-18.995A26.687,26.687,0,0,1,52.995,57.476Z"/>
        <path id="Path_1245460" data-name="Path 1245460" d="M34,14.157A24.324,24.324,0,1,0,58.324,38.481,24.351,24.351,0,0,0,34,14.157Zm0,45.991A21.667,21.667,0,1,1,55.667,38.481,21.692,21.692,0,0,1,34,60.148Z"/>
        <path id="SVGCleanerId_0" d="M34,56.281a17.8,17.8,0,1,1,17.8-17.8A17.82,17.82,0,0,1,34,56.281Z" fill="#c9fdfb"/>
        <path id="SVGCleanerId_1" d="M34,57.609A19.128,19.128,0,1,1,53.128,38.481,19.15,19.15,0,0,1,34,57.609Zm0-35.6A16.472,16.472,0,1,0,50.472,38.481,16.491,16.491,0,0,0,34,22.009Z"/>
        <g id="Group_1205094" data-name="Group 1205094">
          <path id="SVGCleanerId_0_1_" d="M34,56.281a17.8,17.8,0,1,1,17.8-17.8A17.82,17.82,0,0,1,34,56.281Z" fill="#c9fdfb"/>
        </g>
        <g id="Group_1205095" data-name="Group 1205095">
          <path id="SVGCleanerId_1_1_" d="M34,57.609A19.128,19.128,0,1,1,53.128,38.481,19.15,19.15,0,0,1,34,57.609Zm0-35.6A16.472,16.472,0,1,0,50.472,38.481,16.491,16.491,0,0,0,34,22.009Z"/>
        </g>
        <path id="Path_1245461" data-name="Path 1245461" d="M25.472,30.694a1.307,1.307,0,0,1-.259-.025,1.341,1.341,0,0,1-.248-.076,1.311,1.311,0,0,1-.23-.122,1.318,1.318,0,0,1-.367-.368,1.347,1.347,0,0,1-.122-.228,1.373,1.373,0,0,1-.076-.248,1.282,1.282,0,0,1,0-.519,1.341,1.341,0,0,1,.076-.248,1.36,1.36,0,0,1,.122-.23,1.334,1.334,0,0,1,.165-.2,1.271,1.271,0,0,1,.2-.165,1.311,1.311,0,0,1,.23-.122,1.341,1.341,0,0,1,.248-.076,1.315,1.315,0,0,1,.519,0,1.373,1.373,0,0,1,.248.076,1.347,1.347,0,0,1,.228.122,1.271,1.271,0,0,1,.2.165,1.428,1.428,0,0,1,.166.2,1.36,1.36,0,0,1,.122.23,1.341,1.341,0,0,1,.076.248,1.307,1.307,0,0,1,.025.259,1.32,1.32,0,0,1-.025.26,1.373,1.373,0,0,1-.076.248,1.323,1.323,0,0,1-.288.43,1.279,1.279,0,0,1-.2.166,1.347,1.347,0,0,1-.228.122,1.373,1.373,0,0,1-.248.076A1.33,1.33,0,0,1,25.472,30.694Z"/>
        <path id="Path_1245462" data-name="Path 1245462" d="M34,52.3A13.816,13.816,0,0,1,21.221,33.23a1.328,1.328,0,1,1,2.456,1.013A11.157,11.157,0,0,0,43.288,44.661,1.328,1.328,0,1,1,45.5,46.136,13.805,13.805,0,0,1,34,52.3Z"/>
        <path id="Path_1245463" data-name="Path 1245463" d="M34.265,28.225V38.481h8.257" fill="#c9fdfb"/>
        <path id="Path_1245464" data-name="Path 1245464" d="M42.522,39.809H34.265a1.328,1.328,0,0,1-1.328-1.328V28.225a1.328,1.328,0,0,1,2.656,0v8.928h6.929a1.328,1.328,0,0,1,0,2.656Z"/>
      </g>
    </g>
  </g>
</svg>
