<svg xmlns="http://www.w3.org/2000/svg" xmlns:xlink="http://www.w3.org/1999/xlink" width="110" height="110" viewBox="0 0 110 110">
  <defs>
    <clipPath id="clip-path">
      <rect id="Rectangle_412490" data-name="Rectangle 412490" width="71" height="68" transform="translate(399.051 7125.994)" fill="#fff" stroke="#707070" stroke-width="1"/>
    </clipPath>
  </defs>
  <g id="Group_1205099" data-name="Group 1205099" transform="translate(-380 -7104.994)">
    <circle id="Ellipse_12989" data-name="Ellipse 12989" cx="55" cy="55" r="55" transform="translate(380 7104.994)" fill="#f5ae5c"/>
    <g id="Mask_Group_1099378" data-name="Mask Group 1099378" clip-path="url(#clip-path)">
      <g id="Page-1" transform="translate(400.551 7125.994)">
        <g id="_049---Meet-Deadlines" data-name="049---Meet-Deadlines">
          <path id="Shape" d="M60.067,19.267V41.481a13.613,13.613,0,0,0-20.4,11.787,13.012,13.012,0,0,0,.442,3.4H4.533a3.4,3.4,0,0,1-3.4-3.4v-34Z" fill="#dde5eb"/>
          <path id="Shape-2" data-name="Shape" d="M60.067,10.2v9.067H1.133V10.2a3.4,3.4,0,0,1,3.4-3.4H10.2v3.4a2.273,2.273,0,0,0,2.267,2.267H13.6A2.273,2.273,0,0,0,15.867,10.2V6.8H27.2v3.4a2.273,2.273,0,0,0,2.267,2.267H30.6A2.273,2.273,0,0,0,32.867,10.2V6.8H45.334v3.4A2.273,2.273,0,0,0,47.6,12.467h1.133A2.273,2.273,0,0,0,51,10.2V6.8h5.667A3.4,3.4,0,0,1,60.067,10.2Z" fill="#eb0017"/>
          <rect id="Rectangle-path" width="5.667" height="11.333" rx="2.267" transform="translate(10.2 1.133)" fill="#dde5eb"/>
          <rect id="Rectangle-path-2" data-name="Rectangle-path" width="5.667" height="11.333" rx="2.267" transform="translate(27.2 1.133)" fill="#dde5eb"/>
          <rect id="Rectangle-path-3" data-name="Rectangle-path" width="5.667" height="11.333" rx="2.267" transform="translate(45.334 1.133)" fill="#dde5eb"/>
          <path id="Shape-3" data-name="Shape" d="M66.868,53.267a13.6,13.6,0,0,1-26.543,4.182c-.079-.261-.159-.521-.215-.782a13.012,13.012,0,0,1-.442-3.4,13.6,13.6,0,0,1,27.2,0Z" fill="#6ad202"/>
          <rect id="Rectangle-path-4" data-name="Rectangle-path" width="9.067" height="9.067" rx="1.133" transform="translate(10.2 24.934)" fill="#1274aa"/>
          <rect id="Rectangle-path-5" data-name="Rectangle-path" width="9.067" height="9.067" rx="1.133" transform="translate(26.067 24.934)" fill="#1274aa"/>
          <rect id="Rectangle-path-6" data-name="Rectangle-path" width="9.067" height="9.067" rx="1.133" transform="translate(10.2 38.534)" fill="#1274aa"/>
          <rect id="Rectangle-path-7" data-name="Rectangle-path" width="9.067" height="9.067" rx="1.133" transform="translate(26.067 38.534)" fill="#1274aa"/>
          <rect id="Rectangle-path-8" data-name="Rectangle-path" width="9.067" height="9.067" rx="1.133" transform="translate(41.934 24.934)" fill="#1274aa"/>
          <path id="Shape-4" data-name="Shape" d="M5.667,43.067a1.133,1.133,0,0,1-1.133-1.133V40.8a1.133,1.133,0,0,1,2.267,0v1.133A1.133,1.133,0,0,1,5.667,43.067Z" fill="#fff"/>
          <path id="Shape-5" data-name="Shape" d="M10.2,53.267H6.8A2.267,2.267,0,0,1,4.533,51V46.467a1.133,1.133,0,1,1,2.267,0V51h3.4a1.133,1.133,0,0,1,0,2.267Z" fill="#fff"/>
          <path id="Shape-6" data-name="Shape" d="M15.867,53.267H14.734a1.133,1.133,0,0,1,0-2.267h1.133a1.133,1.133,0,0,1,0,2.267Z" fill="#fff"/>
          <g id="Group_1205093" data-name="Group 1205093">
            <path id="Shape-7" data-name="Shape" d="M61.2,40.853V10.2a4.533,4.533,0,0,0-4.533-4.533H52.134V3.4a3.4,3.4,0,0,0-3.4-3.4H47.6a3.4,3.4,0,0,0-3.4,3.4V5.667H34V3.4A3.4,3.4,0,0,0,30.6,0H29.467a3.4,3.4,0,0,0-3.4,3.4V5.667H17V3.4A3.4,3.4,0,0,0,13.6,0H12.467a3.4,3.4,0,0,0-3.4,3.4V5.667H4.533A4.533,4.533,0,0,0,0,10.2V53.267A4.533,4.533,0,0,0,4.533,57.8H39.247A14.734,14.734,0,1,0,61.2,40.853ZM46.467,3.4A1.133,1.133,0,0,1,47.6,2.267h1.133A1.133,1.133,0,0,1,49.867,3.4v6.8a1.133,1.133,0,0,1-1.133,1.133H47.6A1.133,1.133,0,0,1,46.467,10.2Zm-18.134,0a1.133,1.133,0,0,1,1.133-1.133H30.6A1.133,1.133,0,0,1,31.734,3.4v6.8A1.133,1.133,0,0,1,30.6,11.333H29.467A1.133,1.133,0,0,1,28.334,10.2Zm-17,0a1.133,1.133,0,0,1,1.133-1.133H13.6A1.133,1.133,0,0,1,14.734,3.4v6.8A1.133,1.133,0,0,1,13.6,11.333H12.467A1.133,1.133,0,0,1,11.333,10.2ZM2.267,10.2A2.267,2.267,0,0,1,4.533,7.933H9.067V10.2a3.4,3.4,0,0,0,3.4,3.4H13.6A3.4,3.4,0,0,0,17,10.2V7.933h9.067V10.2a3.4,3.4,0,0,0,3.4,3.4H30.6A3.4,3.4,0,0,0,34,10.2V7.933H44.2V10.2a3.4,3.4,0,0,0,3.4,3.4h1.133a3.4,3.4,0,0,0,3.4-3.4V7.933h4.533A2.267,2.267,0,0,1,58.934,10.2v7.933H2.267ZM4.533,55.534a2.267,2.267,0,0,1-2.267-2.267V20.4H58.934V39.659c-.036-.015-.075-.026-.113-.041-.236-.1-.476-.181-.716-.264-.113-.041-.227-.086-.348-.124-.36-.113-.724-.218-1.091-.3a14.749,14.749,0,0,0-18.131,14.34,14.6,14.6,0,0,0,.107,1.674c.012.113.024.227.04.34.011.084.017.17.029.253Zm48.734,10.2a12.415,12.415,0,0,1-11.859-8.613c-.07-.232-.142-.462-.206-.747a11.917,11.917,0,0,1-.4-3.107A12.482,12.482,0,0,1,56.147,41.134c.34.079.673.177,1,.286a12.465,12.465,0,0,1-3.884,24.315Z"/>
            <path id="Shape-8" data-name="Shape" d="M18.134,23.8h-6.8a2.267,2.267,0,0,0-2.267,2.267v6.8a2.267,2.267,0,0,0,2.267,2.267h6.8A2.267,2.267,0,0,0,20.4,32.867v-6.8A2.267,2.267,0,0,0,18.134,23.8Zm-6.8,9.067v-6.8h6.8v6.8Z"/>
            <path id="Shape-9" data-name="Shape" d="M34,23.8H27.2a2.267,2.267,0,0,0-2.267,2.267v6.8A2.267,2.267,0,0,0,27.2,35.134H34a2.267,2.267,0,0,0,2.267-2.267v-6.8A2.267,2.267,0,0,0,34,23.8Zm-6.8,9.067v-6.8H34v6.8Z"/>
            <path id="Shape-10" data-name="Shape" d="M18.134,37.4h-6.8a2.267,2.267,0,0,0-2.267,2.267v6.8a2.267,2.267,0,0,0,2.267,2.267h6.8A2.267,2.267,0,0,0,20.4,46.467v-6.8A2.267,2.267,0,0,0,18.134,37.4Zm-6.8,9.067v-6.8h6.8v6.8Z"/>
            <path id="Shape-11" data-name="Shape" d="M34,37.4H27.2a2.267,2.267,0,0,0-2.267,2.267v6.8A2.267,2.267,0,0,0,27.2,48.734H34a2.267,2.267,0,0,0,2.267-2.267v-6.8A2.267,2.267,0,0,0,34,37.4Zm-6.8,9.067v-6.8H34v6.8Z"/>
            <path id="Shape-12" data-name="Shape" d="M43.067,35.134h6.8a2.267,2.267,0,0,0,2.267-2.267v-6.8A2.267,2.267,0,0,0,49.867,23.8h-6.8A2.267,2.267,0,0,0,40.8,26.067v6.8A2.267,2.267,0,0,0,43.067,35.134Zm0-9.067h6.8v6.8h-6.8Z"/>
            <path id="Shape-13" data-name="Shape" d="M58.1,47.971l-7.4,8.145-2.253-2.479a1.134,1.134,0,0,0-1.677,1.525l3.091,3.4a1.133,1.133,0,0,0,1.678,0L59.773,49.5A1.134,1.134,0,1,0,58.1,47.971Z"/>
          </g>
        </g>
      </g>
    </g>
  </g>
</svg>
