<svg xmlns="http://www.w3.org/2000/svg" xmlns:xlink="http://www.w3.org/1999/xlink" width="110" height="110" viewBox="0 0 110 110">
  <defs>
    <clipPath id="clip-path">
      <rect id="Rectangle_412353" data-name="Rectangle 412353" width="71" height="68" transform="translate(1129.258 7125.994)" fill="#fff" stroke="#707070" stroke-width="1"/>
    </clipPath>
  </defs>
  <g id="Group_1205097" data-name="Group 1205097" transform="translate(-1110.207 -7104.994)">
    <circle id="Ellipse_12876" data-name="Ellipse 12876" cx="55" cy="55" r="55" transform="translate(1110.207 7104.994)" fill="#f5ae5c"/>
    <g id="Mask_Group_1099380" data-name="Mask Group 1099380" clip-path="url(#clip-path)">
      <g id="linear_color_2_ok" data-name="linear color 2_ok" transform="translate(1129.65 7124.873)">
        <path id="Path_1245465" data-name="Path 1245465" d="M35.109,2.194,38.4,6.583l5.486,2.194L40.6,13.166v5.486l-5.486-1.9-5.486,1.9V13.166L26.332,8.777l5.486-2.194Z" fill="#fcc96d"/>
        <path id="Path_1245466" data-name="Path 1245466" d="M53.761,9.875l3.292,4.389,5.486,2.194-3.292,4.389v5.486l-5.486-1.9-5.486,1.9V20.846l-3.292-4.389,5.486-2.194Z" fill="#fcc96d"/>
        <path id="Path_1245467" data-name="Path 1245467" d="M16.458,9.875l3.292,4.389,5.486,2.194-3.292,4.389v5.486l-5.486-1.9-5.486,1.9V20.846L7.68,16.458l5.486-2.194Z" fill="#fcc96d"/>
        <path id="Path_1245468" data-name="Path 1245468" d="M11.6,39.63H31.746V57.471H11.6Z" transform="translate(40.684 -1.106) rotate(45)" fill="#efc7bd"/>
        <path id="Path_1245469" data-name="Path 1245469" d="M20.846,35.109H39.5a3.292,3.292,0,0,1,0,6.583H20.846Z" fill="#efc7bd"/>
        <path id="Path_1245470" data-name="Path 1245470" d="M48.275,52.664,67.005,33.1a3.292,3.292,0,1,0-4.655-4.655L49.373,41.692H26.332V52.664Z" fill="#efc7bd"/>
        <path id="Path_1245471" data-name="Path 1245471" d="M9.928,41.663H20.787V68.037H9.928Z" transform="translate(-34.292 26.929) rotate(-45)" fill="#c8b7fd"/>
        <g id="Group_1205096" data-name="Group 1205096">
          <path id="Path_1245472" data-name="Path 1245472" d="M40.6,19.749a1.1,1.1,0,0,1-.36-.06l-5.126-1.776-5.126,1.776a1.1,1.1,0,0,1-1.457-1.037v-5.12l-3.072-4.1a1.1,1.1,0,0,1,.47-1.678l5.2-2.079,3.107-4.143a1.137,1.137,0,0,1,1.755,0l3.107,4.143,5.2,2.079a1.1,1.1,0,0,1,.47,1.678l-3.072,4.1v5.12a1.1,1.1,0,0,1-1.1,1.1Zm-5.486-4.1a1.126,1.126,0,0,1,.36.06l4.029,1.4v-3.95a1.1,1.1,0,0,1,.219-.658L42.15,9.264,37.993,7.6a1.1,1.1,0,0,1-.47-.361L35.109,4.023,32.7,7.241a1.1,1.1,0,0,1-.47.361L28.069,9.264,30.5,12.508a1.1,1.1,0,0,1,.219.658v3.95l4.029-1.4a1.126,1.126,0,0,1,.36-.066Z" fill="#231f20"/>
          <path id="Path_1245473" data-name="Path 1245473" d="M59.247,27.429a1.1,1.1,0,0,1-.36-.06l-5.126-1.776-5.126,1.776a1.1,1.1,0,0,1-1.457-1.037v-5.12l-3.072-4.1a1.1,1.1,0,0,1,.47-1.678l5.2-2.079,3.107-4.143a1.137,1.137,0,0,1,1.755,0l3.107,4.143,5.2,2.079a1.1,1.1,0,0,1,.47,1.678l-3.072,4.1v5.12a1.1,1.1,0,0,1-1.1,1.1Zm-5.486-4.1a1.126,1.126,0,0,1,.36.06l4.029,1.4v-3.95a1.1,1.1,0,0,1,.219-.658L60.8,16.945l-4.157-1.662a1.1,1.1,0,0,1-.47-.361L53.761,11.7l-2.414,3.218a1.1,1.1,0,0,1-.47.361l-4.157,1.662,2.432,3.243a1.1,1.1,0,0,1,.219.658V24.8L53.4,23.4a1.126,1.126,0,0,1,.36-.066Z" fill="#231f20"/>
          <path id="Path_1245474" data-name="Path 1245474" d="M21.943,27.429a1.1,1.1,0,0,1-.36-.06l-5.126-1.776-5.126,1.776a1.1,1.1,0,0,1-1.457-1.037v-5.12L6.8,17.116a1.1,1.1,0,0,1,.47-1.678l5.2-2.079L15.58,9.216a1.137,1.137,0,0,1,1.755,0l3.107,4.143,5.2,2.079a1.1,1.1,0,0,1,.47,1.678l-3.072,4.1v5.12a1.1,1.1,0,0,1-1.1,1.1Zm-5.486-4.1a1.126,1.126,0,0,1,.36.06l4.029,1.4v-3.95a1.1,1.1,0,0,1,.219-.658L23.5,16.945l-4.157-1.662a1.1,1.1,0,0,1-.47-.361L16.458,11.7l-2.414,3.218a1.1,1.1,0,0,1-.47.361L9.417,16.945l2.432,3.243a1.1,1.1,0,0,1,.219.658V24.8L16.1,23.4A1.126,1.126,0,0,1,16.458,23.333Z" fill="#231f20"/>
          <path id="Path_1245475" data-name="Path 1245475" d="M20.846,69.122a1.1,1.1,0,0,1-.776-.321L1.419,50.148a1.1,1.1,0,0,1,0-1.551l7.68-7.68a1.1,1.1,0,0,1,1.551,0L29.3,59.569a1.1,1.1,0,0,1,0,1.551l-7.68,7.68a1.1,1.1,0,0,1-.776.321ZM3.746,49.373l17.1,17.1,6.129-6.129-17.1-17.1Z" fill="#231f20"/>
          <path id="Path_1245476" data-name="Path 1245476" d="M12.069,44.984a1.1,1.1,0,0,1-.776-1.873l8.777-8.777a1.1,1.1,0,0,1,.776-.321H39.5a4.389,4.389,0,0,1,0,8.777h-7.68a1.1,1.1,0,0,1,0-2.194H39.5a2.194,2.194,0,0,0,0-4.389H21.3l-8.456,8.456A1.1,1.1,0,0,1,12.069,44.984Z" fill="#231f20"/>
          <path id="Path_1245477" data-name="Path 1245477" d="M26.332,59.247a1.1,1.1,0,0,1-.776-1.873l5.486-5.486a1.1,1.1,0,0,1,.776-.321H47.8L66.379,31.928a2.015,2.015,0,1,0-2.894-2.806L50.149,42.468a1.1,1.1,0,0,1-.777.321H38.4a1.1,1.1,0,0,1,0-2.194H48.917l13.015-13.03a4.21,4.21,0,0,1,6.041,5.864l-18.9,19.988a1.1,1.1,0,0,1-.8.343h-16l-5.164,5.164a1.1,1.1,0,0,1-.776.321Z" fill="#231f20"/>
        </g>
      </g>
    </g>
  </g>
</svg>
