<svg xmlns="http://www.w3.org/2000/svg" xmlns:xlink="http://www.w3.org/1999/xlink" width="110" height="110" viewBox="0 0 110 110">
  <defs>
    <clipPath id="clip-path">
      <rect id="Rectangle_412351" data-name="Rectangle 412351" width="71" height="68" transform="translate(1111.812 12333.797)" fill="#fff" stroke="#707070" stroke-width="1"/>
    </clipPath>
  </defs>
  <g id="Group_1205103" data-name="Group 1205103" transform="translate(-1092.761 -12312.797)">
    <circle id="Ellipse_12874" data-name="Ellipse 12874" cx="55" cy="55" r="55" transform="translate(1092.761 12312.797)" fill="#f5ae5c"/>
    <g id="Mask_Group_1099382" data-name="Mask Group 1099382" clip-path="url(#clip-path)">
      <g id="data-collecting_1671555" transform="translate(1113.312 12333.797)">
        <path id="Path_1245491" data-name="Path 1245491" d="M66.867,32.866V64.6A2.274,2.274,0,0,1,64.6,66.867H3.4A2.273,2.273,0,0,1,1.134,64.6V32.005a3.417,3.417,0,0,1,1-2.4l2.538-2.538a3.417,3.417,0,0,1,2.4-1H20.128a3.417,3.417,0,0,1,2.4,1L25.069,29.6a3.417,3.417,0,0,0,2.4,1H64.6a2.274,2.274,0,0,1,2.267,2.267Zm0,0" fill="#0377bc"/>
        <path id="Path_1245492" data-name="Path 1245492" d="M63.467,32.866V64.6A2.273,2.273,0,0,1,61.2,66.867H3.4A2.273,2.273,0,0,1,1.134,64.6V32.005a3.417,3.417,0,0,1,1-2.4l2.538-2.538a3.417,3.417,0,0,1,2.4-1h9.656a3.415,3.415,0,0,1,2.4,1L21.669,29.6a3.418,3.418,0,0,0,2.4,1H61.2a2.273,2.273,0,0,1,2.267,2.267Zm0,0" fill="#02a9f4"/>
        <path id="Path_1245493" data-name="Path 1245493" d="M6.8,37.4H20.4a1.133,1.133,0,0,1,1.133,1.133V40.8A1.133,1.133,0,0,1,20.4,41.934H6.8A1.133,1.133,0,0,1,5.667,40.8V38.533A1.133,1.133,0,0,1,6.8,37.4Zm0,0" fill="#00695c"/>
        <path id="Path_1245494" data-name="Path 1245494" d="M6.8,37.4H17a1.133,1.133,0,0,1,1.134,1.133V40.8A1.133,1.133,0,0,1,17,41.934H6.8A1.133,1.133,0,0,1,5.667,40.8V38.533A1.133,1.133,0,0,1,6.8,37.4Zm0,0" fill="#009688"/>
        <g id="Group_1205102" data-name="Group 1205102">
          <path id="Path_1245495" data-name="Path 1245495" d="M31.733,28.333H34a1.133,1.133,0,0,1,1.134,1.134v2.267A1.133,1.133,0,0,1,34,32.866H31.733A1.133,1.133,0,0,1,30.6,31.733V29.467a1.133,1.133,0,0,1,1.134-1.134Zm0,0" fill="#3f51b5"/>
          <path id="Path_1245496" data-name="Path 1245496" d="M31.733,19.267H34A1.133,1.133,0,0,1,35.134,20.4v2.267A1.133,1.133,0,0,1,34,23.8H31.733A1.133,1.133,0,0,1,30.6,22.667V20.4a1.133,1.133,0,0,1,1.134-1.134Zm0,0" fill="#3f51b5"/>
          <path id="Path_1245497" data-name="Path 1245497" d="M31.733,10.2H34a1.133,1.133,0,0,1,1.134,1.133V13.6A1.133,1.133,0,0,1,34,14.733H31.733A1.133,1.133,0,0,1,30.6,13.6V11.333A1.133,1.133,0,0,1,31.733,10.2Zm0,0" fill="#3f51b5"/>
          <path id="Path_1245498" data-name="Path 1245498" d="M31.733,1.134H34a1.133,1.133,0,0,1,1.134,1.133V4.533A1.133,1.133,0,0,1,34,5.667H31.733A1.133,1.133,0,0,1,30.6,4.533V2.267a1.133,1.133,0,0,1,1.134-1.133Zm0,0" fill="#3f51b5"/>
        </g>
        <path id="Path_1245499" data-name="Path 1245499" d="M40.8,28.333h2.267A1.133,1.133,0,0,1,44.2,29.467v2.267a1.133,1.133,0,0,1-1.134,1.133H40.8a1.133,1.133,0,0,1-1.133-1.133V29.467A1.133,1.133,0,0,1,40.8,28.333Zm0,0" fill="#ffdc00"/>
        <path id="Path_1245500" data-name="Path 1245500" d="M40.8,10.2h2.267A1.133,1.133,0,0,1,44.2,11.333V13.6a1.133,1.133,0,0,1-1.134,1.134H40.8A1.133,1.133,0,0,1,39.667,13.6V11.333A1.133,1.133,0,0,1,40.8,10.2Zm0,0" fill="#ffdc00"/>
        <path id="Path_1245501" data-name="Path 1245501" d="M49.867,19.267h2.267A1.133,1.133,0,0,1,53.267,20.4v2.267A1.133,1.133,0,0,1,52.134,23.8H49.867a1.133,1.133,0,0,1-1.134-1.133V20.4A1.133,1.133,0,0,1,49.867,19.267Zm0,0" fill="#ef314c"/>
        <path id="Path_1245502" data-name="Path 1245502" d="M49.867,1.134h2.267a1.133,1.133,0,0,1,1.133,1.133V4.533a1.133,1.133,0,0,1-1.133,1.134H49.867a1.133,1.133,0,0,1-1.134-1.134V2.267a1.133,1.133,0,0,1,1.134-1.133Zm0,0" fill="#ef314c"/>
        <path id="Path_1245503" data-name="Path 1245503" d="M58.933,28.333H61.2a1.133,1.133,0,0,1,1.133,1.134v2.267A1.133,1.133,0,0,1,61.2,32.866H58.933A1.133,1.133,0,0,1,57.8,31.733V29.467A1.133,1.133,0,0,1,58.933,28.333Zm0,0" fill="#9d27b0"/>
        <path id="Path_1245504" data-name="Path 1245504" d="M31.733,37.4H34a1.133,1.133,0,0,1,1.134,1.133V40.8A1.133,1.133,0,0,1,34,41.934H31.733A1.133,1.133,0,0,1,30.6,40.8V38.533A1.133,1.133,0,0,1,31.733,37.4Zm0,0" fill="#3f51b5"/>
        <path id="Path_1245505" data-name="Path 1245505" d="M49.867,37.4h2.267a1.133,1.133,0,0,1,1.133,1.133V40.8a1.133,1.133,0,0,1-1.133,1.134H49.867A1.133,1.133,0,0,1,48.733,40.8V38.533A1.133,1.133,0,0,1,49.867,37.4Zm0,0" fill="#ef314c"/>
        <path id="Path_1245506" data-name="Path 1245506" d="M40.8,46.467h2.267A1.133,1.133,0,0,1,44.2,47.6v2.267A1.133,1.133,0,0,1,43.067,51H40.8a1.133,1.133,0,0,1-1.133-1.134V47.6A1.133,1.133,0,0,1,40.8,46.467Zm0,0" fill="#ffdc00"/>
        <path id="Path_1245507" data-name="Path 1245507" d="M49.867,55.533h2.267a1.133,1.133,0,0,1,1.133,1.134v2.267a1.133,1.133,0,0,1-1.133,1.133H49.867a1.133,1.133,0,0,1-1.134-1.133V56.667A1.133,1.133,0,0,1,49.867,55.533Zm0,0" fill="#ef314c"/>
        <path id="Path_1245508" data-name="Path 1245508" d="M58.933,10.2H61.2a1.133,1.133,0,0,1,1.133,1.133V13.6A1.133,1.133,0,0,1,61.2,14.733H58.933A1.133,1.133,0,0,1,57.8,13.6V11.333A1.133,1.133,0,0,1,58.933,10.2Zm0,0" fill="#9d27b0"/>
        <path id="Path_1245509" data-name="Path 1245509" d="M58.933,46.467H61.2A1.133,1.133,0,0,1,62.333,47.6v2.267A1.133,1.133,0,0,1,61.2,51H58.933A1.133,1.133,0,0,1,57.8,49.866V47.6A1.133,1.133,0,0,1,58.933,46.467Zm0,0" fill="#9d27b0"/>
        <path id="Path_1245510" data-name="Path 1245510" d="M58.933,1.134H61.2a1.133,1.133,0,0,1,1.133,1.133V4.533A1.133,1.133,0,0,1,61.2,5.667H58.933A1.133,1.133,0,0,1,57.8,4.533V2.267a1.133,1.133,0,0,1,1.134-1.133Zm0,0" fill="#9d27b0"/>
        <path id="Path_1245511" data-name="Path 1245511" d="M20.4,43.067H6.8A2.269,2.269,0,0,1,4.533,40.8V38.533A2.269,2.269,0,0,1,6.8,36.267H20.4a2.269,2.269,0,0,1,2.267,2.267V40.8A2.269,2.269,0,0,1,20.4,43.067ZM6.8,38.533V40.8H20.4l0-2.267Zm0,0"/>
        <path id="Path_1245512" data-name="Path 1245512" d="M21.533,54.4H5.667a1.133,1.133,0,1,1,0-2.267H21.533a1.133,1.133,0,1,1,0,2.267Zm0,0"/>
        <path id="Path_1245513" data-name="Path 1245513" d="M30.6,58.933H5.667a1.133,1.133,0,1,1,0-2.267H30.6a1.133,1.133,0,1,1,0,2.267Zm0,0"/>
        <path id="Path_1245514" data-name="Path 1245514" d="M14.733,63.467H5.667a1.133,1.133,0,1,1,0-2.267h9.067a1.133,1.133,0,1,1,0,2.267Zm0,0"/>
        <path id="Path_1245515" data-name="Path 1245515" d="M34,34H31.733a2.269,2.269,0,0,1-2.267-2.267V29.467A2.269,2.269,0,0,1,31.733,27.2H34a2.269,2.269,0,0,1,2.267,2.267v2.267A2.269,2.269,0,0,1,34,34Zm-2.267-4.533v2.267H34l0-2.267Zm0,0"/>
        <path id="Path_1245516" data-name="Path 1245516" d="M34,24.933H31.733a2.269,2.269,0,0,1-2.267-2.267V20.4a2.269,2.269,0,0,1,2.267-2.267H34A2.269,2.269,0,0,1,36.267,20.4v2.267A2.269,2.269,0,0,1,34,24.933ZM31.733,20.4v2.267H34L34,20.4Zm0,0"/>
        <path id="Path_1245517" data-name="Path 1245517" d="M34,15.866H31.733A2.269,2.269,0,0,1,29.467,13.6V11.333a2.269,2.269,0,0,1,2.267-2.267H34a2.269,2.269,0,0,1,2.267,2.267V13.6A2.269,2.269,0,0,1,34,15.866Zm-2.267-4.533V13.6H34l0-2.267Zm0,0"/>
        <path id="Path_1245518" data-name="Path 1245518" d="M34,6.8H31.733a2.269,2.269,0,0,1-2.267-2.267V2.267A2.269,2.269,0,0,1,31.733,0H34a2.269,2.269,0,0,1,2.267,2.267V4.533A2.269,2.269,0,0,1,34,6.8ZM31.733,2.267V4.533H34l0-2.267Zm0,0"/>
        <path id="Path_1245519" data-name="Path 1245519" d="M43.067,34H40.8a2.269,2.269,0,0,1-2.267-2.267V29.467A2.269,2.269,0,0,1,40.8,27.2h2.267a2.269,2.269,0,0,1,2.267,2.267v2.267A2.269,2.269,0,0,1,43.067,34ZM40.8,29.467v2.267h2.269l0-2.267Zm0,0"/>
        <path id="Path_1245520" data-name="Path 1245520" d="M43.067,15.866H40.8A2.269,2.269,0,0,1,38.533,13.6V11.333A2.269,2.269,0,0,1,40.8,9.067h2.267a2.269,2.269,0,0,1,2.267,2.267V13.6A2.269,2.269,0,0,1,43.067,15.866ZM40.8,11.333V13.6h2.269l0-2.267Zm0,0"/>
        <path id="Path_1245521" data-name="Path 1245521" d="M52.134,24.933H49.867A2.27,2.27,0,0,1,47.6,22.667V20.4a2.269,2.269,0,0,1,2.267-2.267h2.267A2.269,2.269,0,0,1,54.4,20.4v2.267A2.269,2.269,0,0,1,52.134,24.933ZM49.867,20.4v2.267h2.268l0-2.267Zm0,0"/>
        <path id="Path_1245522" data-name="Path 1245522" d="M52.134,6.8H49.867A2.269,2.269,0,0,1,47.6,4.533V2.267A2.269,2.269,0,0,1,49.867,0h2.267A2.269,2.269,0,0,1,54.4,2.267V4.533A2.269,2.269,0,0,1,52.134,6.8ZM49.867,2.267V4.533h2.268l0-2.267Zm0,0"/>
        <path id="Path_1245523" data-name="Path 1245523" d="M61.2,34H58.933a2.269,2.269,0,0,1-2.267-2.267V29.467A2.269,2.269,0,0,1,58.933,27.2H61.2a2.269,2.269,0,0,1,2.267,2.267v2.267A2.269,2.269,0,0,1,61.2,34Zm-2.267-4.533v2.267H61.2l0-2.267Zm0,0"/>
        <path id="Path_1245524" data-name="Path 1245524" d="M52.134,43.067H49.867A2.269,2.269,0,0,1,47.6,40.8V38.533a2.269,2.269,0,0,1,2.267-2.267h2.267A2.269,2.269,0,0,1,54.4,38.533V40.8A2.269,2.269,0,0,1,52.134,43.067Zm-2.267-4.533V40.8h2.268l0-2.267Zm0,0"/>
        <path id="Path_1245525" data-name="Path 1245525" d="M43.067,52.134H40.8a2.27,2.27,0,0,1-2.267-2.267V47.6A2.269,2.269,0,0,1,40.8,45.333h2.267A2.269,2.269,0,0,1,45.333,47.6v2.267A2.269,2.269,0,0,1,43.067,52.134ZM40.8,47.6v2.267h2.269l0-2.267Zm0,0"/>
        <path id="Path_1245526" data-name="Path 1245526" d="M52.134,61.2H49.867A2.27,2.27,0,0,1,47.6,58.933V56.667A2.269,2.269,0,0,1,49.867,54.4h2.267A2.269,2.269,0,0,1,54.4,56.667v2.267A2.269,2.269,0,0,1,52.134,61.2Zm-2.267-4.533v2.267h2.268l0-2.267Zm0,0"/>
        <path id="Path_1245527" data-name="Path 1245527" d="M61.2,15.866H58.933A2.269,2.269,0,0,1,56.667,13.6V11.333a2.269,2.269,0,0,1,2.267-2.267H61.2a2.269,2.269,0,0,1,2.267,2.267V13.6A2.269,2.269,0,0,1,61.2,15.866Zm-2.267-4.533V13.6H61.2l0-2.267Zm0,0"/>
        <path id="Path_1245528" data-name="Path 1245528" d="M61.2,52.134H58.933a2.269,2.269,0,0,1-2.267-2.267V47.6a2.269,2.269,0,0,1,2.267-2.267H61.2A2.269,2.269,0,0,1,63.467,47.6v2.267A2.27,2.27,0,0,1,61.2,52.134ZM58.933,47.6v2.267H61.2l0-2.267Zm0,0"/>
        <path id="Path_1245529" data-name="Path 1245529" d="M61.2,6.8H58.933a2.269,2.269,0,0,1-2.267-2.267V2.267A2.269,2.269,0,0,1,58.933,0H61.2a2.269,2.269,0,0,1,2.267,2.267V4.533A2.269,2.269,0,0,1,61.2,6.8ZM58.933,2.267V4.533H61.2l0-2.267Zm0,0"/>
        <path id="Path_1245530" data-name="Path 1245530" d="M64.6,68H3.4A3.4,3.4,0,0,1,0,64.6V32.008A4.5,4.5,0,0,1,1.328,28.8l2.541-2.541a4.5,4.5,0,0,1,3.206-1.328h13.05a4.5,4.5,0,0,1,3.206,1.328L25.872,28.8a2.253,2.253,0,0,0,1.6.664H30.6A1.133,1.133,0,0,1,31.733,30.6v1.134H34V30.6a1.133,1.133,0,0,1,1.134-1.133h4.533A1.133,1.133,0,0,1,40.8,30.6v1.134h2.267V30.6A1.133,1.133,0,0,1,44.2,29.467H57.8A1.133,1.133,0,0,1,58.933,30.6v1.134H61.2V30.6a1.133,1.133,0,0,1,1.133-1.133H64.6a3.4,3.4,0,0,1,3.4,3.4V64.6A3.4,3.4,0,0,1,64.6,68ZM7.075,27.2a2.254,2.254,0,0,0-1.6.664L2.931,30.405a2.253,2.253,0,0,0-.664,1.6V64.6A1.135,1.135,0,0,0,3.4,65.733H64.6A1.135,1.135,0,0,0,65.733,64.6V32.866A1.135,1.135,0,0,0,64.6,31.733H63.467A2.269,2.269,0,0,1,61.2,34H58.933a2.269,2.269,0,0,1-2.267-2.267H45.333A2.269,2.269,0,0,1,43.066,34H40.8a2.269,2.269,0,0,1-2.267-2.267H36.267A2.269,2.269,0,0,1,34,34H31.733a2.269,2.269,0,0,1-2.267-2.267H27.475a4.5,4.5,0,0,1-3.206-1.328l-2.541-2.541a2.254,2.254,0,0,0-1.6-.664Zm0,0"/>
        <path id="Path_1245531" data-name="Path 1245531" d="M34,43.067H31.733A2.269,2.269,0,0,1,29.467,40.8V38.533a2.269,2.269,0,0,1,2.267-2.267H34a2.269,2.269,0,0,1,2.267,2.267V40.8A2.269,2.269,0,0,1,34,43.067Zm-2.267-4.533V40.8H34l0-2.267Zm0,0"/>
      </g>
    </g>
  </g>
</svg>
