<svg xmlns="http://www.w3.org/2000/svg" xmlns:xlink="http://www.w3.org/1999/xlink" width="110" height="110" viewBox="0 0 110 110">
  <defs>
    <clipPath id="clip-path">
      <rect id="Rectangle_412517" data-name="Rectangle 412517" width="71" height="68" transform="translate(396.301 1807.093)" fill="#fff" stroke="#707070" stroke-width="1"/>
    </clipPath>
  </defs>
  <g id="Group_1205125" data-name="Group 1205125" transform="translate(-377.25 -1786.093)">
    <circle id="Ellipse_12993" data-name="Ellipse 12993" cx="55" cy="55" r="55" transform="translate(377.25 1786.093)" fill="#f5ae5c"/>
    <g id="Mask_Group_1099385" data-name="Mask Group 1099385" clip-path="url(#clip-path)">
      <g id="Page-1" transform="translate(397.801 1807.093)">
        <g id="_069---SQL-Database" data-name="069---SQL-Database">
          <path id="Shape" d="M30.6,47.793v9.067a42.59,42.59,0,0,1-9.067.941c-11.265,0-20.4-4.057-20.4-9.067V39.667c0,5.009,9.135,9.067,20.4,9.067A42.589,42.589,0,0,0,30.6,47.793Z" fill="#02a9f4"/>
          <path id="Shape-2" data-name="Shape" d="M27.2,48.364v8.5a41.916,41.916,0,0,1-7.492.9c.6.024,1.209.041,1.826.041a42.589,42.589,0,0,0,9.067-.941V47.8c-1.078.232-2.224.416-3.4.567Z" fill="#0377bc"/>
          <path id="Shape-3" data-name="Shape" d="M41.933,29.467V41.933H32.867A2.273,2.273,0,0,0,30.6,44.2v3.593a42.59,42.59,0,0,1-9.067.941c-11.265,0-20.4-4.057-20.4-9.067v-10.2c0,5.009,9.135,9.067,20.4,9.067S41.933,34.476,41.933,29.467Z" fill="#02a9f4"/>
          <path id="Shape-4" data-name="Shape" d="M27.2,44.2v3.593a41.916,41.916,0,0,1-7.492.9c.6.024,1.209.041,1.826.041a42.589,42.589,0,0,0,9.067-.941V44.2a2.273,2.273,0,0,1,2.267-2.267h-3.4A2.273,2.273,0,0,0,27.2,44.2Z" fill="#0377bc"/>
          <path id="Shape-5" data-name="Shape" d="M38.533,34.475v7.458h3.4V29.467C41.933,31.32,40.678,33.04,38.533,34.475Z" fill="#0377bc"/>
          <path id="Shape-6" data-name="Shape" d="M41.933,19.267v10.2c0,5.009-9.135,9.067-20.4,9.067s-20.4-4.057-20.4-9.067v-10.2c0,5.009,9.135,9.067,20.4,9.067S41.933,24.276,41.933,19.267Z" fill="#02a9f4"/>
          <path id="Shape-7" data-name="Shape" d="M38.533,24.275v5.192c0,4.76-8.231,8.644-18.7,9.028.567.022,1.127.039,1.7.039,11.265,0,20.4-4.057,20.4-9.067v-10.2C41.933,21.12,40.678,22.84,38.533,24.275Z" fill="#0377bc"/>
          <path id="Shape-8" data-name="Shape" d="M41.933,10.2v9.067c0,5.009-9.135,9.067-20.4,9.067s-20.4-4.057-20.4-9.067V10.2c0-5.009,9.135-9.067,20.4-9.067S41.933,5.191,41.933,10.2Z" fill="#02a9f4"/>
          <path id="Shape-9" data-name="Shape" d="M21.533,1.133c-.573,0-1.133.017-1.7.039,10.469.384,18.7,4.274,18.7,9.028v9.067c0,4.76-8.231,8.644-18.7,9.028.567.022,1.127.039,1.7.039,11.265,0,20.4-4.057,20.4-9.067V10.2C41.933,5.191,32.8,1.133,21.533,1.133Z" fill="#0377bc"/>
          <rect id="Rectangle-path" width="36.267" height="24.933" rx="2.267" transform="translate(30.6 41.933)" fill="#ffdc00"/>
          <path id="Shape-10" data-name="Shape" d="M64.6,41.933H61.2A2.273,2.273,0,0,1,63.467,44.2V64.6A2.273,2.273,0,0,1,61.2,66.867h3.4A2.273,2.273,0,0,0,66.867,64.6V44.2A2.273,2.273,0,0,0,64.6,41.933Z" fill="#fec108"/>
          <ellipse id="Oval" cx="14.733" cy="5.667" rx="14.733" ry="5.667" transform="translate(6.8 5.667)" fill="#0377bc"/>
          <g id="Group_1205124" data-name="Group 1205124">
            <path id="Shape-11" data-name="Shape" d="M21.533,18.133c7.692,0,15.867-2.38,15.867-6.8s-8.175-6.8-15.867-6.8-15.867,2.38-15.867,6.8S13.841,18.133,21.533,18.133Zm0-11.333c8.426,0,13.6,2.641,13.6,4.533s-5.174,4.533-13.6,4.533-13.6-2.641-13.6-4.533S13.107,6.8,21.533,6.8Z"/>
            <path id="Shape-12" data-name="Shape" d="M64.6,40.8H43.067V10.2C43.067,4.48,33.608,0,21.533,0S0,4.48,0,10.2V48.733c0,5.72,9.459,10.2,21.533,10.2a44.115,44.115,0,0,0,7.933-.706V64.6a3.4,3.4,0,0,0,3.4,3.4H64.6A3.4,3.4,0,0,0,68,64.6V44.2A3.4,3.4,0,0,0,64.6,40.8Zm-31.733,0a3.4,3.4,0,0,0-3.4,3.4v2.653a41.56,41.56,0,0,1-7.933.747c-11.525,0-19.267-4.1-19.267-7.933V34.073c3.5,3.342,10.716,5.594,19.267,5.594S37.3,37.415,40.8,34.073V40.8ZM40.8,29.467c0,3.832-7.742,7.933-19.267,7.933S2.267,33.3,2.267,29.467V23.873c3.5,3.342,10.716,5.594,19.267,5.594S37.3,27.215,40.8,23.873ZM2.267,10.2c0-3.832,7.742-7.933,19.267-7.933S40.8,6.368,40.8,10.2v9.067c0,3.832-7.742,7.933-19.267,7.933S2.267,23.1,2.267,19.267ZM21.533,56.667c-11.525,0-19.267-4.1-19.267-7.933V44.273c3.5,3.342,10.716,5.594,19.267,5.594a44.094,44.094,0,0,0,7.933-.707v6.76A41.487,41.487,0,0,1,21.533,56.667Zm44.2,7.933A1.133,1.133,0,0,1,64.6,65.733H32.867A1.133,1.133,0,0,1,31.733,64.6V44.2a1.133,1.133,0,0,1,1.133-1.133H64.6A1.133,1.133,0,0,1,65.733,44.2Z"/>
            <path id="Shape-13" data-name="Shape" d="M39.1,49.867h2.833a1.133,1.133,0,0,0,0-2.267H39.1a3.967,3.967,0,0,0,0,7.933,1.7,1.7,0,0,1,0,3.4H36.267a1.133,1.133,0,1,0,0,2.267H39.1a3.967,3.967,0,1,0,0-7.933,1.7,1.7,0,0,1,0-3.4Z"/>
            <path id="Shape-14" data-name="Shape" d="M54.12,58.184a4.5,4.5,0,0,0,.28-1.518V52.133a4.533,4.533,0,0,0-9.067,0v4.533a4.51,4.51,0,0,0,7.48,3.417l.785.784a1.133,1.133,0,0,0,1.6-1.6Zm-4.253.749A2.267,2.267,0,0,1,47.6,56.667V52.133a2.267,2.267,0,0,1,4.533,0V56.2l-.332-.332a1.133,1.133,0,0,0-1.6,1.6l1.013,1.013A2.25,2.25,0,0,1,49.867,58.933Z"/>
            <path id="Shape-15" data-name="Shape" d="M62.333,58.933H60.067v-10.2a1.133,1.133,0,1,0-2.267,0V60.067A1.133,1.133,0,0,0,58.933,61.2h3.4a1.133,1.133,0,1,0,0-2.267Z"/>
          </g>
        </g>
      </g>
    </g>
  </g>
</svg>
