<svg xmlns="http://www.w3.org/2000/svg" xmlns:xlink="http://www.w3.org/1999/xlink" width="110" height="110" viewBox="0 0 110 110">
  <defs>
    <clipPath id="clip-path">
      <rect id="Rectangle_412513" data-name="Rectangle 412513" width="71" height="68" transform="translate(3835.812 605.797)" fill="#fff" stroke="#707070" stroke-width="1"/>
    </clipPath>
  </defs>
  <g id="Group_1205123" data-name="Group 1205123" transform="translate(-3816.761 -584.797)">
    <circle id="Ellipse_12992" data-name="Ellipse 12992" cx="55" cy="55" r="55" transform="translate(3816.761 584.797)" fill="#f5ae5c"/>
    <g id="Mask_Group_1099384" data-name="Mask Group 1099384" clip-path="url(#clip-path)">
      <g id="Hand_Website" data-name="Hand Website" transform="translate(3837.318 605.804)">
        <path id="Path_1245555" data-name="Path 1245555" d="M20.183,1.062h46.74V39.3H20.183Z" fill="#e6ecff"/>
        <path id="Path_1245556" data-name="Path 1245556" d="M20.183,10.623V1.062h46.74V7.436h-30.7l-.207.8a3.187,3.187,0,0,1-3.086,2.39Z" fill="#4294ff"/>
        <path id="Path_1245557" data-name="Path 1245557" d="M40.367,20.183H46.74V31.868H40.367Z" fill="#4294ff"/>
        <path id="Path_1245558" data-name="Path 1245558" d="M50.99,14.872h6.374v17H50.99Z" fill="#4294ff"/>
        <path id="Path_1245559" data-name="Path 1245559" d="M29.744,25.495h6.374v6.374H29.744Z" fill="#4294ff"/>
        <path id="Path_1245560" data-name="Path 1245560" d="M33.744,66.94a18.441,18.441,0,0,1-10.253-3.122L18.335,60.38a5.289,5.289,0,0,0-2.947-.892H9.561V36.118h9.967a5.281,5.281,0,0,1,3.11,1l13.5,9.75a4.366,4.366,0,0,1,1.772,2.885,4.437,4.437,0,0,1,0,1.422l-.293,1.779,23.641-8.444a4.242,4.242,0,0,1,3.506,7.691L42.818,64.55a18.566,18.566,0,0,1-9.074,2.39Z" fill="#ffe1e1"/>
        <path id="Path_1245561" data-name="Path 1245561" d="M1.062,32.931h8.5V62.675h-8.5Z" fill="#4294ff"/>
        <g id="Group_1205122" data-name="Group 1205122">
          <path id="Path_1245562" data-name="Path 1245562" d="M65.737,44.167a5.232,5.232,0,0,0-4.838-.659L38.972,51.339A5.515,5.515,0,0,0,36.755,46l-13.491-9.75a6.331,6.331,0,0,0-3.732-1.206H10.623V32.923a1.062,1.062,0,0,0-1.062-1.062h-8.5A1.062,1.062,0,0,0,0,32.923V62.667A1.062,1.062,0,0,0,1.062,63.73h8.5a1.062,1.062,0,0,0,1.062-1.062V60.543h4.765a4.23,4.23,0,0,1,2.357.714L22.9,64.693a19.468,19.468,0,0,0,20.436.772L65.283,53.122a5.311,5.311,0,0,0,2.7-4.62,5.238,5.238,0,0,0-2.249-4.335ZM8.5,61.6H2.125V33.986H8.5ZM64.242,51.272,42.3,63.615a17.353,17.353,0,0,1-18.216-.688l-5.157-3.439a6.35,6.35,0,0,0-3.535-1.07H10.623V37.172h8.905a4.217,4.217,0,0,1,2.488.8l13.5,9.749A3.381,3.381,0,1,1,31.549,53.2l-8.614-6.268a1.063,1.063,0,1,0-1.252,1.719L30.3,54.92a5.479,5.479,0,0,0,7.131-.56c.106-.106.2-.212.3-.319l23.888-8.534a3.18,3.18,0,0,1,2.629,5.765Z" fill="#232328"/>
          <path id="Path_1245563" data-name="Path 1245563" d="M66.924-.007H20.183a1.062,1.062,0,0,0-1.062,1.062V31.893a1.062,1.062,0,1,0,2.125,0V11.678H32.931a4.256,4.256,0,0,0,4.114-3.187H65.862V38.235H32.92a1.062,1.062,0,0,0,0,2.125h34A1.062,1.062,0,0,0,67.986,39.3V1.055A1.062,1.062,0,0,0,66.924-.007ZM36.118,6.366a1.062,1.062,0,0,0-1.062,1.062,2.125,2.125,0,0,1-2.125,2.125H21.246V2.117H65.862V6.366Z" fill="#232328"/>
          <path id="Path_1245564" data-name="Path 1245564" d="M24.433,6.366H23.37a1.062,1.062,0,0,0,0,2.125h1.062a1.062,1.062,0,1,0,0-2.125Z" fill="#232328"/>
          <path id="Path_1245565" data-name="Path 1245565" d="M28.682,6.366H27.619a1.062,1.062,0,0,0,0,2.125h1.062a1.062,1.062,0,0,0,0-2.125Z" fill="#232328"/>
          <path id="Path_1245566" data-name="Path 1245566" d="M32.931,6.366H31.868a1.062,1.062,0,0,0,0,2.125h1.062a1.062,1.062,0,0,0,0-2.125Z" fill="#232328"/>
          <path id="Path_1245567" data-name="Path 1245567" d="M62.675,3.179H41.429a1.062,1.062,0,0,0,0,2.125H62.675a1.062,1.062,0,0,0,0-2.125Z" fill="#232328"/>
          <path id="Path_1245568" data-name="Path 1245568" d="M36.118,24.425H29.744a1.062,1.062,0,0,0-1.062,1.062V30.8H26.557a1.062,1.062,0,0,0,0,2.125H60.55a1.062,1.062,0,0,0,0-2.125H58.426V14.865A1.062,1.062,0,0,0,57.363,13.8H50.99a1.062,1.062,0,0,0-1.062,1.062V30.8H47.8V20.176a1.062,1.062,0,0,0-1.062-1.062H40.367A1.062,1.062,0,0,0,39.3,20.176V30.8H37.18V25.487A1.062,1.062,0,0,0,36.118,24.425ZM30.806,30.8V26.55h4.249V30.8ZM52.052,15.927H56.3V30.8H52.052ZM41.429,21.238h4.249V30.8H41.429Z" fill="#232328"/>
        </g>
      </g>
    </g>
  </g>
</svg>
