<svg xmlns="http://www.w3.org/2000/svg" xmlns:xlink="http://www.w3.org/1999/xlink" width="110" height="110" viewBox="0 0 110 110">
  <defs>
    <clipPath id="clip-path">
      <rect id="Rectangle_412509" data-name="Rectangle 412509" width="71" height="68" transform="translate(764.051 1807.093)" fill="#fff" stroke="#707070" stroke-width="1"/>
    </clipPath>
  </defs>
  <g id="Group_1205130" data-name="Group 1205130" transform="translate(-745 -1786.093)">
    <circle id="Ellipse_12990" data-name="Ellipse 12990" cx="55" cy="55" r="55" transform="translate(745 1786.093)" fill="#f5ae5c"/>
    <g id="Mask_Group_1099386" data-name="Mask Group 1099386" clip-path="url(#clip-path)">
      <g id="compiler_17359008" transform="translate(765.417 1806.959)">
        <g id="Group_1205129" data-name="Group 1205129">
          <g id="Group_1205126" data-name="Group 1205126">
            <path id="Path_1245569" data-name="Path 1245569" d="M5.67,1.183H62.665A4.449,4.449,0,0,1,67.1,5.619v57a4.449,4.449,0,0,1-4.436,4.436H5.67a4.449,4.449,0,0,1-4.436-4.436v-57A4.449,4.449,0,0,1,5.67,1.183Z" fill="#64b5f6" fill-rule="evenodd"/>
            <path id="Path_1245570" data-name="Path 1245570" d="M6.137,17.2H62.062a.363.363,0,0,1,.362.362V62.113a.363.363,0,0,1-.362.362H6.137a.363.363,0,0,1-.362-.362V17.56a.363.363,0,0,1,.362-.362Z" fill="#e6f8ff" fill-rule="evenodd"/>
            <path id="Path_1245571" data-name="Path 1245571" d="M62.6,1.217H59.686a4.449,4.449,0,0,1,4.436,4.436v57a4.449,4.449,0,0,1-4.436,4.436H62.6a4.449,4.449,0,0,0,4.436-4.436v-57A4.449,4.449,0,0,0,62.6,1.217Z" fill="#42a5f5" fill-rule="evenodd"/>
            <path id="Path_1245572" data-name="Path 1245572" d="M6.137,17.2h2.91a.363.363,0,0,0-.362.362V62.113a.363.363,0,0,0,.362.362H6.137a.363.363,0,0,1-.362-.362V17.56a.363.363,0,0,1,.362-.362Z" fill="#d0f1ff" fill-rule="evenodd"/>
            <path id="Path_1245573" data-name="Path 1245573" d="M1.166,5.653v6.936H67.033V5.653A4.449,4.449,0,0,0,62.6,1.217H5.6A4.449,4.449,0,0,0,1.166,5.653Z" fill="#004960" fill-rule="evenodd"/>
            <path id="Path_1245574" data-name="Path 1245574" d="M67.033,5.653v6.936H64.122V5.653a4.449,4.449,0,0,0-4.436-4.436H62.6A4.449,4.449,0,0,1,67.033,5.653Z" fill="#003748" fill-rule="evenodd"/>
            <circle id="Ellipse_13067" data-name="Ellipse 13067" cx="1.467" cy="1.467" r="1.467" transform="translate(5.628 8.334) rotate(-88.625)" fill="#fc685b"/>
            <path id="Path_1245575" data-name="Path 1245575" d="M8.46,5.437a1.467,1.467,0,0,1,1.43,1.14A1.467,1.467,0,0,0,7.2,7.652,1.467,1.467,0,0,1,8.46,5.437Z" fill="#fb4737" fill-rule="evenodd"/>
            <circle id="Ellipse_13068" data-name="Ellipse 13068" cx="1.467" cy="1.467" r="1.467" transform="translate(11.714 5.467) rotate(-1.26)" fill="#ffda2d"/>
            <circle id="Ellipse_13069" data-name="Ellipse 13069" cx="1.467" cy="1.467" r="1.467" transform="translate(17.793 8.331) rotate(-88.625)" fill="#72d561"/>
          </g>
          <g id="Group_1205127" data-name="Group 1205127">
            <path id="Path_1245576" data-name="Path 1245576" d="M58.33,23.283,51,34.79v3.527l-5.088,2.69V34.79L38.589,23.283Z" fill="#72d561" fill-rule="evenodd"/>
            <path id="Path_1245577" data-name="Path 1245577" d="M58.33,23.283,51,34.79v3.527l-5.088,2.69V39.9l3.862-2.041V34.334l7.036-11.051Z" fill="#42c345" fill-rule="evenodd"/>
            <path id="Path_1245578" data-name="Path 1245578" d="M39.29,22.326H57.629a1.291,1.291,0,0,1,0,2.582H39.29a1.291,1.291,0,0,1,0-2.582Z" fill="#39b33b" fill-rule="evenodd"/>
            <path id="Path_1245579" data-name="Path 1245579" d="M39.29,22.326H57.629a1.3,1.3,0,0,1,1.254.985,1.283,1.283,0,0,0-.306-.037H40.238a1.3,1.3,0,0,0-1.291,1.291h0a1.282,1.282,0,0,0,.037.306A1.3,1.3,0,0,1,38,23.618h0a1.3,1.3,0,0,1,1.291-1.291Z" fill="#33a235" fill-rule="evenodd"/>
          </g>
          <g id="Group_1205128" data-name="Group 1205128">
            <path id="Path_1245580" data-name="Path 1245580" d="M18.245,20.019h2.989a.365.365,0,0,1,.364.364v1.5a9.4,9.4,0,0,1,3.383,1.4l1.062-1.062a.365.365,0,0,1,.515,0l2.114,2.114a.365.365,0,0,1,0,.515l-1.062,1.062a9.4,9.4,0,0,1,1.4,3.383h1.5a.365.365,0,0,1,.364.364v2.989a.365.365,0,0,1-.364.364h-1.5a9.4,9.4,0,0,1-1.4,3.384l1.062,1.062a.365.365,0,0,1,0,.515l-2.114,2.114a.365.365,0,0,1-.515,0l-1.062-1.062a9.4,9.4,0,0,1-3.384,1.4v1.5a.365.365,0,0,1-.364.364H18.245a.365.365,0,0,1-.364-.364v-1.5a9.4,9.4,0,0,1-3.384-1.4l-1.062,1.062a.365.365,0,0,1-.515,0l-2.114-2.114a.365.365,0,0,1,0-.515L11.868,36.4a9.4,9.4,0,0,1-1.4-3.384h-1.5a.365.365,0,0,1-.364-.364V29.663a.365.365,0,0,1,.364-.364h1.5a9.4,9.4,0,0,1,1.4-3.384l-1.062-1.062a.365.365,0,0,1,0-.515l2.114-2.114a.365.365,0,0,1,.515,0L14.5,23.287a9.4,9.4,0,0,1,3.384-1.4v-1.5a.365.365,0,0,1,.364-.364Z" fill="#ffda2d" fill-rule="evenodd"/>
            <path id="Path_1245581" data-name="Path 1245581" d="M20.607,20.019h.627a.365.365,0,0,1,.364.364v1.5a9.4,9.4,0,0,0-.992-.255ZM17.266,39.38a6.581,6.581,0,0,1-3.76-1.305l-1.062,1.062a.365.365,0,0,1-.4.077l.878.878a.365.365,0,0,0,.515,0L14.5,39.029a9.412,9.412,0,0,0,3.384,1.4V39.349A6.124,6.124,0,0,1,17.266,39.38ZM28.1,29.3h.909a9.415,9.415,0,0,0-1.4-3.383l1.062-1.062a.365.365,0,0,0,0-.515l-2.114-2.114a.36.36,0,0,0-.114-.077l1.236,1.236a.365.365,0,0,1,0,.515l-1.062,1.062A8.463,8.463,0,0,1,28.1,29.3Zm1.783,0h.627a.365.365,0,0,1,.364.364v2.989a.365.365,0,0,1-.364.364h-1.5a9.4,9.4,0,0,1-1.4,3.384l1.062,1.062a.365.365,0,0,1,0,.515l-2.114,2.114a.365.365,0,0,1-.515,0l-.878-.878a.365.365,0,0,0,.4-.077l2.114-2.114a.365.365,0,0,0,0-.515l-1.062-1.062a9.4,9.4,0,0,0,1.4-3.384h1.5a.365.365,0,0,0,.364-.364V29.3ZM24.96,39.044A9.4,9.4,0,0,1,21.6,40.432v1.5a.365.365,0,0,1-.364.364H18.245a.365.365,0,0,1-.364-.364v-.591h2.362a.365.365,0,0,0,.364-.364v-1.5a9.4,9.4,0,0,0,3.384-1.4ZM10.466,33.017h-1.5a.365.365,0,0,1-.364-.364v-.591h1.622A9.4,9.4,0,0,0,10.466,33.017Zm2.855-10.869a.362.362,0,0,1,.114.077l.093.093-.022.015Z" fill="#ffc700" fill-rule="evenodd"/>
            <circle id="Ellipse_13070" data-name="Ellipse 13070" cx="6.069" cy="6.069" r="6.069" transform="translate(13.671 25.09)" fill="#eff4f7"/>
            <path id="Path_1245582" data-name="Path 1245582" d="M19.739,25.09a6.056,6.056,0,0,1,4.674,2.2,6.069,6.069,0,0,0-8.341,8.706,6.068,6.068,0,0,1,3.667-10.9Z" fill="#e2e3e3" fill-rule="evenodd"/>
          </g>
        </g>
        <path id="Path_1245583" data-name="Path 1245583" d="M51.456,51.413H50.227a1.067,1.067,0,0,1,0-2.133h1.229a1.067,1.067,0,1,1,0,2.133ZM49.162,59.1a1.067,1.067,0,0,1-1.067,1.067H42.866a1.067,1.067,0,1,1,0-2.133h5.229A1.067,1.067,0,0,1,49.162,59.1Zm-8.695,0A1.068,1.068,0,0,1,39.4,60.163H38.169a1.067,1.067,0,0,1,0-2.133H39.4A1.068,1.068,0,0,1,40.467,59.1Zm4-13.124A1.066,1.066,0,0,1,43.4,47.039H38.17a1.067,1.067,0,0,1,0-2.133H43.4A1.066,1.066,0,0,1,44.467,45.973Zm-4,8.749A1.067,1.067,0,0,1,39.4,55.788H38.169a1.067,1.067,0,0,1,0-2.133H39.4A1.067,1.067,0,0,1,40.467,54.722ZM41.8,50.347a1.067,1.067,0,0,1-1.066,1.066H38.169a1.067,1.067,0,0,1,0-2.133h2.564A1.068,1.068,0,0,1,41.8,50.347Zm5.065-3.308a1.067,1.067,0,0,1,0-2.133h2.563a1.067,1.067,0,1,1,0,2.133Zm2.3,7.683a1.066,1.066,0,0,1-1.067,1.066H42.866a1.067,1.067,0,1,1,0-2.133h5.229A1.066,1.066,0,0,1,49.162,54.722Zm10.722-4.375a1.066,1.066,0,0,1-1.066,1.066h-3.9a1.067,1.067,0,1,1,0-2.133h3.9A1.067,1.067,0,0,1,59.884,50.347Zm0-4.374a1.066,1.066,0,0,1-1.066,1.066H57.588a1.067,1.067,0,1,1,0-2.133h1.229A1.066,1.066,0,0,1,59.884,45.973Zm0,8.749a1.066,1.066,0,0,1-1.066,1.066H57.588a1.067,1.067,0,1,1,0-2.133h1.229A1.066,1.066,0,0,1,59.884,54.722Zm-6.991-7.683a1.067,1.067,0,0,1,0-2.133h1.229a1.067,1.067,0,1,1,0,2.133ZM55.19,59.1a1.067,1.067,0,0,1-1.067,1.067H51.56a1.067,1.067,0,0,1,0-2.133h2.562A1.067,1.067,0,0,1,55.19,59.1Zm4.694,0a1.067,1.067,0,0,1-1.066,1.067H57.589a1.067,1.067,0,1,1,0-2.133h1.229A1.067,1.067,0,0,1,59.884,59.1ZM55.19,54.722a1.066,1.066,0,0,1-1.067,1.066H51.56a1.067,1.067,0,0,1,0-2.133h2.562A1.066,1.066,0,0,1,55.19,54.722ZM44.2,49.28h2.563a1.067,1.067,0,0,1,0,2.133H44.2a1.067,1.067,0,0,1,0-2.133ZM20.44,59.1a1.067,1.067,0,0,1-1.066,1.067h-1.23a1.067,1.067,0,0,1,0-2.133h1.23A1.067,1.067,0,0,1,20.44,59.1Zm-2.4-9.816a1.067,1.067,0,1,1,0,2.133H15.477a1.067,1.067,0,0,1,0-2.133ZM8.383,54.722a1.066,1.066,0,0,1,1.066-1.067h3.9a1.067,1.067,0,0,1,0,2.133h-3.9A1.066,1.066,0,0,1,8.383,54.722Zm12.057,0a1.066,1.066,0,0,1-1.066,1.066H16.811a1.067,1.067,0,0,1,0-2.133h2.563A1.066,1.066,0,0,1,20.44,54.722ZM15.745,59.1a1.066,1.066,0,0,1-1.066,1.067H9.449a1.067,1.067,0,0,1,0-2.133h5.229A1.067,1.067,0,0,1,15.745,59.1ZM8.383,50.347A1.067,1.067,0,0,1,9.449,49.28h2.563a1.067,1.067,0,0,1,0,2.133H9.449a1.066,1.066,0,0,1-1.066-1.066Zm0-4.374a1.066,1.066,0,0,1,1.066-1.067h1.23a1.067,1.067,0,0,1,0,2.133H9.449a1.066,1.066,0,0,1-1.066-1.066Zm10.991,1.066H14.144a1.067,1.067,0,0,1,0-2.133h5.229a1.067,1.067,0,0,1,0,2.133Zm11.791-1.066A1.067,1.067,0,0,1,30.1,47.039H28.867a1.067,1.067,0,1,1,0-2.133H30.1A1.068,1.068,0,0,1,31.164,45.973Zm0,13.124A1.068,1.068,0,0,1,30.1,60.163H28.867a1.067,1.067,0,1,1,0-2.133H30.1A1.068,1.068,0,0,1,31.164,59.1Zm-4.695,0A1.068,1.068,0,0,1,25.4,60.163H22.839a1.067,1.067,0,0,1,0-2.133H25.4A1.068,1.068,0,0,1,26.469,59.1Zm4.695-4.374A1.067,1.067,0,0,1,30.1,55.788H28.867a1.067,1.067,0,1,1,0-2.133H30.1A1.068,1.068,0,0,1,31.164,54.722Zm-4.695,0A1.067,1.067,0,0,1,25.4,55.788H22.839a1.067,1.067,0,0,1,0-2.133H25.4A1.067,1.067,0,0,1,26.469,54.722Zm0-4.375A1.067,1.067,0,0,1,25.4,51.413h-3.9a1.067,1.067,0,0,1,0-2.133h3.9A1.068,1.068,0,0,1,26.469,50.347Zm4.695,0A1.067,1.067,0,0,1,30.1,51.413H28.867a1.067,1.067,0,1,1,0-2.133H30.1A1.068,1.068,0,0,1,31.164,50.347Zm-4.695-4.374A1.067,1.067,0,0,1,25.4,47.039H22.839a1.067,1.067,0,0,1,0-2.133H25.4A1.067,1.067,0,0,1,26.469,45.973Zm12.855-22.6H57.663a.224.224,0,1,1,0,.449H39.324a.224.224,0,0,1,0-.449ZM50.138,34.2a1.075,1.075,0,0,0-.167.573v2.884l-2.955,1.562V34.773a1.063,1.063,0,0,0-.167-.573L41.6,25.959H55.386ZM39.063,25.943l5.82,9.14V40.99a1.067,1.067,0,0,0,1.566.943l5.088-2.689A1.068,1.068,0,0,0,52.1,38.3V35.084l5.82-9.14a2.357,2.357,0,0,0-.261-4.7H39.324a2.357,2.357,0,0,0-.261,4.7ZM21.428,29.089,20.18,33.745a1.068,1.068,0,0,1-1.029.791,1.081,1.081,0,0,1-.278-.037,1.067,1.067,0,0,1-.755-1.307l1.248-4.657a1.067,1.067,0,0,1,2.061.552ZM17.838,33.6a1.067,1.067,0,0,0,.009-1.508l-.934-.947.934-.946a1.067,1.067,0,1,0-1.519-1.5l-1.673,1.7a1.068,1.068,0,0,0,0,1.5l1.673,1.7a1.069,1.069,0,0,0,1.51.009Zm5.381-4.9a1.067,1.067,0,1,0-1.519,1.5l.934.946-.934.947a1.066,1.066,0,1,0,1.517,1.5l1.675-1.7a1.068,1.068,0,0,0,0-1.5Zm-3.445,7.928a5.483,5.483,0,1,0-5.483-5.483A5.49,5.49,0,0,0,19.774,36.624Zm0-13.1a7.616,7.616,0,1,0,7.616,7.616A7.624,7.624,0,0,0,19.774,23.526Zm10.072,8.408V30.349h-.8A1.066,1.066,0,0,1,28,29.491a8.306,8.306,0,0,0-1.244-3,1.067,1.067,0,0,1,.133-1.346l.565-.565-1.121-1.12-.565.565a1.065,1.065,0,0,1-1.346.133,8.316,8.316,0,0,0-3-1.244,1.065,1.065,0,0,1-.858-1.046v-.8H18.981v.8a1.067,1.067,0,0,1-.858,1.046,8.3,8.3,0,0,0-3,1.244,1.067,1.067,0,0,1-1.347-.133l-.565-.565-1.12,1.12.565.565a1.065,1.065,0,0,1,.133,1.346,8.313,8.313,0,0,0-1.244,3,1.066,1.066,0,0,1-1.046.858H9.7v1.585h.8a1.067,1.067,0,0,1,1.046.858,8.3,8.3,0,0,0,1.244,3,1.066,1.066,0,0,1-.133,1.347l-.565.565,1.12,1.12.565-.565a1.068,1.068,0,0,1,1.347-.133,8.329,8.329,0,0,0,3,1.244,1.065,1.065,0,0,1,.858,1.045v.8h1.585v-.8a1.064,1.064,0,0,1,.858-1.045,8.313,8.313,0,0,0,3-1.244,1.065,1.065,0,0,1,1.346.133l.565.565,1.121-1.12-.565-.565a1.068,1.068,0,0,1-.133-1.347,8.3,8.3,0,0,0,1.244-3,1.066,1.066,0,0,1,1.045-.858Zm.7-3.717h-.664a10.377,10.377,0,0,0-.893-2.155l.471-.47a1.434,1.434,0,0,0,0-2.023l-2.115-2.114a1.431,1.431,0,0,0-2.023,0l-.471.47a10.37,10.37,0,0,0-2.155-.893v-.664a1.432,1.432,0,0,0-1.43-1.431H18.279a1.432,1.432,0,0,0-1.431,1.431v.664a10.443,10.443,0,0,0-2.156.893l-.469-.47a1.431,1.431,0,0,0-2.023,0l-2.115,2.114a1.434,1.434,0,0,0,0,2.023l.47.47a10.353,10.353,0,0,0-.893,2.155H9a1.432,1.432,0,0,0-1.43,1.431v2.989A1.432,1.432,0,0,0,9,34.067h.665a10.347,10.347,0,0,0,.893,2.155l-.47.47a1.433,1.433,0,0,0,0,2.023L12.2,40.83a1.432,1.432,0,0,0,2.023,0l.469-.471a10.412,10.412,0,0,0,2.156.893v.664a1.432,1.432,0,0,0,1.431,1.43h2.989a1.432,1.432,0,0,0,1.43-1.43v-.664a10.372,10.372,0,0,0,2.155-.893l.47.469a1.431,1.431,0,0,0,2.024,0l2.115-2.115a1.433,1.433,0,0,0,0-2.023l-.471-.47a10.388,10.388,0,0,0,.893-2.155h.664a1.432,1.432,0,0,0,1.431-1.431V29.647a1.432,1.432,0,0,0-1.431-1.431ZM61.787,61.787V17.852H35.2V61.787ZM6.48,17.852V61.787H33.067V17.852Zm56.374-2.133H5.413a1.067,1.067,0,0,0-1.066,1.067V62.854A1.066,1.066,0,0,0,5.413,63.92H62.854a1.066,1.066,0,0,0,1.066-1.066V16.786a1.067,1.067,0,0,0-1.067-1.067ZM19.116,6.349a.537.537,0,1,1-.536.537A.538.538,0,0,1,19.116,6.349Zm0,3.207a2.67,2.67,0,1,0-2.669-2.67A2.674,2.674,0,0,0,19.116,9.556ZM40.19,6.886A1.067,1.067,0,0,1,41.256,5.82H60.563a1.067,1.067,0,0,1,0,2.133H41.256A1.068,1.068,0,0,1,40.19,6.886ZM13.241,6.349a.537.537,0,1,1-.536.537A.538.538,0,0,1,13.241,6.349Zm0,3.207a2.67,2.67,0,1,0-2.669-2.67A2.674,2.674,0,0,0,13.241,9.556ZM7.367,6.349a.537.537,0,1,1-.536.537A.538.538,0,0,1,7.367,6.349Zm0,3.207A2.67,2.67,0,1,0,4.7,6.886,2.674,2.674,0,0,0,7.367,9.556ZM62.631,66A3.373,3.373,0,0,0,66,62.631V13.639H2.267V62.631A3.373,3.373,0,0,0,5.636,66ZM5.636,2.267A3.373,3.373,0,0,0,2.267,5.636v5.87H66V5.636a3.373,3.373,0,0,0-3.369-3.369ZM62.631.133H5.636a5.509,5.509,0,0,0-5.5,5.5v57a5.508,5.508,0,0,0,5.5,5.5H62.631a5.508,5.508,0,0,0,5.5-5.5v-57A5.509,5.509,0,0,0,62.631.133Z" fill-rule="evenodd"/>
      </g>
    </g>
  </g>
</svg>
