<svg xmlns="http://www.w3.org/2000/svg" xmlns:xlink="http://www.w3.org/1999/xlink" width="110" height="110" viewBox="0 0 110 110">
  <defs>
    <clipPath id="clip-path">
      <rect id="Rectangle_412509" data-name="Rectangle 412509" width="71" height="68" transform="translate(794.53 12333.797)" fill="#fff" stroke="#707070" stroke-width="1"/>
    </clipPath>
  </defs>
  <g id="Group_1205101" data-name="Group 1205101" transform="translate(-775.479 -12312.797)">
    <circle id="Ellipse_12990" data-name="Ellipse 12990" cx="55" cy="55" r="55" transform="translate(775.479 12312.797)" fill="#f5ae5c"/>
    <g id="Mask_Group_1099381" data-name="Mask Group 1099381" clip-path="url(#clip-path)">
      <g id="file-transfer_17994775" transform="translate(798.652 12334.169)">
        <path id="Path_1245478" data-name="Path 1245478" d="M31.387,30.985c3.825-2.312,8.947-5.037,11-8.5a7.736,7.736,0,0,0,1.1-4.062V6.553a102.086,102.086,0,0,1-12.1-5.2,102.086,102.086,0,0,1-12.1,5.2V18.424a7.736,7.736,0,0,0,1.1,4.062C22.44,25.948,27.562,28.673,31.387,30.985Z" fill="#6cbfff" fill-rule="evenodd"/>
        <path id="Path_1245479" data-name="Path 1245479" d="M30.528,1.76A95.078,95.078,0,0,1,19.282,6.553V18.424a7.736,7.736,0,0,0,1.1,4.062c1.905,3.208,6.445,5.784,10.144,7.985,3.7-2.2,8.239-4.777,10.144-7.985a7.735,7.735,0,0,0,1.1-4.062V6.553A95.078,95.078,0,0,1,30.528,1.76Z" fill="#85caff" fill-rule="evenodd"/>
        <path id="Path_1245480" data-name="Path 1245480" d="M25.678,18.04a2.588,2.588,0,1,0-2.588-2.588A2.593,2.593,0,0,0,25.678,18.04Z" fill="#90ef90" fill-rule="evenodd"/>
        <circle id="Ellipse_13060" data-name="Ellipse 13060" cx="2.172" cy="2.172" r="2.172" transform="translate(33.042 8.095) rotate(-13.3)" fill="#90ef90"/>
        <circle id="Ellipse_13061" data-name="Ellipse 13061" cx="2.173" cy="2.173" r="2.173" transform="matrix(0.383, -0.924, 0.924, 0.383, 32.836, 22.362)" fill="#90ef90"/>
        <path id="Path_1245481" data-name="Path 1245481" d="M25.228,18a2.588,2.588,0,0,1,0-5.1,2.588,2.588,0,0,1,0,5.1Z" fill="#adffad" fill-rule="evenodd"/>
        <path id="Path_1245482" data-name="Path 1245482" d="M35.212,11.846a2.173,2.173,0,0,1,0-4.252,2.173,2.173,0,0,1,0,4.252Z" fill="#adffad" fill-rule="evenodd"/>
        <path id="Path_1245483" data-name="Path 1245483" d="M35.212,23.31a2.173,2.173,0,0,1,0-4.252,2.173,2.173,0,0,1,0,4.252Z" fill="#adffad" fill-rule="evenodd"/>
        <circle id="Ellipse_13062" data-name="Ellipse 13062" cx="13.197" cy="13.197" r="13.197" transform="translate(-4.122 48.222) rotate(-45)" fill="#90ef90"/>
        <circle id="Ellipse_13063" data-name="Ellipse 13063" cx="13.197" cy="13.197" r="13.197" transform="translate(29.552 48.226) rotate(-45)" fill="#ffe259"/>
        <g id="Group_1205100" data-name="Group 1205100">
          <path id="Path_1245484" data-name="Path 1245484" d="M47.367,61.4a13.2,13.2,0,0,1,0-26.34,13.2,13.2,0,0,1,0,26.34Z" fill="#ffeb87" fill-rule="evenodd"/>
          <path id="Path_1245485" data-name="Path 1245485" d="M45.564,40.574,42.3,43.839a.941.941,0,0,0-.307.692V55.326a.86.86,0,0,0,.858.858H53.6a.86.86,0,0,0,.858-.858v-14.2a.86.86,0,0,0-.858-.858H46.257a.941.941,0,0,0-.692.307Z" fill="#fff" fill-rule="evenodd"/>
          <path id="Path_1245486" data-name="Path 1245486" d="M53.5,56.184h.1a.86.86,0,0,0,.858-.858v-14.2a.86.86,0,0,0-.858-.858h-.1Z" fill="#eceff1" fill-rule="evenodd"/>
          <path id="Path_1245487" data-name="Path 1245487" d="M13.689,61.4a13.2,13.2,0,0,1,0-26.34,13.2,13.2,0,0,1,0,26.34Z" fill="#adffad" fill-rule="evenodd"/>
          <path id="Path_1245488" data-name="Path 1245488" d="M11.886,40.574,8.621,43.839a.941.941,0,0,0-.307.692V55.326a.86.86,0,0,0,.858.858h10.75a.86.86,0,0,0,.858-.858v-14.2a.86.86,0,0,0-.858-.858H12.578a.941.941,0,0,0-.692.307Z" fill="#fff" fill-rule="evenodd"/>
          <path id="Path_1245489" data-name="Path 1245489" d="M19.821,56.184h.1a.86.86,0,0,0,.858-.858v-14.2a.86.86,0,0,0-.858-.858h-.1Z" fill="#f0e3df" fill-rule="evenodd"/>
          <path id="Path_1245490" data-name="Path 1245490" d="M52.1,48.225a.981.981,0,0,1-.981.981H45.334a.981.981,0,1,1,0-1.962h5.783A.982.982,0,0,1,52.1,48.225Zm-5.184-3.933a.981.981,0,0,1,.981-.981h3.223a.981.981,0,1,1,0,1.962H47.894A.981.981,0,0,1,46.913,44.291ZM52.1,52.159a.981.981,0,0,1-.981.981H45.334a.981.981,0,1,1,0-1.961h5.783A.981.981,0,0,1,52.1,52.159Zm1.38,3.044V41.247h-7.2l-.007.007-.012.012-3.265,3.265-.012.012-.007.007V55.2Zm.981-15.917h-8.2a1.906,1.906,0,0,0-1.391.6L41.61,43.14a1.9,1.9,0,0,0-.6,1.39V56.184a.982.982,0,0,0,.981.981H54.458a.981.981,0,0,0,.981-.981V40.266a.981.981,0,0,0-.981-.981ZM18.419,52.159a.981.981,0,0,1-.981.981H11.656a.981.981,0,1,1,0-1.961h5.783A.981.981,0,0,1,18.419,52.159Zm0-3.934a.981.981,0,0,1-.981.981H11.656a.981.981,0,0,1,0-1.962h5.783A.981.981,0,0,1,18.419,48.225Zm-5.184-3.933a.981.981,0,0,1,.981-.981h3.223a.981.981,0,0,1,0,1.962H14.216A.981.981,0,0,1,13.235,44.291ZM19.8,55.2V41.247H12.6l-.007.007a.1.1,0,0,1-.012.012L9.314,44.532l-.012.012-.007.007V55.2H19.8Zm.981-15.917h-8.2a1.906,1.906,0,0,0-1.391.6L7.932,43.14a1.905,1.905,0,0,0-.6,1.39V56.184a.982.982,0,0,0,.981.981H20.78a.982.982,0,0,0,.981-.981V40.266a.982.982,0,0,0-.981-.981ZM48.225,60.443A12.218,12.218,0,1,0,36.007,48.225,12.232,12.232,0,0,0,48.225,60.443Zm-19.533-13.2a14.182,14.182,0,0,0-6.225-10.774l4.159-7.205c.937.587,1.885,1.15,2.8,1.7.5.294.983.582,1.449.864a.984.984,0,0,0,1.015,0c.466-.282.951-.57,1.448-.864.918-.546,1.867-1.108,2.8-1.7L40.3,36.469A14.183,14.183,0,0,0,34.08,47.244H28.691Zm-14.145,13.2A12.218,12.218,0,1,0,2.329,48.225,12.232,12.232,0,0,0,14.547,60.443Zm6.68-38.458c1.676,2.822,5.675,5.195,9.2,7.288.324.191.643.381.955.568.312-.186.631-.376.955-.568,3.528-2.093,7.528-4.465,9.2-7.288a6.789,6.789,0,0,0,.965-3.561V7.258A106.834,106.834,0,0,1,31.386,2.436,106.8,106.8,0,0,1,20.262,7.258V18.424a6.788,6.788,0,0,0,.965,3.561Zm27,12.061A14.094,14.094,0,0,0,42,35.486l-4.211-7.294a17.92,17.92,0,0,0,5.44-5.207,8.694,8.694,0,0,0,1.24-4.562V6.552a.981.981,0,0,0-.678-.933A101.315,101.315,0,0,1,31.81.464a.98.98,0,0,0-.849,0A101.487,101.487,0,0,1,18.978,5.619a.981.981,0,0,0-.678.933V18.424a8.693,8.693,0,0,0,1.24,4.562,17.924,17.924,0,0,0,5.44,5.207l-4.211,7.294a14.178,14.178,0,1,0,7.923,13.719H34.08a14.179,14.179,0,1,0,14.145-15.16ZM25.677,17.058a1.607,1.607,0,1,1,1.607-1.606A1.609,1.609,0,0,1,25.677,17.058Zm9.984-8.529A1.192,1.192,0,1,1,34.469,9.72,1.193,1.193,0,0,1,35.661,8.528Zm0,11.463a1.192,1.192,0,1,1-1.192,1.192A1.193,1.193,0,0,1,35.661,19.992Zm-3.153,1.192a3.151,3.151,0,0,1,.066-.641l-4.411-2.533a3.569,3.569,0,1,1,0-5.115l4.411-2.533a3.16,3.16,0,1,1,.978,1.7l-4.411,2.532a3.561,3.561,0,0,1,0,1.715l4.411,2.533a3.151,3.151,0,1,1-1.044,2.342Z" fill-rule="evenodd"/>
        </g>
      </g>
    </g>
  </g>
</svg>
