<svg xmlns="http://www.w3.org/2000/svg" xmlns:xlink="http://www.w3.org/1999/xlink" width="110" height="110" viewBox="0 0 110 110">
  <defs>
    <clipPath id="clip-path">
      <rect id="Rectangle_412511" data-name="Rectangle 412511" width="71" height="68" transform="translate(3502.812 600.033)" fill="#fff" stroke="#707070" stroke-width="1"/>
    </clipPath>
  </defs>
  <g id="Group_1205121" data-name="Group 1205121" transform="translate(-3483.761 -579.033)">
    <g id="Group_1205120" data-name="Group 1205120">
      <circle id="Ellipse_12991" data-name="Ellipse 12991" cx="55" cy="55" r="55" transform="translate(3483.761 579.033)" fill="#f5ae5c"/>
    </g>
    <g id="Mask_Group_1099383" data-name="Mask Group 1099383" clip-path="url(#clip-path)">
      <g id="data-visualization_3673116" transform="translate(3503.215 598.936)">
        <g id="Group_1205118" data-name="Group 1205118">
          <g id="Group_1205104" data-name="Group 1205104">
            <path id="Path_1245532" data-name="Path 1245532" d="M41.677,27.419H35.1a7.672,7.672,0,0,0-7.677-7.677V13.161A14.258,14.258,0,0,1,41.677,27.419Z" fill="#e6e9ed"/>
          </g>
          <g id="Group_1205105" data-name="Group 1205105">
            <path id="Path_1245533" data-name="Path 1245533" d="M27.419,35.1v6.581A14.258,14.258,0,0,1,13.161,27.419h6.581A7.672,7.672,0,0,0,27.419,35.1Z" fill="#e6e9ed"/>
          </g>
          <g id="Group_1205106" data-name="Group 1205106">
            <path id="Path_1245534" data-name="Path 1245534" d="M35.1,27.419h6.581A14.254,14.254,0,0,1,27.419,41.677V35.1A7.672,7.672,0,0,0,35.1,27.419Z" fill="#69d6f4"/>
          </g>
          <g id="Group_1205107" data-name="Group 1205107">
            <path id="Path_1245535" data-name="Path 1245535" d="M27.419,13.161v6.581a7.672,7.672,0,0,0-7.677,7.677H13.161A14.252,14.252,0,0,1,27.419,13.161Z" fill="#69d6f4"/>
          </g>
          <g id="Group_1205108" data-name="Group 1205108">
            <path id="Path_1245536" data-name="Path 1245536" d="M27.419,19.742a7.677,7.677,0,1,1-7.677,7.677A7.672,7.672,0,0,1,27.419,19.742Zm3.29,7.677a3.29,3.29,0,1,0-3.29,3.29A3.286,3.286,0,0,0,30.71,27.419Z" fill="#fcd770"/>
          </g>
          <g id="Group_1205109" data-name="Group 1205109">
            <path id="Path_1245537" data-name="Path 1245537" d="M46.065,34H68v4.387H46.065Z" fill="#fcd770"/>
          </g>
          <g id="Group_1205110" data-name="Group 1205110">
            <path id="Path_1245538" data-name="Path 1245538" d="M46.065,25.226H68v4.387H46.065Z" fill="#fcd770"/>
          </g>
          <g id="Group_1205111" data-name="Group 1205111">
            <path id="Path_1245539" data-name="Path 1245539" d="M46.065,16.452H68v4.387H46.065Z" fill="#fcd770"/>
          </g>
          <g id="Group_1205112" data-name="Group 1205112">
            <circle id="Ellipse_13064" data-name="Ellipse 13064" cx="2.194" cy="2.194" r="2.194" transform="translate(51.548 50.452)" fill="#ef7385"/>
          </g>
          <g id="Group_1205113" data-name="Group 1205113">
            <circle id="Ellipse_13065" data-name="Ellipse 13065" cx="3.29" cy="3.29" r="3.29" transform="translate(44.968 2.194)" fill="#ef7385"/>
          </g>
          <g id="Group_1205114" data-name="Group 1205114">
            <path id="Path_1245540" data-name="Path 1245540" d="M2.194,59.226H24.129v4.387H2.194Z" fill="#ef7385"/>
          </g>
          <g id="Group_1205115" data-name="Group 1205115">
            <path id="Path_1245541" data-name="Path 1245541" d="M2.194,50.452H19.742v4.387H2.194Z" fill="#ef7385"/>
          </g>
          <g id="Group_1205116" data-name="Group 1205116">
            <path id="Path_1245542" data-name="Path 1245542" d="M2.194,41.677H15.355v4.387H2.194Z" fill="#ef7385"/>
          </g>
          <g id="Group_1205117" data-name="Group 1205117">
            <circle id="Ellipse_13066" data-name="Ellipse 13066" cx="3.29" cy="3.29" r="3.29" transform="translate(2.194 6.581)" fill="#ef7385"/>
          </g>
        </g>
        <g id="Group_1205119" data-name="Group 1205119">
          <path id="Path_1245543" data-name="Path 1245543" d="M27.419,23.032a4.387,4.387,0,1,0,4.387,4.387A4.392,4.392,0,0,0,27.419,23.032Zm0,6.581a2.194,2.194,0,1,1,2.194-2.194A2.2,2.2,0,0,1,27.419,29.613Z"/>
          <path id="Path_1245544" data-name="Path 1245544" d="M3.29,64.71H25.226V58.129H3.29V55.935H20.839V49.355H3.29V47.161H16.452V40.581H3.29V38.387H1.1V69.1H27.419V66.9H3.29Zm0-21.935H14.258v2.194H3.29Zm0,8.774H18.645v2.194H3.29Zm0,8.774H23.032v2.194H3.29Z"/>
          <path id="Path_1245545" data-name="Path 1245545" d="M53.742,49.355a3.286,3.286,0,0,0-3.089,2.194H35.924L33.1,41.671a15.332,15.332,0,0,0,.679-28.21l6.191-6.88h4.055a4.387,4.387,0,1,0,0-2.194H39l-7.434,8.261a15.139,15.139,0,0,0-12.069,1.645l-4.73-5.519H9.715a4.387,4.387,0,1,0,0,2.194h4.038l3.932,4.587A15.329,15.329,0,0,0,31.01,42.333l3.26,11.409H50.655a3.285,3.285,0,1,0,3.087-4.387ZM48.258,3.29a2.194,2.194,0,1,1-2.194,2.194A2.2,2.2,0,0,1,48.258,3.29ZM5.484,12.065A2.194,2.194,0,1,1,7.677,9.871,2.2,2.2,0,0,1,5.484,12.065ZM37.46,35.909l-3.118-3.118a8.723,8.723,0,0,0,1.776-4.275h4.408A13.1,13.1,0,0,1,37.46,35.909Zm3.064-9.587H36.117a8.723,8.723,0,0,0-1.776-4.275l3.118-3.118A13.09,13.09,0,0,1,40.525,26.323ZM28.516,14.314a13.1,13.1,0,0,1,7.393,3.065L32.791,20.5a8.723,8.723,0,0,0-4.275-1.776Zm-2.194,0v4.408A8.723,8.723,0,0,0,22.047,20.5l-3.118-3.118a13.09,13.09,0,0,1,7.393-3.065Zm-8.944,4.615L20.5,22.047a8.723,8.723,0,0,0-1.776,4.275H14.313A13.1,13.1,0,0,1,17.378,18.929Zm-3.064,9.587h4.408A8.723,8.723,0,0,0,20.5,32.791l-3.118,3.118a13.09,13.09,0,0,1-3.065-7.393ZM26.323,40.525a13.1,13.1,0,0,1-7.393-3.065l3.118-3.118a8.723,8.723,0,0,0,4.275,1.776ZM20.839,27.419A6.581,6.581,0,1,1,27.419,34,6.587,6.587,0,0,1,20.839,27.419Zm7.677,13.105V36.117a8.723,8.723,0,0,0,4.275-1.776l3.118,3.118A13.09,13.09,0,0,1,28.516,40.525ZM53.742,53.742a1.1,1.1,0,1,1,1.1-1.1A1.1,1.1,0,0,1,53.742,53.742Z"/>
          <path id="Path_1245546" data-name="Path 1245546" d="M34,55.935H49.355v2.194H34Z"/>
          <path id="Path_1245547" data-name="Path 1245547" d="M34,60.323H49.355v2.194H34Z"/>
          <path id="Path_1245548" data-name="Path 1245548" d="M34,64.71h2.194V66.9H34Z"/>
          <path id="Path_1245549" data-name="Path 1245549" d="M42.774,64.71h2.194V66.9H42.774Z"/>
          <path id="Path_1245550" data-name="Path 1245550" d="M38.387,64.71h2.194V66.9H38.387Z"/>
          <path id="Path_1245551" data-name="Path 1245551" d="M47.161,64.71h2.194V66.9H47.161Z"/>
          <path id="Path_1245552" data-name="Path 1245552" d="M44.968,15.355v6.581H69.1V15.355Zm13.161,4.387H47.161V17.548H58.129Zm8.774,0H60.323V17.548H66.9Z"/>
          <path id="Path_1245553" data-name="Path 1245553" d="M44.968,30.71H69.1V24.129H44.968Zm10.968-4.387H66.9v2.194H55.935Zm-8.774,0h6.581v2.194H47.161Z"/>
          <path id="Path_1245554" data-name="Path 1245554" d="M44.968,39.484H69.1V32.9H44.968ZM64.71,35.1H66.9V37.29H64.71Zm-17.548,0H62.516V37.29H47.161Z"/>
        </g>
      </g>
    </g>
  </g>
</svg>
