<svg xmlns="http://www.w3.org/2000/svg" xmlns:xlink="http://www.w3.org/1999/xlink" width="118" height="118" viewBox="0 0 118 118">
  <defs>
    <filter id="Ellipse_12998" x="0" y="0" width="118" height="118" filterUnits="userSpaceOnUse">
      <feOffset dy="3" input="SourceAlpha"/>
      <feGaussianBlur stdDeviation="3" result="blur"/>
      <feFlood flood-opacity="0.161"/>
      <feComposite operator="in" in2="blur"/>
      <feComposite in="SourceGraphic"/>
    </filter>
    <clipPath id="clip-path">
      <rect id="Rectangle_412530" data-name="Rectangle 412530" width="71" height="68" transform="translate(7661 -8300.372)" fill="#fff" stroke="#707070" stroke-width="1"/>
    </clipPath>
  </defs>
  <g id="Group_1205158" data-name="Group 1205158" transform="translate(-7637.25 8322.372)">
    <g transform="matrix(1, 0, 0, 1, 7637.25, -8322.37)" filter="url(#Ellipse_12998)">
      <g id="Ellipse_12998-2" data-name="Ellipse 12998" transform="translate(9 6)" fill="#5bd4dd" stroke="#3f939a" stroke-width="1">
        <circle cx="50" cy="50" r="50" stroke="none"/>
        <circle cx="50" cy="50" r="49.5" fill="none"/>
      </g>
    </g>
    <g id="Mask_Group_1099388" data-name="Mask Group 1099388" clip-path="url(#clip-path)">
      <g id="checking_2452654" transform="translate(7661.404 -8301.469)">
        <g id="Group_1205148" data-name="Group 1205148">
          <g id="Group_1205135" data-name="Group 1205135">
            <path id="Path_1245592" data-name="Path 1245592" d="M5.484,8.774H27.419v4.387H5.484Z" fill="#ffeaa7"/>
          </g>
          <g id="Group_1205136" data-name="Group 1205136">
            <path id="Path_1245593" data-name="Path 1245593" d="M5.484,19.742h18A17.561,17.561,0,0,0,19.9,24.129H5.484Z" fill="#ffeaa7"/>
          </g>
          <g id="Group_1205137" data-name="Group 1205137">
            <path id="Path_1245594" data-name="Path 1245594" d="M30.709,4.387V6.581a2.2,2.2,0,0,1-2.194,2.194H4.387A2.2,2.2,0,0,1,2.194,6.581V4.387A2.2,2.2,0,0,1,4.387,2.194H28.516A2.2,2.2,0,0,1,30.709,4.387Z" fill="#ff826e"/>
          </g>
          <g id="Group_1205138" data-name="Group 1205138">
            <path id="Path_1245595" data-name="Path 1245595" d="M28.516,13.161a2.2,2.2,0,0,1,2.194,2.194V15.9a17.478,17.478,0,0,0-7.217,3.839s-.011-.011-.011,0H4.387a2.2,2.2,0,0,1-2.194-2.194V15.355a2.2,2.2,0,0,1,2.194-2.194H28.516Z" fill="#ff826e"/>
          </g>
          <g id="Group_1205139" data-name="Group 1205139">
            <path id="Path_1245596" data-name="Path 1245596" d="M5.484,24.129H19.9a17.394,17.394,0,0,0-2.215,6.581H4.387a2.2,2.2,0,0,1-2.194-2.194V26.322a2.2,2.2,0,0,1,2.194-2.194Z" fill="#ff826e"/>
          </g>
          <g id="Group_1205140" data-name="Group 1205140">
            <path id="Path_1245597" data-name="Path 1245597" d="M52.644,32.9A17.548,17.548,0,0,1,52.1,37.29L50.451,41.4a17.571,17.571,0,0,1-4.387,5.2V68H59.225V59.225H68V32.9Z" fill="#f0d0b4"/>
          </g>
          <g id="Group_1205141" data-name="Group 1205141">
            <path id="Path_1245598" data-name="Path 1245598" d="M63.612,37.29v8.774H50.451V41.4c.011,0,0-.011,0-.011a17.349,17.349,0,0,0,1.645-4.1Z" fill="#e6e9ed"/>
          </g>
          <g id="Group_1205142" data-name="Group 1205142">
            <path id="Path_1245599" data-name="Path 1245599" d="M50.451,59.225h4.387v4.387H50.451Z" fill="#e6e9ed"/>
          </g>
          <g id="Group_1205143" data-name="Group 1205143">
            <path id="Path_1245600" data-name="Path 1245600" d="M68,59.225,59.225,68V59.225Z" fill="#b4dd7f"/>
          </g>
          <g id="Group_1205144" data-name="Group 1205144">
            <path id="Path_1245601" data-name="Path 1245601" d="M37.29,54.838a2.2,2.2,0,0,1,2.194,2.194v6.581a4.387,4.387,0,1,1-8.774,0V57.031A2.2,2.2,0,0,1,32.9,54.838H37.29Z" fill="#969faa"/>
          </g>
          <g id="Group_1205145" data-name="Group 1205145">
            <path id="Path_1245602" data-name="Path 1245602" d="M38.386,50.144v2.5a2.193,2.193,0,0,1-2.194,2.194H34a2.193,2.193,0,0,1-2.194-2.194v-2.5a17.78,17.78,0,0,0,6.581,0Z" fill="#ccd1d9"/>
          </g>
          <g id="Group_1205146" data-name="Group 1205146">
            <path id="Path_1245603" data-name="Path 1245603" d="M52.1,37.29a17.349,17.349,0,0,1-1.645,4.1s.011.011,0,.011a17.58,17.58,0,0,1-12.064,8.741,17.78,17.78,0,0,1-6.581,0A17.546,17.546,0,0,1,17.548,32.9a18.123,18.123,0,0,1,.132-2.194,17.584,17.584,0,0,1,5.8-10.968c0-.011.011,0,.011,0A17.562,17.562,0,0,1,52.1,37.29Z" fill="#fcd770"/>
          </g>
          <g id="Group_1205147" data-name="Group 1205147">
            <circle id="Ellipse_13072" data-name="Ellipse 13072" cx="13.161" cy="13.161" r="13.161" transform="translate(21.935 19.742)" fill="#69d6f4"/>
          </g>
        </g>
        <g id="Group_1205149" data-name="Group 1205149">
          <path id="Path_1245604" data-name="Path 1245604" d="M49.354,32.9A14.258,14.258,0,1,0,35.1,47.161,14.274,14.274,0,0,0,49.354,32.9Zm-26.322,0A12.064,12.064,0,1,1,35.1,44.967,12.079,12.079,0,0,1,23.032,32.9Z"/>
          <path id="Path_1245605" data-name="Path 1245605" d="M42,26.644,31.806,36.836l-3.612-3.612-1.551,1.551,5.162,5.162L43.549,28.194Z"/>
          <path id="Path_1245606" data-name="Path 1245606" d="M53.685,31.806a18.551,18.551,0,0,0-21.98-17.223,3.289,3.289,0,0,0-3.189-2.518V9.871a3.294,3.294,0,0,0,3.29-3.29V4.387a3.294,3.294,0,0,0-3.29-3.29H4.387A3.294,3.294,0,0,0,1.1,4.387V6.581a3.294,3.294,0,0,0,3.29,3.29v2.194a3.294,3.294,0,0,0-3.29,3.29v2.194a3.294,3.294,0,0,0,3.29,3.29v2.194a3.294,3.294,0,0,0-3.29,3.29v2.194a3.294,3.294,0,0,0,3.29,3.29h12.12c-.022.365-.056.726-.056,1.1A18.662,18.662,0,0,0,30.709,51v1.641a3.254,3.254,0,0,0,.44,1.613,3.283,3.283,0,0,0-1.537,2.774v6.581a5.484,5.484,0,0,0,10.968,0V57.032a3.283,3.283,0,0,0-1.537-2.774,3.254,3.254,0,0,0,.44-1.613V51a18.5,18.5,0,0,0,5.484-2.313V69.1H59.679L69.1,59.679V31.806Zm-2.138,9.852a18.522,18.522,0,0,0,1.368-3.272h9.6v6.581H51.548ZM3.29,6.581V4.387a1.1,1.1,0,0,1,1.1-1.1H28.516a1.1,1.1,0,0,1,1.1,1.1V6.581a1.1,1.1,0,0,1-1.1,1.1H4.387A1.1,1.1,0,0,1,3.29,6.581Zm3.29,3.29H26.322v2.194H6.581ZM3.29,17.548V15.355a1.1,1.1,0,0,1,1.1-1.1H28.516a1.082,1.082,0,0,1,1.044.839,18.6,18.6,0,0,0-6.453,3.548H4.387A1.1,1.1,0,0,1,3.29,17.548Zm3.29,3.29H20.906a18.757,18.757,0,0,0-1.6,2.194H6.581ZM4.387,29.612a1.1,1.1,0,0,1-1.1-1.1V26.322a1.1,1.1,0,0,1,1.1-1.1H18.125a18.484,18.484,0,0,0-1.364,4.387ZM18.645,32.9A16.451,16.451,0,1,1,35.1,49.354,16.47,16.47,0,0,1,18.645,32.9Zm19.742,30.71a3.29,3.29,0,0,1-6.581,0V57.032a1.1,1.1,0,0,1,1.1-1.1H37.29a1.1,1.1,0,0,1,1.1,1.1Zm-1.1-10.968a1.1,1.1,0,0,1-1.1,1.1H34a1.1,1.1,0,0,1-1.1-1.1V51.407a17.207,17.207,0,0,0,4.387,0Zm9.871-5.553a18.8,18.8,0,0,0,2.194-2.2v2.268H64.709V36.193H53.433A18.714,18.714,0,0,0,53.686,34H66.9V58.128H58.128V66.9H47.161ZM65.351,60.322l-5.03,5.03v-5.03Z"/>
          <path id="Path_1245607" data-name="Path 1245607" d="M49.354,49.354H64.709v2.194H49.354Z"/>
          <path id="Path_1245608" data-name="Path 1245608" d="M49.354,53.741H64.709v2.194H49.354Z"/>
          <path id="Path_1245609" data-name="Path 1245609" d="M49.354,58.128v6.581h6.581V58.128Zm4.387,4.387H51.548V60.322h2.194Z"/>
          <path id="Path_1245610" data-name="Path 1245610" d="M5.484,50.451H20.838v2.194H5.484Z"/>
          <path id="Path_1245611" data-name="Path 1245611" d="M5.484,54.838H20.838v2.194H5.484Z"/>
          <path id="Path_1245612" data-name="Path 1245612" d="M18.645,59.225h2.194v2.194H18.645Z"/>
          <path id="Path_1245613" data-name="Path 1245613" d="M9.871,59.225h2.194v2.194H9.871Z"/>
          <path id="Path_1245614" data-name="Path 1245614" d="M5.484,59.225H7.677v2.194H5.484Z"/>
          <path id="Path_1245615" data-name="Path 1245615" d="M14.258,59.225h2.194v2.194H14.258Z"/>
        </g>
      </g>
    </g>
  </g>
</svg>
