<svg xmlns="http://www.w3.org/2000/svg" xmlns:xlink="http://www.w3.org/1999/xlink" width="118" height="118" viewBox="0 0 118 118">
  <defs>
    <filter id="Ellipse_12995" x="0" y="0" width="118" height="118" filterUnits="userSpaceOnUse">
      <feOffset dy="3" input="SourceAlpha"/>
      <feGaussianBlur stdDeviation="3" result="blur"/>
      <feFlood flood-opacity="0.161"/>
      <feComposite operator="in" in2="blur"/>
      <feComposite in="SourceGraphic"/>
    </filter>
    <clipPath id="clip-path">
      <rect id="Rectangle_412525" data-name="Rectangle 412525" width="71" height="68" transform="translate(400.781 3444.392)" fill="#fff" stroke="#707070" stroke-width="1"/>
    </clipPath>
  </defs>
  <g id="Group_1205155" data-name="Group 1205155" transform="translate(-376.397 -3422.392)">
    <g transform="matrix(1, 0, 0, 1, 376.4, 3422.39)" filter="url(#Ellipse_12995)">
      <g id="Ellipse_12995-2" data-name="Ellipse 12995" transform="translate(9 6)" fill="#5bd4dd" stroke="#3f939a" stroke-width="1">
        <circle cx="50" cy="50" r="50" stroke="none"/>
        <circle cx="50" cy="50" r="49.5" fill="none"/>
      </g>
    </g>
    <g id="Mask_Group_1099391" data-name="Mask Group 1099391" clip-path="url(#clip-path)">
      <g id="network_4174426" transform="translate(402.281 3444.392)">
        <path id="Path_1245661" data-name="Path 1245661" d="M48.873,13.819v25.5H19.127V1.071h17Z" fill="#f4f4f7"/>
        <path id="Path_1245662" data-name="Path 1245662" d="M48.873,13.819H36.125V1.071Z" fill="#e2e2eb"/>
        <g id="Group_1205154" data-name="Group 1205154">
          <circle id="Ellipse_13074" data-name="Ellipse 13074" cx="6.374" cy="6.374" r="6.374" transform="translate(27.626 54.189)" fill="#8bc34a"/>
          <circle id="Ellipse_13075" data-name="Ellipse 13075" cx="6.374" cy="6.374" r="6.374" transform="translate(1.067 54.189)" fill="#8bc34a"/>
          <circle id="Ellipse_13076" data-name="Ellipse 13076" cx="6.374" cy="6.374" r="6.374" transform="translate(54.185 54.189)" fill="#8bc34a"/>
        </g>
        <path id="Path_1245663" data-name="Path 1245663" d="M23.376,5.32h4.249V35.067H23.376Z" fill="#ffcf4d"/>
        <path id="Path_1245664" data-name="Path 1245664" d="M27.626,17.006h4.249v18.06H27.626Z" fill="#3abeff"/>
        <path id="Path_1245665" data-name="Path 1245665" d="M31.875,22.318h4.249V35.067H31.875Z" fill="#f23835"/>
        <path id="Path_1245666" data-name="Path 1245666" d="M36.125,18.069h4.249v17H36.125Z" fill="#8bc34a"/>
        <path id="Path_1245667" data-name="Path 1245667" d="M40.374,27.63h4.249v7.437H40.374Z" fill="#0089de"/>
        <path id="Path_1245668" data-name="Path 1245668" d="M9.566,59.5H5.316a1.062,1.062,0,1,0,0,2.125H9.566a1.062,1.062,0,1,0,0-2.125Z"/>
        <path id="Path_1245669" data-name="Path 1245669" d="M36.125,59.5H31.875a1.062,1.062,0,1,0,0,2.125h4.249a1.062,1.062,0,1,0,0-2.125Z"/>
        <path id="Path_1245670" data-name="Path 1245670" d="M62.684,59.5H58.434a1.062,1.062,0,1,0,0,2.125h4.249a1.062,1.062,0,0,0,0-2.125Z"/>
        <path id="Path_1245671" data-name="Path 1245671" d="M61.621,53.2V46.753a1.062,1.062,0,0,0-1.062-1.062h-25.5V40.378H48.873a1.062,1.062,0,0,0,1.062-1.062c0-27.1.125-25.812-.311-26.248C36.068-.488,36.841.249,36.624.133c-.344-.182.918-.125-17.5-.125a1.062,1.062,0,0,0-1.062,1.062V39.316a1.062,1.062,0,0,0,1.062,1.062H32.938V45.69H7.441a1.062,1.062,0,0,0-1.062,1.062V53.2A7.436,7.436,0,1,0,14.8,61.626H26.64a7.436,7.436,0,0,0,14.719,0H53.2A7.436,7.436,0,1,0,61.621,53.2ZM46.308,12.757H37.187V3.636ZM20.189,2.133H35.062V13.819a1.062,1.062,0,0,0,1.062,1.062H47.811V38.254H20.189ZM59.5,53.2a7.452,7.452,0,0,0-6.3,6.3H41.359a7.451,7.451,0,0,0-6.3-6.3V47.815H59.5V53.2ZM32.938,47.815V53.2a7.452,7.452,0,0,0-6.3,6.3H14.8a7.452,7.452,0,0,0-6.3-6.3V47.815Zm-25.5,18.06a5.312,5.312,0,1,1,5.312-5.312A5.318,5.318,0,0,1,7.441,65.875Zm26.559,0a5.312,5.312,0,1,1,5.312-5.312A5.318,5.318,0,0,1,34,65.875Zm26.559,0a5.312,5.312,0,1,1,5.312-5.312A5.318,5.318,0,0,1,60.559,65.875Z"/>
        <path id="Path_1245672" data-name="Path 1245672" d="M44.624,36.129a1.062,1.062,0,0,0,1.062-1.062V27.63a1.062,1.062,0,0,0-1.062-1.062H41.436v-8.5a1.062,1.062,0,0,0-1.062-1.062H36.125a1.062,1.062,0,0,0-1.062,1.062v3.187H32.938V17.006a1.062,1.062,0,0,0-1.062-1.062H28.688V5.32a1.062,1.062,0,0,0-1.062-1.062H23.376A1.062,1.062,0,0,0,22.314,5.32V35.067a1.062,1.062,0,0,0,1.062,1.062Zm-1.062-7.437V34H41.436V28.692Zm-6.374-9.561h2.125V34H37.187ZM24.439,6.383h2.125V34H24.439Zm4.249,11.686h2.125V34H28.688Zm4.249,5.312h2.125V34H32.938Z"/>
      </g>
    </g>
  </g>
</svg>
