<svg xmlns="http://www.w3.org/2000/svg" xmlns:xlink="http://www.w3.org/1999/xlink" width="110" height="110" viewBox="0 0 110 110">
  <defs>
    <clipPath id="clip-path">
      <rect id="Rectangle_412518" data-name="Rectangle 412518" width="71" height="68" transform="translate(1131.301 1807.093)" fill="#fff" stroke="#707070" stroke-width="1"/>
    </clipPath>
  </defs>
  <g id="Group_1205134" data-name="Group 1205134" transform="translate(-1112.25 -1786.093)">
    <circle id="Ellipse_12994" data-name="Ellipse 12994" cx="55" cy="55" r="55" transform="translate(1112.25 1786.093)" fill="#f5ae5c"/>
    <g id="Mask_Group_1099387" data-name="Mask Group 1099387" clip-path="url(#clip-path)">
      <g id="backup_14488169" transform="translate(1131.162 1805.454)">
        <g id="Group_1205133" data-name="Group 1205133">
          <g id="Group_1205131" data-name="Group 1205131">
            <path id="Path_1245584" data-name="Path 1245584" d="M31.253,40.6c0,2.435-6.731,4.409-15.035,4.409S1.183,43.04,1.183,40.6V10.534c0-2.435,6.731-4.409,15.035-4.409S31.253,8.1,31.253,10.534Z" fill="#7a7785" fill-rule="evenodd"/>
            <path id="Path_1245585" data-name="Path 1245585" d="M1.183,30.581c0,5.771,30.07,5.771,30.07,0V20.558c0,5.813-30.07,5.751-30.07,0V30.581Z" fill="#6f6571" fill-rule="evenodd"/>
            <path id="Path_1245586" data-name="Path 1245586" d="M16.218,17.913a2.043,2.043,0,1,1-2.043,2.043A2.043,2.043,0,0,1,16.218,17.913Zm0,20.047A2.043,2.043,0,1,1,14.176,40,2.043,2.043,0,0,1,16.218,37.959Zm0-10.023a2.043,2.043,0,1,1-2.043,2.043A2.043,2.043,0,0,1,16.218,27.936Z" fill="#ffd54f" fill-rule="evenodd"/>
            <ellipse id="Ellipse_13071" data-name="Ellipse 13071" cx="15.035" cy="4.409" rx="15.035" ry="4.409" transform="translate(1.183 6.125)" fill="#6f6571"/>
          </g>
          <path id="Path_1245587" data-name="Path 1245587" d="M35.655,16.238c9.271-1.182,14.761,2.29,19.766,8.478l2.163-.961a.653.653,0,0,1,.9.752L56.6,32.239a.653.653,0,0,1-.945.42l-7.006-3.778a.653.653,0,0,1,.045-1.173l1.8-.8c-2.024-3.571-6.761-8.266-14.834-10.671Z" fill="#6ce75a" fill-rule="evenodd"/>
          <path id="Path_1245588" data-name="Path 1245588" d="M35.622,64.923c-9.271,1.182-14.761-2.29-19.766-8.478l-2.163.961a.653.653,0,0,1-.9-.752l1.889-7.732a.653.653,0,0,1,.945-.42l7.006,3.778a.653.653,0,0,1-.045,1.173l-1.8.8C22.812,57.823,27.549,62.517,35.622,64.923Z" fill="#6ce75a" fill-rule="evenodd"/>
          <g id="Group_1205132" data-name="Group 1205132">
            <path id="Path_1245589" data-name="Path 1245589" d="M37.58,37.2h8.362l4.6,3.116H65.62V59.609H37.58Z" fill="#ffb700" fill-rule="evenodd"/>
            <path id="Path_1245590" data-name="Path 1245590" d="M37.58,59.609H65.62l4.474-14.532H42.053Z" fill="#ffd54f" fill-rule="evenodd"/>
          </g>
        </g>
        <path id="Path_1245591" data-name="Path 1245591" d="M16.668,55.788a1.046,1.046,0,0,0-1.237-.3l-1.436.638,1.58-6.468,5.86,3.161-1.071.477a1.042,1.042,0,0,0-.484,1.469,21.12,21.12,0,0,0,5.412,6.078,28.166,28.166,0,0,0,5.147,3.2C25.1,63.6,20.888,61.007,16.668,55.788Zm19.252,8.134c-8.047-2.4-12.021-6.892-13.607-9.205l.7-.31a1.7,1.7,0,0,0,.117-3.046l-7.005-3.778a1.7,1.7,0,0,0-2.455,1.092l-1.889,7.732a1.7,1.7,0,0,0,2.34,1.954l1.436-.639a24.191,24.191,0,0,0,8.139,6.671,19.509,19.509,0,0,0,8.492,1.8,28.165,28.165,0,0,0,3.569-.237,1.044,1.044,0,0,0,.166-2.037ZM54.61,25.373a1.043,1.043,0,0,0,1.235.3l1.437-.639L55.7,31.5,49.84,28.34l1.072-.477a1.044,1.044,0,0,0,.484-1.469,21.094,21.094,0,0,0-5.413-6.079,28.116,28.116,0,0,0-5.146-3.195c5.337.445,9.55,3.033,13.772,8.252ZM35.357,17.239c8.045,2.4,12.021,6.892,13.607,9.205l-.7.31a1.7,1.7,0,0,0-.117,3.046l7.006,3.778a1.7,1.7,0,0,0,2.455-1.091L59.5,24.755a1.7,1.7,0,0,0-2.34-1.954l-1.437.639a24.205,24.205,0,0,0-8.138-6.671A21.218,21.218,0,0,0,35.522,15.2a1.044,1.044,0,0,0-.166,2.037ZM15.219,40a1,1,0,1,1,1,1A1,1,0,0,1,15.219,40ZM19.3,40a3.086,3.086,0,1,0-3.087,3.087A3.09,3.09,0,0,0,19.3,40ZM16.217,28.98a1,1,0,1,1-1,1A1,1,0,0,1,16.217,28.98Zm0,4.086a3.087,3.087,0,1,0-3.086-3.087A3.09,3.09,0,0,0,16.217,33.066Zm0-14.109a1,1,0,1,1-1,1A1,1,0,0,1,16.217,18.957Zm0,4.086a3.087,3.087,0,1,0-3.086-3.087A3.09,3.09,0,0,0,16.217,23.043Zm5.733-3.4a1.046,1.046,0,0,1,.88-1.186,26.661,26.661,0,0,0,4.127-.912,1.044,1.044,0,1,1,.631,1.99,28.741,28.741,0,0,1-4.452.988,1.114,1.114,0,0,1-.155.011,1.046,1.046,0,0,1-1.031-.891ZM4.167,18.219a1.044,1.044,0,0,1,1.312-.678,26.631,26.631,0,0,0,4.126.912,1.044,1.044,0,0,1-.152,2.077,1.117,1.117,0,0,1-.155-.011,28.741,28.741,0,0,1-4.452-.988,1.045,1.045,0,0,1-.679-1.312ZM21.951,29.661a1.046,1.046,0,0,1,.88-1.186,26.661,26.661,0,0,0,4.127-.912,1.044,1.044,0,1,1,.631,1.99,28.741,28.741,0,0,1-4.452.988,1.114,1.114,0,0,1-.155.011,1.046,1.046,0,0,1-1.031-.892ZM4.167,28.242a1.045,1.045,0,0,1,1.313-.678,26.574,26.574,0,0,0,4.125.912,1.044,1.044,0,0,1-.152,2.077,1.117,1.117,0,0,1-.155-.011,28.742,28.742,0,0,1-4.452-.988,1.045,1.045,0,0,1-.679-1.312Zm6.317,11.443a1.045,1.045,0,0,1-1.031.892,1.118,1.118,0,0,1-.155-.011,28.742,28.742,0,0,1-4.452-.988,1.044,1.044,0,1,1,.632-1.99,26.631,26.631,0,0,0,4.126.912,1.046,1.046,0,0,1,.88,1.186Zm11.466,0a1.046,1.046,0,0,1,.88-1.186,26.661,26.661,0,0,0,4.127-.912,1.044,1.044,0,1,1,.631,1.99,28.742,28.742,0,0,1-4.452.988,1.114,1.114,0,0,1-.155.011,1.046,1.046,0,0,1-1.031-.891ZM2.227,40.6c0,.291.656,1.237,3.653,2.116A38.4,38.4,0,0,0,16.217,43.97a38.394,38.394,0,0,0,10.339-1.249c3-.879,3.653-1.825,3.653-2.116V33.442A13.457,13.457,0,0,1,27.143,34.7a40.472,40.472,0,0,1-10.926,1.334A40.466,40.466,0,0,1,5.293,34.7a13.454,13.454,0,0,1-3.066-1.259V40.6Zm0-17.186v7.163c0,.291.656,1.237,3.653,2.116a38.4,38.4,0,0,0,10.338,1.249A38.394,38.394,0,0,0,26.556,32.7c3-.879,3.653-1.825,3.653-2.116V23.419a13.464,13.464,0,0,1-3.065,1.259,40.5,40.5,0,0,1-10.926,1.334A40.494,40.494,0,0,1,5.293,24.678a13.452,13.452,0,0,1-3.066-1.259Zm0-10.023v7.163c0,.29.656,1.237,3.653,2.116a38.392,38.392,0,0,0,10.338,1.249,38.394,38.394,0,0,0,10.339-1.249c3-.879,3.653-1.826,3.653-2.116V13.4a13.486,13.486,0,0,1-3.065,1.26,40.5,40.5,0,0,1-10.926,1.333A40.49,40.49,0,0,1,5.293,14.655,13.488,13.488,0,0,1,2.227,13.4Zm0-2.86c0-.29.656-1.237,3.653-2.116A38.4,38.4,0,0,1,16.217,7.17,38.394,38.394,0,0,1,26.556,8.419c3,.879,3.653,1.826,3.653,2.116s-.656,1.237-3.653,2.116A38.394,38.394,0,0,1,16.217,13.9,38.4,38.4,0,0,1,5.88,12.651c-3-.879-3.653-1.825-3.653-2.116ZM27.143,44.724C31.4,43.475,32.3,41.8,32.3,40.6V10.535c0-1.19-.893-2.871-5.154-4.119A40.5,40.5,0,0,0,16.217,5.081,40.488,40.488,0,0,0,5.293,6.415C1.033,7.664.139,9.345.139,10.535V40.6c0,1.19.894,2.87,5.154,4.119a40.487,40.487,0,0,0,10.925,1.334A40.494,40.494,0,0,0,27.143,44.724Zm37.7,13.842H38.993l3.831-12.444H68.676ZM45.621,38.249h-7V52.67l2.432-7.9a1.044,1.044,0,0,1,1-.737H64.579V41.364H50.541a1.044,1.044,0,0,1-.585-.179Zm25.313,6.209a1.041,1.041,0,0,1,.158.928L66.615,59.917a1.038,1.038,0,0,1-.991.737H37.578a1.044,1.044,0,0,1-1.044-1.044V37.2a1.044,1.044,0,0,1,1.044-1.044h8.363a1.043,1.043,0,0,1,.586.18l4.334,2.937H65.623a1.047,1.047,0,0,1,1.044,1.044v3.713h3.427a1.05,1.05,0,0,1,.84.424Z" fill-rule="evenodd"/>
      </g>
    </g>
  </g>
</svg>
