<svg xmlns="http://www.w3.org/2000/svg" xmlns:xlink="http://www.w3.org/1999/xlink" width="118" height="118" viewBox="0 0 118 118">
  <defs>
    <filter id="Ellipse_12996" x="0" y="0" width="118" height="118" filterUnits="userSpaceOnUse">
      <feOffset dy="3" input="SourceAlpha"/>
      <feGaussianBlur stdDeviation="3" result="blur"/>
      <feFlood flood-opacity="0.161"/>
      <feComposite operator="in" in2="blur"/>
      <feComposite in="SourceGraphic"/>
    </filter>
    <clipPath id="clip-path">
      <rect id="Rectangle_412526" data-name="Rectangle 412526" width="71" height="68" transform="translate(1132.147 3444.392)" fill="#fff" stroke="#707070" stroke-width="1"/>
    </clipPath>
  </defs>
  <g id="Group_1205157" data-name="Group 1205157" transform="translate(-1108.397 -3422.392)">
    <g transform="matrix(1, 0, 0, 1, 1108.4, 3422.39)" filter="url(#Ellipse_12996)">
      <g id="Ellipse_12996-2" data-name="Ellipse 12996" transform="translate(9 6)" fill="#5bd4dd" stroke="#3f939a" stroke-width="1">
        <circle cx="50" cy="50" r="50" stroke="none"/>
        <circle cx="50" cy="50" r="49.5" fill="none"/>
      </g>
    </g>
    <g id="Mask_Group_1099389" data-name="Mask Group 1099389" clip-path="url(#clip-path)">
      <g id="compare_12177046" transform="translate(1133.647 3444.392)">
        <g id="Group_1205150" data-name="Group 1205150">
          <path id="Path_1245616" data-name="Path 1245616" d="M2.32,15.637h22.2l5.628,5.632V52.363H2.32Z" fill="#eaf6ff" fill-rule="evenodd"/>
          <path id="Path_1245617" data-name="Path 1245617" d="M24.517,15.637V21.27h5.628Z" fill="#d3dde6" fill-rule="evenodd"/>
          <path id="Path_1245618" data-name="Path 1245618" d="M37.855,15.637h22.2l5.628,5.632V52.363H37.855Z" fill="#eaf6ff" fill-rule="evenodd"/>
          <path id="Path_1245619" data-name="Path 1245619" d="M60.053,15.637V21.27h5.628Z" fill="#d3dde6" fill-rule="evenodd"/>
        </g>
        <path id="Path_1245620" data-name="Path 1245620" d="M49.854,24.827h3.825V39.318H49.854Z" fill="#fa4655"/>
        <path id="Path_1245621" data-name="Path 1245621" d="M56.179,28.1h3.829V39.318H56.179Z" fill="#4bd16d"/>
        <path id="Path_1245622" data-name="Path 1245622" d="M43.529,31.427h3.825v7.891H43.529Z" fill="#ffba57"/>
        <path id="Path_1245623" data-name="Path 1245623" d="M7.357,36.792a1.574,1.574,0,1,0-1.574-1.574,1.574,1.574,0,0,0,1.574,1.574Z" fill="#4e93e6" fill-rule="evenodd"/>
        <path id="Path_1245624" data-name="Path 1245624" d="M13.5,30.655a1.574,1.574,0,1,0-1.574-1.574A1.574,1.574,0,0,0,13.5,30.655Z" fill="#e6a74e" fill-rule="evenodd"/>
        <path id="Path_1245625" data-name="Path 1245625" d="M18.655,35.813a1.574,1.574,0,1,0-1.574-1.574A1.574,1.574,0,0,0,18.655,35.813Z" fill="#44bc62" fill-rule="evenodd"/>
        <path id="Path_1245626" data-name="Path 1245626" d="M25.108,29.36a1.574,1.574,0,1,0-1.573-1.574,1.574,1.574,0,0,0,1.573,1.574Z" fill="#e63140" fill-rule="evenodd"/>
        <path id="Path_1245627" data-name="Path 1245627" d="M2.32,15.637H4.213V52.363H2.32Z" fill="#d3dde6"/>
        <path id="Path_1245628" data-name="Path 1245628" d="M7.88,36.705a1.575,1.575,0,0,1,0-2.97,1.575,1.575,0,0,1,0,2.97Z" fill="#57a3ff" fill-rule="evenodd"/>
        <path id="Path_1245629" data-name="Path 1245629" d="M14.021,30.565a1.573,1.573,0,0,1,0-2.971,1.575,1.575,0,0,1,0,2.971Z" fill="#ffba57" fill-rule="evenodd"/>
        <path id="Path_1245630" data-name="Path 1245630" d="M19.178,35.727a1.575,1.575,0,0,1,0-2.971,1.575,1.575,0,0,1,0,2.971Z" fill="#4bd16d" fill-rule="evenodd"/>
        <path id="Path_1245631" data-name="Path 1245631" d="M25.631,29.27a1.573,1.573,0,0,1,0-2.967,1.573,1.573,0,0,1,0,2.967Z" fill="#fa4655" fill-rule="evenodd"/>
        <path id="Path_1245632" data-name="Path 1245632" d="M37.855,15.637h1.89V52.363h-1.89Z" fill="#d3dde6"/>
        <path id="Path_1245633" data-name="Path 1245633" d="M43.529,31.427h1.913v7.891H43.529Z" fill="#e6a74e"/>
        <path id="Path_1245634" data-name="Path 1245634" d="M49.854,24.827h1.913V39.318H49.854Z" fill="#e63140"/>
        <path id="Path_1245635" data-name="Path 1245635" d="M56.179,28.1h1.913V39.318H56.179Z" fill="#44bc62"/>
        <path id="Path_1245636" data-name="Path 1245636" d="M31.073,52.363V21.27a.928.928,0,0,0-.271-.656l-5.628-5.632a.928.928,0,0,0-.656-.272H2.319a.928.928,0,0,0-.928.928V52.363a.928.928,0,0,0,.928.928H30.145a.928.928,0,0,0,.928-.928ZM25.445,17.879l2.461,2.463H25.445ZM3.248,51.435V16.566H23.589v4.7a.928.928,0,0,0,.928.928h4.7V51.435Zm63.361.928V21.27a.927.927,0,0,0-.272-.656L60.7,14.981a.928.928,0,0,0-.656-.272H37.856a.928.928,0,0,0-.928.928V52.363a.928.928,0,0,0,.928.928H65.681a.928.928,0,0,0,.928-.928ZM60.977,17.878l2.464,2.464H60.977ZM38.784,51.435V16.566H59.121v4.7a.928.928,0,0,0,.928.928h4.7V51.435ZM58.09,10.009a.928.928,0,1,1-1.315,1.31A32.137,32.137,0,0,0,12.892,9.762l3.992.043a.928.928,0,1,1-.01,1.856h-.01l-6.305-.068a.928.928,0,0,1-.9-1.089l1.1-6.208a.928.928,0,1,1,1.828.324l-.619,3.5a33.991,33.991,0,0,1,46.127,1.9Zm-2.67,53.373.619-3.495a33.992,33.992,0,0,1-46.127-1.9.928.928,0,1,1,1.315-1.31,32.136,32.136,0,0,0,43.88,1.56l-3.989-.04a.928.928,0,1,1,.009-1.856h.01l6.306.064a.928.928,0,0,1,.9,1.09l-1.1,6.208a.928.928,0,0,1-1.828-.324Zm-28.977-19.6a.928.928,0,0,1-.928.928H11.953a.928.928,0,1,1,0-1.856H25.514A.928.928,0,0,1,26.442,43.787Zm0,3.9a.928.928,0,0,1-.928.928H11.953a.928.928,0,1,1,0-1.855H25.514A.928.928,0,0,1,26.442,47.691Zm-16.467-3.9a.928.928,0,0,1-.928.928H6.95a.928.928,0,1,1,0-1.856h2.1A.928.928,0,0,1,9.975,43.787Zm0,3.9a.928.928,0,0,1-.928.928H6.95a.928.928,0,0,1,0-1.856h2.1A.928.928,0,0,1,9.975,47.691Zm33.554-7.445h3.825a.928.928,0,0,0,.928-.928V31.427a.928.928,0,0,0-.928-.928H43.529a.928.928,0,0,0-.928.928v7.891A.928.928,0,0,0,43.529,40.246Zm.928-7.891h1.969V38.39H44.457Zm5.4,7.891h3.825a.928.928,0,0,0,.928-.928V24.828a.928.928,0,0,0-.928-.928H49.854a.928.928,0,0,0-.928.928v14.49A.928.928,0,0,0,49.854,40.246Zm.928-14.491h1.969V38.39H50.782Zm5.4,14.491H60a.928.928,0,0,0,.928-.928V28.1A.928.928,0,0,0,60,27.167H56.179a.928.928,0,0,0-.928.928V39.318A.928.928,0,0,0,56.179,40.246Zm.928-11.223h1.969V38.39H57.107Zm4.872,18.668a.928.928,0,0,1-.928.928H47.49a.928.928,0,1,1,0-1.856H61.05a.928.928,0,0,1,.928.928Zm-16.471,0a.928.928,0,0,1-.928.928h-2.1a.928.928,0,0,1,0-1.856h2.1A.928.928,0,0,1,45.507,47.691Zm16.471-3.9a.928.928,0,0,1-.928.928H47.49a.928.928,0,1,1,0-1.856H61.05a.928.928,0,0,1,.928.928Zm-16.471,0a.928.928,0,0,1-.928.928h-2.1a.928.928,0,1,1,0-1.856h2.1A.928.928,0,0,1,45.507,43.787Zm-20.4-18.5a2.5,2.5,0,0,0-2.3,3.488l-3.169,3.169a2.493,2.493,0,0,0-1.972,0L15.8,30.068a2.5,2.5,0,1,0-4.6,0L8.345,32.922a2.5,2.5,0,1,0,1.311,1.314l2.853-2.855a2.492,2.492,0,0,0,1.974,0l1.873,1.873a2.5,2.5,0,1,0,4.6,0l3.168-3.168a2.5,2.5,0,1,0,.986-4.8ZM7.357,35.864A.646.646,0,1,1,8,35.218a.646.646,0,0,1-.646.646Zm5.684-6.326a.647.647,0,1,1,.925-.015l-.014.013-.013.014a.642.642,0,0,1-.9-.012Zm5.614,5.347a.646.646,0,1,1,.646-.646.646.646,0,0,1-.646.646Zm6.453-6.453a.646.646,0,1,1,.646-.646.646.646,0,0,1-.646.646Z"/>
      </g>
    </g>
  </g>
</svg>
